SofiaSans-DSFix.ufo
<glyph name="exclam" format="2">
  <advance width="279.39545"/>
  <unicode hex="0021"/>
  <outline>
    <contour>
      <point x="66" y="242" type="curve" smooth="yes"/>
      <point x="225" y="242" type="line" smooth="yes"/>
      <point x="233" y="242"/>
      <point x="239" y="248"/>
      <point x="239" y="258" type="curve" smooth="yes"/>
      <point x="253" y="640" type="line" smooth="yes"/>
      <point x="253" y="648"/>
      <point x="247" y="655"/>
      <point x="240" y="655" type="curve" smooth="yes"/>
      <point x="52" y="655" type="line" smooth="yes"/>
      <point x="44" y="655"/>
      <point x="39" y="648"/>
      <point x="39" y="640" type="curve" smooth="yes"/>
      <point x="53" y="258" type="line" smooth="yes"/>
      <point x="53" y="249"/>
      <point x="59" y="242"/>
    </contour>
    <contour>
      <point x="146" y="-6" type="curve" smooth="yes"/>
      <point x="211" y="-6"/>
      <point x="248" y="21"/>
      <point x="248" y="82" type="curve" smooth="yes"/>
      <point x="248" y="113" type="line" smooth="yes"/>
      <point x="248" y="175"/>
      <point x="211" y="202"/>
      <point x="146" y="202" type="curve" smooth="yes"/>
      <point x="81" y="202"/>
      <point x="42" y="175"/>
      <point x="42" y="113" type="curve" smooth="yes"/>
      <point x="42" y="82" type="line" smooth="yes"/>
      <point x="42" y="21"/>
      <point x="81" y="-6"/>
    </contour>
  </outline>
</glyph>
<glyph name="quotedbl" format="2">
  <advance width="421.31805"/>
  <unicode hex="0022"/>
  <outline>
    <contour>
      <point x="246" y="345" type="curve" smooth="yes"/>
      <point x="386" y="345" type="line" smooth="yes"/>
      <point x="396" y="345"/>
      <point x="402" y="351"/>
      <point x="402" y="361" type="curve" smooth="yes"/>
      <point x="402" y="667" type="line" smooth="yes"/>
      <point x="402" y="676"/>
      <point x="396" y="683"/>
      <point x="386" y="683" type="curve" smooth="yes"/>
      <point x="246" y="683" type="line" smooth="yes"/>
      <point x="236" y="683"/>
      <point x="229" y="676"/>
      <point x="229" y="667" type="curve" smooth="yes"/>
      <point x="229" y="361" type="line" smooth="yes"/>
      <point x="229" y="351"/>
      <point x="235" y="345"/>
    </contour>
    <contour>
      <point x="35" y="345" type="curve" smooth="yes"/>
      <point x="176" y="345" type="line" smooth="yes"/>
      <point x="185" y="345"/>
      <point x="192" y="351"/>
      <point x="192" y="361" type="curve" smooth="yes"/>
      <point x="192" y="667" type="line" smooth="yes"/>
      <point x="192" y="676"/>
      <point x="185" y="683"/>
      <point x="176" y="683" type="curve" smooth="yes"/>
      <point x="35" y="683" type="line" smooth="yes"/>
      <point x="26" y="683"/>
      <point x="19" y="676"/>
      <point x="19" y="667" type="curve" smooth="yes"/>
      <point x="19" y="361" type="line" smooth="yes"/>
      <point x="19" y="351"/>
      <point x="24" y="345"/>
    </contour>
  </outline>
</glyph>
<glyph name="numbersign" format="2">
  <advance width="479.943"/>
  <unicode hex="0023"/>
  <outline>
    <contour>
      <point x="86" y="0" type="curve" smooth="yes"/>
      <point x="184" y="0" type="line" smooth="yes"/>
      <point x="194" y="0"/>
      <point x="201" y="7"/>
      <point x="201" y="16" type="curve" smooth="yes"/>
      <point x="201" y="104" type="line"/>
      <point x="279" y="104" type="line"/>
      <point x="279" y="16" type="line" smooth="yes"/>
      <point x="279" y="7"/>
      <point x="286" y="0"/>
      <point x="296" y="0" type="curve" smooth="yes"/>
      <point x="394" y="0" type="line" smooth="yes"/>
      <point x="404" y="0"/>
      <point x="411" y="7"/>
      <point x="411" y="16" type="curve" smooth="yes"/>
      <point x="411" y="104" type="line"/>
      <point x="448" y="104" type="line" smooth="yes"/>
      <point x="458" y="104"/>
      <point x="465" y="111"/>
      <point x="465" y="120" type="curve" smooth="yes"/>
      <point x="465" y="221" type="line" smooth="yes"/>
      <point x="465" y="231"/>
      <point x="458" y="238"/>
      <point x="448" y="238" type="curve" smooth="yes"/>
      <point x="411" y="238" type="line"/>
      <point x="411" y="375" type="line"/>
      <point x="448" y="375" type="line" smooth="yes"/>
      <point x="458" y="375"/>
      <point x="465" y="382"/>
      <point x="465" y="392" type="curve" smooth="yes"/>
      <point x="465" y="493" type="line" smooth="yes"/>
      <point x="465" y="502"/>
      <point x="458" y="509"/>
      <point x="448" y="509" type="curve" smooth="yes"/>
      <point x="411" y="509" type="line"/>
      <point x="411" y="597" type="line" smooth="yes"/>
      <point x="411" y="606"/>
      <point x="404" y="613"/>
      <point x="394" y="613" type="curve" smooth="yes"/>
      <point x="296" y="613" type="line" smooth="yes"/>
      <point x="286" y="613"/>
      <point x="279" y="606"/>
      <point x="279" y="597" type="curve" smooth="yes"/>
      <point x="279" y="509" type="line"/>
      <point x="201" y="509" type="line"/>
      <point x="201" y="597" type="line" smooth="yes"/>
      <point x="201" y="606"/>
      <point x="194" y="613"/>
      <point x="184" y="613" type="curve" smooth="yes"/>
      <point x="86" y="613" type="line" smooth="yes"/>
      <point x="76" y="613"/>
      <point x="69" y="606"/>
      <point x="69" y="597" type="curve" smooth="yes"/>
      <point x="69" y="509" type="line"/>
      <point x="32" y="509" type="line" smooth="yes"/>
      <point x="22" y="509"/>
      <point x="15" y="502"/>
      <point x="15" y="493" type="curve" smooth="yes"/>
      <point x="15" y="392" type="line" smooth="yes"/>
      <point x="15" y="382"/>
      <point x="22" y="375"/>
      <point x="32" y="375" type="curve" smooth="yes"/>
      <point x="69" y="375" type="line"/>
      <point x="69" y="238" type="line"/>
      <point x="32" y="238" type="line" smooth="yes"/>
      <point x="22" y="238"/>
      <point x="15" y="231"/>
      <point x="15" y="221" type="curve" smooth="yes"/>
      <point x="15" y="120" type="line" smooth="yes"/>
      <point x="15" y="111"/>
      <point x="22" y="104"/>
      <point x="32" y="104" type="curve" smooth="yes"/>
      <point x="69" y="104" type="line"/>
      <point x="69" y="16" type="line" smooth="yes"/>
      <point x="69" y="7"/>
      <point x="76" y="0"/>
    </contour>
    <contour>
      <point x="201" y="238" type="line"/>
      <point x="201" y="375" type="line"/>
      <point x="279" y="375" type="line"/>
      <point x="279" y="238" type="line"/>
    </contour>
  </outline>
</glyph>
<glyph name="dollar" format="2">
  <advance width="467.31807"/>
  <unicode hex="0024"/>
  <outline>
    <contour>
      <point x="229" y="-6" type="curve" smooth="yes"/>
      <point x="377" y="-6"/>
      <point x="438" y="57"/>
      <point x="439" y="177" type="curve" smooth="yes"/>
      <point x="440" y="268"/>
      <point x="414" y="308"/>
      <point x="336" y="366" type="curve" smooth="yes"/>
      <point x="246" y="434" type="line" smooth="yes"/>
      <point x="231" y="444"/>
      <point x="215" y="457"/>
      <point x="215" y="480" type="curve" smooth="yes"/>
      <point x="215" y="498"/>
      <point x="218" y="504"/>
      <point x="228" y="504" type="curve" smooth="yes"/>
      <point x="249" y="504"/>
      <point x="244" y="474"/>
      <point x="242" y="457" type="curve" smooth="yes"/>
      <point x="241" y="446"/>
      <point x="246" y="440"/>
      <point x="254" y="440" type="curve" smooth="yes"/>
      <point x="414" y="440" type="line" smooth="yes"/>
      <point x="421" y="440"/>
      <point x="427" y="446"/>
      <point x="428" y="458" type="curve" smooth="yes"/>
      <point x="441" y="589"/>
      <point x="369" y="661"/>
      <point x="224" y="661" type="curve" smooth="yes"/>
      <point x="90" y="661"/>
      <point x="29" y="599"/>
      <point x="28" y="485" type="curve" smooth="yes"/>
      <point x="27" y="399"/>
      <point x="61" y="350"/>
      <point x="134" y="296" type="curve" smooth="yes"/>
      <point x="224" y="228" type="line" smooth="yes"/>
      <point x="241" y="215"/>
      <point x="252" y="195"/>
      <point x="252" y="180" type="curve" smooth="yes"/>
      <point x="252" y="161"/>
      <point x="244" y="151"/>
      <point x="234" y="151" type="curve" smooth="yes"/>
      <point x="213" y="151"/>
      <point x="214" y="177"/>
      <point x="218" y="205" type="curve" smooth="yes"/>
      <point x="219" y="215"/>
      <point x="214" y="220"/>
      <point x="206" y="220" type="curve" smooth="yes"/>
      <point x="50" y="220" type="line" smooth="yes"/>
      <point x="43" y="220"/>
      <point x="37" y="215"/>
      <point x="36" y="203" type="curve" smooth="yes"/>
      <point x="23" y="66"/>
      <point x="85" y="-6"/>
    </contour>
    <contour>
      <point x="163" y="-87" type="curve" smooth="yes"/>
      <point x="297" y="-87" type="line" smooth="yes"/>
      <point x="303" y="-87"/>
      <point x="307" y="-82"/>
      <point x="307" y="-76" type="curve" smooth="yes"/>
      <point x="307" y="12" type="line"/>
      <point x="152" y="7" type="line"/>
      <point x="152" y="-76" type="line" smooth="yes"/>
      <point x="152" y="-82"/>
      <point x="156" y="-87"/>
    </contour>
    <contour>
      <point x="152" y="636" type="line"/>
      <point x="307" y="643" type="line"/>
      <point x="307" y="731" type="line" smooth="yes"/>
      <point x="307" y="738"/>
      <point x="303" y="742"/>
      <point x="297" y="742" type="curve" smooth="yes"/>
      <point x="163" y="742" type="line" smooth="yes"/>
      <point x="156" y="742"/>
      <point x="152" y="738"/>
      <point x="152" y="731" type="curve" smooth="yes"/>
    </contour>
  </outline>
</glyph>
<glyph name="percent" format="2">
  <advance width="718.59088"/>
  <unicode hex="0025"/>
  <outline>
    <contour>
      <point x="162" y="0" type="curve" smooth="yes"/>
      <point x="287" y="0" type="line" smooth="yes"/>
      <point x="294" y="0"/>
      <point x="300" y="3"/>
      <point x="303" y="10" type="curve" smooth="yes"/>
      <point x="427" y="323" type="line"/>
      <point x="567" y="637" type="line" smooth="yes"/>
      <point x="573" y="648"/>
      <point x="569" y="655"/>
      <point x="558" y="655" type="curve" smooth="yes"/>
      <point x="431" y="655" type="line" smooth="yes"/>
      <point x="424" y="655"/>
      <point x="418" y="653"/>
      <point x="415" y="645" type="curve" smooth="yes"/>
      <point x="301" y="354" type="line"/>
      <point x="152" y="19" type="line" smooth="yes"/>
      <point x="147" y="8"/>
      <point x="151" y="0"/>
    </contour>
    <contour>
      <point x="163" y="302" type="curve" smooth="yes"/>
      <point x="261" y="302"/>
      <point x="298" y="367"/>
      <point x="298" y="446" type="curve" smooth="yes"/>
      <point x="298" y="517" type="line" smooth="yes"/>
      <point x="298" y="596"/>
      <point x="261" y="661"/>
      <point x="163" y="661" type="curve" smooth="yes"/>
      <point x="64" y="661"/>
      <point x="27" y="596"/>
      <point x="27" y="517" type="curve" smooth="yes"/>
      <point x="27" y="446" type="line" smooth="yes"/>
      <point x="27" y="367"/>
      <point x="64" y="302"/>
    </contour>
    <contour>
      <point x="163" y="427" type="curve" smooth="yes"/>
      <point x="155" y="427"/>
      <point x="153" y="433"/>
      <point x="153" y="445" type="curve" smooth="yes"/>
      <point x="153" y="518" type="line" smooth="yes"/>
      <point x="153" y="529"/>
      <point x="155" y="536"/>
      <point x="163" y="536" type="curve" smooth="yes"/>
      <point x="171" y="536"/>
      <point x="172" y="529"/>
      <point x="172" y="518" type="curve" smooth="yes"/>
      <point x="172" y="445" type="line" smooth="yes"/>
      <point x="172" y="433"/>
      <point x="171" y="427"/>
    </contour>
    <contour>
      <point x="556" y="-6" type="curve" smooth="yes"/>
      <point x="654" y="-6"/>
      <point x="692" y="59"/>
      <point x="692" y="138" type="curve" smooth="yes"/>
      <point x="692" y="209" type="line" smooth="yes"/>
      <point x="692" y="288"/>
      <point x="654" y="353"/>
      <point x="556" y="353" type="curve" smooth="yes"/>
      <point x="458" y="353"/>
      <point x="420" y="288"/>
      <point x="420" y="209" type="curve" smooth="yes"/>
      <point x="420" y="138" type="line" smooth="yes"/>
      <point x="420" y="59"/>
      <point x="458" y="-6"/>
    </contour>
    <contour>
      <point x="556" y="119" type="curve" smooth="yes"/>
      <point x="548" y="119"/>
      <point x="546" y="126"/>
      <point x="546" y="137" type="curve" smooth="yes"/>
      <point x="546" y="210" type="line" smooth="yes"/>
      <point x="546" y="222"/>
      <point x="548" y="228"/>
      <point x="556" y="228" type="curve" smooth="yes"/>
      <point x="564" y="228"/>
      <point x="566" y="222"/>
      <point x="566" y="210" type="curve" smooth="yes"/>
      <point x="566" y="137" type="line" smooth="yes"/>
      <point x="566" y="126"/>
      <point x="564" y="119"/>
    </contour>
  </outline>
</glyph>
<glyph name="ampersand" format="2">
  <advance width="506.30757"/>
  <unicode hex="0026"/>
  <outline>
    <contour>
      <point x="346" y="0" type="curve" smooth="yes"/>
      <point x="496" y="0" type="line" smooth="yes"/>
      <point x="507" y="0"/>
      <point x="511" y="8"/>
      <point x="504" y="19" type="curve" smooth="yes"/>
      <point x="218" y="396" type="line" smooth="yes"/>
      <point x="193" y="428"/>
      <point x="178" y="477"/>
      <point x="178" y="510" type="curve" smooth="yes"/>
      <point x="178" y="529"/>
      <point x="180" y="539"/>
      <point x="194" y="539" type="curve" smooth="yes"/>
      <point x="206" y="539"/>
      <point x="210" y="527"/>
      <point x="210" y="511" type="curve" smooth="yes"/>
      <point x="210" y="476"/>
      <point x="196" y="453"/>
      <point x="162" y="406" type="curve"/>
      <point x="256" y="316" type="line"/>
      <point x="315" y="376"/>
      <point x="351" y="452"/>
      <point x="351" y="527" type="curve" smooth="yes"/>
      <point x="351" y="613"/>
      <point x="295" y="661"/>
      <point x="195" y="661" type="curve" smooth="yes"/>
      <point x="88" y="661"/>
      <point x="34" y="610"/>
      <point x="34" y="506" type="curve" smooth="yes"/>
      <point x="34" y="435"/>
      <point x="52" y="380"/>
      <point x="106" y="304" type="curve" smooth="yes"/>
      <point x="328" y="8" type="line" smooth="yes"/>
      <point x="331" y="2"/>
      <point x="339" y="0"/>
    </contour>
    <contour>
      <point x="209" y="-6" type="curve" smooth="yes"/>
      <point x="358" y="-6"/>
      <point x="454" y="144"/>
      <point x="454" y="375" type="curve" smooth="yes"/>
      <point x="454" y="384"/>
      <point x="448" y="391"/>
      <point x="438" y="391" type="curve" smooth="yes"/>
      <point x="326" y="391" type="line" smooth="yes"/>
      <point x="317" y="391"/>
      <point x="310" y="384"/>
      <point x="310" y="375" type="curve" smooth="yes"/>
      <point x="310" y="212"/>
      <point x="275" y="119"/>
      <point x="213" y="119" type="curve" smooth="yes"/>
      <point x="188" y="119"/>
      <point x="171" y="134"/>
      <point x="171" y="158" type="curve" smooth="yes"/>
      <point x="171" y="206"/>
      <point x="195" y="240"/>
      <point x="215" y="280" type="curve"/>
      <point x="173" y="420" type="line"/>
      <point x="49" y="297"/>
      <point x="21" y="253"/>
      <point x="21" y="151" type="curve" smooth="yes"/>
      <point x="21" y="52"/>
      <point x="92" y="-6"/>
    </contour>
  </outline>
</glyph>
<glyph name="quotesingle" format="2">
  <advance width="210.90687"/>
  <unicode hex="0027"/>
  <outline>
    <contour>
      <point x="35" y="345" type="curve" smooth="yes"/>
      <point x="176" y="345" type="line" smooth="yes"/>
      <point x="185" y="345"/>
      <point x="192" y="351"/>
      <point x="192" y="361" type="curve" smooth="yes"/>
      <point x="192" y="667" type="line" smooth="yes"/>
      <point x="192" y="676"/>
      <point x="185" y="683"/>
      <point x="176" y="683" type="curve" smooth="yes"/>
      <point x="35" y="683" type="line" smooth="yes"/>
      <point x="26" y="683"/>
      <point x="19" y="676"/>
      <point x="19" y="667" type="curve" smooth="yes"/>
      <point x="19" y="361" type="line" smooth="yes"/>
      <point x="19" y="351"/>
      <point x="24" y="345"/>
    </contour>
  </outline>
</glyph>
<glyph name="parenleft" format="2">
  <advance width="235.54819"/>
  <unicode hex="0028"/>
  <outline>
    <contour>
      <point x="117" y="-206" type="curve" smooth="yes"/>
      <point x="126" y="-217"/>
      <point x="137" y="-219"/>
      <point x="147" y="-209" type="curve" smooth="yes"/>
      <point x="228" y="-132" type="line" smooth="yes"/>
      <point x="236" y="-125"/>
      <point x="234" y="-112"/>
      <point x="228" y="-103" type="curve" smooth="yes"/>
      <point x="199" y="-64"/>
      <point x="170" y="-19"/>
      <point x="170" y="65" type="curve" smooth="yes"/>
      <point x="170" y="488" type="line" smooth="yes"/>
      <point x="170" y="572"/>
      <point x="199" y="616"/>
      <point x="228" y="656" type="curve" smooth="yes"/>
      <point x="234" y="665"/>
      <point x="236" y="677"/>
      <point x="228" y="685" type="curve" smooth="yes"/>
      <point x="147" y="761" type="line" smooth="yes"/>
      <point x="137" y="771"/>
      <point x="126" y="770"/>
      <point x="117" y="759" type="curve" smooth="yes"/>
      <point x="68" y="696"/>
      <point x="16" y="645"/>
      <point x="16" y="507" type="curve" smooth="yes"/>
      <point x="16" y="46" type="line" smooth="yes"/>
      <point x="16" y="-93"/>
      <point x="68" y="-144"/>
    </contour>
  </outline>
</glyph>
<glyph name="parenright" format="2">
  <advance width="235.54819"/>
  <unicode hex="0029"/>
  <outline>
    <contour>
      <point x="89" y="-209" type="line" smooth="yes"/>
      <point x="99" y="-219"/>
      <point x="110" y="-217"/>
      <point x="119" y="-206" type="curve" smooth="yes"/>
      <point x="167" y="-144"/>
      <point x="220" y="-93"/>
      <point x="220" y="46" type="curve" smooth="yes"/>
      <point x="220" y="507" type="line" smooth="yes"/>
      <point x="220" y="645"/>
      <point x="167" y="696"/>
      <point x="119" y="759" type="curve" smooth="yes"/>
      <point x="110" y="770"/>
      <point x="99" y="771"/>
      <point x="89" y="761" type="curve" smooth="yes"/>
      <point x="8" y="685" type="line" smooth="yes"/>
      <point x="0" y="677"/>
      <point x="1" y="665"/>
      <point x="8" y="656" type="curve" smooth="yes"/>
      <point x="37" y="616"/>
      <point x="66" y="572"/>
      <point x="66" y="488" type="curve" smooth="yes"/>
      <point x="66" y="65" type="line" smooth="yes"/>
      <point x="66" y="-19"/>
      <point x="37" y="-64"/>
      <point x="8" y="-103" type="curve" smooth="yes"/>
      <point x="1" y="-112"/>
      <point x="0" y="-125"/>
      <point x="8" y="-132" type="curve" smooth="yes"/>
    </contour>
  </outline>
</glyph>
<glyph name="asterisk" format="2">
  <advance width="326.05446"/>
  <unicode hex="002A"/>
  <outline>
    <contour>
      <point x="126" y="420" type="line" smooth="yes"/>
      <point x="135" y="414"/>
      <point x="144" y="417"/>
      <point x="148" y="427" type="curve" smooth="yes"/>
      <point x="163" y="472" type="line"/>
      <point x="178" y="430" type="line" smooth="yes"/>
      <point x="182" y="420"/>
      <point x="189" y="418"/>
      <point x="198" y="424" type="curve" smooth="yes"/>
      <point x="271" y="476" type="line" smooth="yes"/>
      <point x="279" y="482"/>
      <point x="280" y="492"/>
      <point x="271" y="498" type="curve" smooth="yes"/>
      <point x="233" y="525" type="line"/>
      <point x="287" y="529" type="line" smooth="yes"/>
      <point x="295" y="530"/>
      <point x="301" y="540"/>
      <point x="298" y="547" type="curve" smooth="yes"/>
      <point x="270" y="631" type="line" smooth="yes"/>
      <point x="267" y="639"/>
      <point x="256" y="645"/>
      <point x="248" y="638" type="curve" smooth="yes"/>
      <point x="208" y="604" type="line"/>
      <point x="214" y="671" type="line" smooth="yes"/>
      <point x="214" y="674"/>
      <point x="214" y="682"/>
      <point x="205" y="682" type="curve" smooth="yes"/>
      <point x="121" y="682" type="line" smooth="yes"/>
      <point x="117" y="682"/>
      <point x="111" y="680"/>
      <point x="112" y="671" type="curve" smooth="yes"/>
      <point x="119" y="605" type="line"/>
      <point x="78" y="638" type="line" smooth="yes"/>
      <point x="70" y="645"/>
      <point x="61" y="642"/>
      <point x="56" y="632" type="curve" smooth="yes"/>
      <point x="28" y="547" type="line" smooth="yes"/>
      <point x="25" y="538"/>
      <point x="33" y="528"/>
      <point x="41" y="528" type="curve" smooth="yes"/>
      <point x="92" y="527" type="line"/>
      <point x="54" y="499" type="line" smooth="yes"/>
      <point x="46" y="493"/>
      <point x="46" y="484"/>
      <point x="54" y="477" type="curve" smooth="yes"/>
    </contour>
  </outline>
</glyph>
<glyph name="plus" format="2">
  <advance width="420"/>
  <unicode hex="002B"/>
  <outline>
    <contour>
      <point x="156" y="137" type="curve" smooth="yes"/>
      <point x="265" y="137" type="line" smooth="yes"/>
      <point x="276" y="137"/>
      <point x="281" y="142"/>
      <point x="281" y="153" type="curve" smooth="yes"/>
      <point x="281" y="230" type="line"/>
      <point x="358" y="230" type="line" smooth="yes"/>
      <point x="369" y="230"/>
      <point x="374" y="235"/>
      <point x="374" y="246" type="curve" smooth="yes"/>
      <point x="374" y="355" type="line" smooth="yes"/>
      <point x="374" y="366"/>
      <point x="369" y="371"/>
      <point x="358" y="371" type="curve" smooth="yes"/>
      <point x="281" y="371" type="line"/>
      <point x="281" y="449" type="line" smooth="yes"/>
      <point x="281" y="460"/>
      <point x="276" y="465"/>
      <point x="265" y="465" type="curve" smooth="yes"/>
      <point x="156" y="465" type="line" smooth="yes"/>
      <point x="145" y="465"/>
      <point x="140" y="460"/>
      <point x="140" y="449" type="curve" smooth="yes"/>
      <point x="140" y="371" type="line"/>
      <point x="62" y="371" type="line" smooth="yes"/>
      <point x="51" y="371"/>
      <point x="46" y="366"/>
      <point x="46" y="355" type="curve" smooth="yes"/>
      <point x="46" y="246" type="line" smooth="yes"/>
      <point x="46" y="235"/>
      <point x="51" y="230"/>
      <point x="62" y="230" type="curve" smooth="yes"/>
      <point x="140" y="230" type="line"/>
      <point x="140" y="153" type="line" smooth="yes"/>
      <point x="140" y="142"/>
      <point x="145" y="137"/>
    </contour>
  </outline>
</glyph>
<glyph name="comma" format="2">
  <advance width="315.63679"/>
  <unicode hex="002C"/>
  <outline>
    <contour>
      <point x="33" y="-157" type="curve" smooth="yes"/>
      <point x="169" y="-157" type="line" smooth="yes"/>
      <point x="177" y="-157"/>
      <point x="184" y="-153"/>
      <point x="187" y="-144" type="curve" smooth="yes"/>
      <point x="285" y="179" type="line" smooth="yes"/>
      <point x="288" y="190"/>
      <point x="282" y="197"/>
      <point x="272" y="197" type="curve" smooth="yes"/>
      <point x="87" y="197" type="line" smooth="yes"/>
      <point x="79" y="197"/>
      <point x="72" y="191"/>
      <point x="71" y="183" type="curve" smooth="yes"/>
      <point x="21" y="-141" type="line" smooth="yes"/>
      <point x="19" y="-152"/>
      <point x="23" y="-157"/>
    </contour>
  </outline>
</glyph>
<glyph name="hyphen" format="2">
  <advance width="366.78433"/>
  <unicode hex="002D"/>
  <outline>
    <contour>
      <point x="44" y="198" type="curve" smooth="yes"/>
      <point x="322" y="198" type="line" smooth="yes"/>
      <point x="332" y="198"/>
      <point x="339" y="204"/>
      <point x="339" y="214" type="curve" smooth="yes"/>
      <point x="339" y="319" type="line" smooth="yes"/>
      <point x="339" y="329"/>
      <point x="332" y="336"/>
      <point x="322" y="336" type="curve" smooth="yes"/>
      <point x="44" y="336" type="line" smooth="yes"/>
      <point x="35" y="336"/>
      <point x="28" y="329"/>
      <point x="28" y="319" type="curve" smooth="yes"/>
      <point x="28" y="214" type="line" smooth="yes"/>
      <point x="28" y="204"/>
      <point x="35" y="198"/>
    </contour>
  </outline>
</glyph>
<glyph name="period" format="2">
  <advance width="285.31021"/>
  <unicode hex="002E"/>
  <outline>
    <contour>
      <point x="143" y="-6" type="curve" smooth="yes"/>
      <point x="216" y="-6"/>
      <point x="257" y="30"/>
      <point x="257" y="90" type="curve" smooth="yes"/>
      <point x="257" y="120" type="line" smooth="yes"/>
      <point x="257" y="183"/>
      <point x="216" y="216"/>
      <point x="143" y="216" type="curve" smooth="yes"/>
      <point x="74" y="216"/>
      <point x="28" y="183"/>
      <point x="28" y="120" type="curve" smooth="yes"/>
      <point x="28" y="90" type="line" smooth="yes"/>
      <point x="28" y="30"/>
      <point x="74" y="-6"/>
    </contour>
  </outline>
</glyph>
<glyph name="slash" format="2">
  <advance width="373.04333"/>
  <unicode hex="002F"/>
  <outline>
    <contour>
      <point x="21" y="0" type="curve" smooth="yes"/>
      <point x="152" y="0" type="line" smooth="yes"/>
      <point x="159" y="0"/>
      <point x="165" y="4"/>
      <point x="167" y="12" type="curve" smooth="yes"/>
      <point x="362" y="639" type="line" smooth="yes"/>
      <point x="365" y="650"/>
      <point x="362" y="655"/>
      <point x="352" y="655" type="curve" smooth="yes"/>
      <point x="220.994" y="655" type="line" smooth="yes"/>
      <point x="214" y="655"/>
      <point x="208" y="651"/>
      <point x="206" y="643" type="curve" smooth="yes"/>
      <point x="12" y="16" type="line" smooth="yes"/>
      <point x="8" y="5"/>
      <point x="11" y="0"/>
    </contour>
  </outline>
</glyph>
<glyph name="zero" format="2">
  <advance width="474.0381"/>
  <unicode hex="0030"/>
  <outline>
    <contour>
      <point x="237" y="-6" type="curve" smooth="yes"/>
      <point x="382" y="-6"/>
      <point x="456" y="69"/>
      <point x="456" y="214" type="curve" smooth="yes"/>
      <point x="456" y="441" type="line" smooth="yes"/>
      <point x="456" y="586"/>
      <point x="382" y="661"/>
      <point x="237" y="661" type="curve" smooth="yes"/>
      <point x="92" y="661"/>
      <point x="18" y="586"/>
      <point x="18" y="441" type="curve" smooth="yes"/>
      <point x="18" y="214" type="line" smooth="yes"/>
      <point x="18" y="69"/>
      <point x="92" y="-6"/>
    </contour>
    <contour>
      <point x="237" y="149" type="curve" smooth="yes"/>
      <point x="211" y="149"/>
      <point x="200" y="169"/>
      <point x="200" y="218" type="curve" smooth="yes"/>
      <point x="200" y="437" type="line" smooth="yes"/>
      <point x="200" y="486"/>
      <point x="211" y="506"/>
      <point x="237" y="506" type="curve" smooth="yes"/>
      <point x="263" y="506"/>
      <point x="274" y="486"/>
      <point x="274" y="437" type="curve" smooth="yes"/>
      <point x="274" y="218" type="line" smooth="yes"/>
      <point x="274" y="169"/>
      <point x="263" y="149"/>
    </contour>
  </outline>
</glyph>
<glyph name="one" format="2">
  <advance width="428.29057"/>
  <unicode hex="0031"/>
  <outline>
    <contour>
      <point x="38" y="0" type="curve" smooth="yes"/>
      <point x="404" y="0" type="line" smooth="yes"/>
      <point x="414" y="0"/>
      <point x="421" y="7"/>
      <point x="421" y="16" type="curve" smooth="yes"/>
      <point x="421" y="136" type="line" smooth="yes"/>
      <point x="421" y="146"/>
      <point x="414" y="153"/>
      <point x="404" y="153" type="curve" smooth="yes"/>
      <point x="313" y="153" type="line"/>
      <point x="313" y="643" type="line" smooth="yes"/>
      <point x="313" y="651"/>
      <point x="308" y="658"/>
      <point x="298" y="658" type="curve" smooth="yes"/>
      <point x="253" y="658" type="line" smooth="yes"/>
      <point x="247" y="658"/>
      <point x="242" y="657"/>
      <point x="237" y="655" type="curve" smooth="yes"/>
      <point x="40" y="585" type="line" smooth="yes"/>
      <point x="32" y="582"/>
      <point x="27" y="576"/>
      <point x="27" y="568" type="curve" smooth="yes"/>
      <point x="27" y="449" type="line" smooth="yes"/>
      <point x="27" y="438"/>
      <point x="35" y="433"/>
      <point x="44" y="437" type="curve" smooth="yes"/>
      <point x="132" y="466" type="line"/>
      <point x="132" y="153" type="line"/>
      <point x="38" y="153" type="line" smooth="yes"/>
      <point x="28" y="153"/>
      <point x="22" y="146"/>
      <point x="22" y="136" type="curve" smooth="yes"/>
      <point x="22" y="16" type="line" smooth="yes"/>
      <point x="22" y="7"/>
      <point x="28" y="0"/>
    </contour>
  </outline>
</glyph>
<glyph name="two" format="2">
  <advance width="428.81055"/>
  <unicode hex="0032"/>
  <outline>
    <contour>
      <point x="23" y="0" type="curve" smooth="yes"/>
      <point x="395" y="0" type="line" smooth="yes"/>
      <point x="404" y="0"/>
      <point x="411" y="7"/>
      <point x="411" y="16" type="curve" smooth="yes"/>
      <point x="411" y="136" type="line" smooth="yes"/>
      <point x="411" y="146"/>
      <point x="404" y="153"/>
      <point x="395" y="153" type="curve" smooth="yes"/>
      <point x="207" y="153" type="line"/>
      <point x="207" y="244"/>
      <point x="414" y="288"/>
      <point x="414" y="486" type="curve" smooth="yes"/>
      <point x="414" y="600"/>
      <point x="345" y="661"/>
      <point x="217" y="661" type="curve" smooth="yes"/>
      <point x="83" y="661"/>
      <point x="15" y="580"/>
      <point x="25" y="461" type="curve" smooth="yes"/>
      <point x="26" y="451"/>
      <point x="32" y="444"/>
      <point x="41" y="444" type="curve" smooth="yes"/>
      <point x="177" y="444" type="line" smooth="yes"/>
      <point x="187" y="444"/>
      <point x="193" y="451"/>
      <point x="192" y="461" type="curve" smooth="yes"/>
      <point x="188" y="495"/>
      <point x="195" y="510"/>
      <point x="212" y="510" type="curve" smooth="yes"/>
      <point x="225" y="510"/>
      <point x="232" y="500"/>
      <point x="232" y="484" type="curve" smooth="yes"/>
      <point x="232" y="479" type="line" smooth="yes"/>
      <point x="232" y="360"/>
      <point x="7" y="328"/>
      <point x="7" y="118" type="curve" smooth="yes"/>
      <point x="7" y="16" type="line" smooth="yes"/>
      <point x="7" y="7"/>
      <point x="14" y="0"/>
    </contour>
  </outline>
</glyph>
<glyph name="three" format="2">
  <advance width="443.88598"/>
  <unicode hex="0033"/>
  <outline>
    <contour>
      <point x="215" y="-6" type="curve" smooth="yes"/>
      <point x="353" y="-6"/>
      <point x="426" y="66"/>
      <point x="426" y="199" type="curve" smooth="yes"/>
      <point x="426" y="266"/>
      <point x="402" y="314"/>
      <point x="354" y="338" type="curve"/>
      <point x="354" y="341" type="line"/>
      <point x="397" y="374"/>
      <point x="418" y="424"/>
      <point x="418" y="484" type="curve" smooth="yes"/>
      <point x="418" y="594"/>
      <point x="344" y="661"/>
      <point x="219" y="661" type="curve" smooth="yes"/>
      <point x="84" y="661"/>
      <point x="7" y="584"/>
      <point x="19" y="466" type="curve" smooth="yes"/>
      <point x="20" y="452"/>
      <point x="26" y="449"/>
      <point x="35" y="449" type="curve" smooth="yes"/>
      <point x="170" y="449" type="line" smooth="yes"/>
      <point x="180" y="449"/>
      <point x="186" y="456"/>
      <point x="186" y="466" type="curve" smooth="yes"/>
      <point x="186" y="498"/>
      <point x="191" y="510"/>
      <point x="211" y="510" type="curve" smooth="yes"/>
      <point x="229" y="510"/>
      <point x="236" y="498"/>
      <point x="236" y="465" type="curve" smooth="yes"/>
      <point x="236" y="453" type="line" smooth="yes"/>
      <point x="236" y="413"/>
      <point x="227" y="401"/>
      <point x="199" y="401" type="curve" smooth="yes"/>
      <point x="190" y="401" type="line" smooth="yes"/>
      <point x="180" y="401"/>
      <point x="173" y="395"/>
      <point x="173" y="385" type="curve" smooth="yes"/>
      <point x="173" y="276" type="line" smooth="yes"/>
      <point x="173" y="267"/>
      <point x="180" y="260"/>
      <point x="190" y="260" type="curve" smooth="yes"/>
      <point x="206" y="260" type="line" smooth="yes"/>
      <point x="232" y="260"/>
      <point x="244" y="247"/>
      <point x="244" y="210" type="curve" smooth="yes"/>
      <point x="244" y="196" type="line" smooth="yes"/>
      <point x="244" y="160"/>
      <point x="236" y="145"/>
      <point x="215" y="145" type="curve" smooth="yes"/>
      <point x="191" y="145"/>
      <point x="186" y="154"/>
      <point x="185" y="200" type="curve" smooth="yes"/>
      <point x="185" y="210"/>
      <point x="179" y="216"/>
      <point x="169" y="216" type="curve" smooth="yes"/>
      <point x="35" y="216" type="line" smooth="yes"/>
      <point x="25" y="216"/>
      <point x="19" y="210"/>
      <point x="18" y="200" type="curve" smooth="yes"/>
      <point x="0" y="64"/>
      <point x="70" y="-6"/>
    </contour>
  </outline>
</glyph>
<glyph name="four" format="2">
  <advance width="507.38106"/>
  <unicode hex="0034"/>
  <outline>
    <contour>
      <point x="287" y="0" type="curve" smooth="yes"/>
      <point x="435" y="0" type="line" smooth="yes"/>
      <point x="445" y="0"/>
      <point x="452" y="7"/>
      <point x="452" y="16" type="curve" smooth="yes"/>
      <point x="452" y="100" type="line"/>
      <point x="470" y="100" type="line" smooth="yes"/>
      <point x="479" y="100"/>
      <point x="486" y="107"/>
      <point x="486" y="117" type="curve" smooth="yes"/>
      <point x="486" y="237" type="line" smooth="yes"/>
      <point x="486" y="246"/>
      <point x="479" y="253"/>
      <point x="470" y="253" type="curve" smooth="yes"/>
      <point x="452" y="253" type="line"/>
      <point x="452" y="422" type="line" smooth="yes"/>
      <point x="452" y="432"/>
      <point x="445" y="439"/>
      <point x="435" y="439" type="curve" smooth="yes"/>
      <point x="328" y="439" type="line" smooth="yes"/>
      <point x="318" y="439"/>
      <point x="314" y="432"/>
      <point x="312" y="422" type="curve" smooth="yes"/>
      <point x="271" y="253" type="line"/>
      <point x="233" y="253" type="line"/>
      <point x="351" y="636" type="line" smooth="yes"/>
      <point x="355" y="647"/>
      <point x="350" y="655"/>
      <point x="340" y="655" type="curve" smooth="yes"/>
      <point x="187" y="655" type="line" smooth="yes"/>
      <point x="180" y="655"/>
      <point x="174" y="653"/>
      <point x="171" y="644" type="curve" smooth="yes"/>
      <point x="15" y="183" type="line" smooth="yes"/>
      <point x="12" y="176"/>
      <point x="10" y="166"/>
      <point x="10" y="153" type="curve" smooth="yes"/>
      <point x="10" y="117" type="line" smooth="yes"/>
      <point x="10" y="107"/>
      <point x="17" y="100"/>
      <point x="27" y="100" type="curve" smooth="yes"/>
      <point x="271" y="100" type="line"/>
      <point x="271" y="16" type="line" smooth="yes"/>
      <point x="271" y="7"/>
      <point x="277" y="0"/>
    </contour>
  </outline>
</glyph>
<glyph name="five" format="2">
  <advance width="460.26827"/>
  <unicode hex="0035"/>
  <outline>
    <contour>
      <point x="213" y="-6" type="curve" smooth="yes"/>
      <point x="377" y="-6"/>
      <point x="436" y="67"/>
      <point x="436" y="218" type="curve" smooth="yes"/>
      <point x="436" y="365"/>
      <point x="397" y="430"/>
      <point x="292" y="430" type="curve" smooth="yes"/>
      <point x="252" y="430"/>
      <point x="224" y="424"/>
      <point x="192" y="414" type="curve"/>
      <point x="196" y="502" type="line"/>
      <point x="379" y="502" type="line" smooth="yes"/>
      <point x="389" y="502"/>
      <point x="395" y="509"/>
      <point x="395" y="519" type="curve" smooth="yes"/>
      <point x="395" y="639" type="line" smooth="yes"/>
      <point x="395" y="648"/>
      <point x="389" y="655"/>
      <point x="379" y="655" type="curve" smooth="yes"/>
      <point x="65" y="655" type="line" smooth="yes"/>
      <point x="55" y="655"/>
      <point x="49" y="648"/>
      <point x="48" y="639" type="curve" smooth="yes"/>
      <point x="25" y="273" type="line" smooth="yes"/>
      <point x="24" y="259"/>
      <point x="30" y="254"/>
      <point x="50" y="260" type="curve" smooth="yes"/>
      <point x="94" y="273"/>
      <point x="150" y="288"/>
      <point x="196" y="288" type="curve" smooth="yes"/>
      <point x="237" y="288"/>
      <point x="253" y="268"/>
      <point x="253" y="227" type="curve" smooth="yes"/>
      <point x="253" y="211" type="line" smooth="yes"/>
      <point x="253" y="162"/>
      <point x="244" y="145"/>
      <point x="217" y="145" type="curve" smooth="yes"/>
      <point x="189" y="145"/>
      <point x="183" y="167"/>
      <point x="183" y="195" type="curve" smooth="yes"/>
      <point x="183" y="205"/>
      <point x="177" y="211"/>
      <point x="167" y="211" type="curve" smooth="yes"/>
      <point x="32" y="211" type="line" smooth="yes"/>
      <point x="22" y="211"/>
      <point x="18" y="210"/>
      <point x="16" y="195" type="curve" smooth="yes"/>
      <point x="-4" y="83"/>
      <point x="59" y="-6"/>
    </contour>
  </outline>
</glyph>
<glyph name="six" format="2">
  <advance width="475.17909"/>
  <unicode hex="0036"/>
  <outline>
    <contour>
      <point x="236" y="-6" type="curve" smooth="yes"/>
      <point x="388" y="-6"/>
      <point x="456" y="67"/>
      <point x="456" y="231" type="curve" smooth="yes"/>
      <point x="456" y="362"/>
      <point x="413" y="420"/>
      <point x="313" y="420" type="curve" smooth="yes"/>
      <point x="271" y="420"/>
      <point x="219" y="406"/>
      <point x="184" y="387" type="curve"/>
      <point x="183" y="266" type="line"/>
      <point x="204" y="277"/>
      <point x="221" y="281"/>
      <point x="238" y="281" type="curve" smooth="yes"/>
      <point x="264" y="281"/>
      <point x="274" y="265"/>
      <point x="274" y="231" type="curve" smooth="yes"/>
      <point x="274" y="211" type="line" smooth="yes"/>
      <point x="274" y="161"/>
      <point x="264" y="145"/>
      <point x="235" y="145" type="curve" smooth="yes"/>
      <point x="207" y="145"/>
      <point x="200" y="158"/>
      <point x="200" y="209" type="curve" smooth="yes"/>
      <point x="200" y="460" type="line" smooth="yes"/>
      <point x="200" y="497"/>
      <point x="210" y="510"/>
      <point x="237" y="510" type="curve" smooth="yes"/>
      <point x="260" y="510"/>
      <point x="270" y="503"/>
      <point x="270" y="480" type="curve" smooth="yes"/>
      <point x="270" y="470"/>
      <point x="276" y="464"/>
      <point x="286" y="464" type="curve" smooth="yes"/>
      <point x="421" y="464" type="line" smooth="yes"/>
      <point x="431" y="464"/>
      <point x="437" y="470"/>
      <point x="437" y="480" type="curve" smooth="yes"/>
      <point x="437" y="599"/>
      <point x="366" y="661"/>
      <point x="233" y="661" type="curve" smooth="yes"/>
      <point x="91" y="661"/>
      <point x="18" y="588"/>
      <point x="18" y="442" type="curve" smooth="yes"/>
      <point x="18" y="219" type="line" smooth="yes"/>
      <point x="18" y="62"/>
      <point x="84" y="-6"/>
    </contour>
  </outline>
</glyph>
<glyph name="seven" format="2">
  <advance width="448.68597"/>
  <unicode hex="0037"/>
  <outline>
    <contour>
      <point x="86" y="0" type="curve" smooth="yes"/>
      <point x="250" y="0" type="line" smooth="yes"/>
      <point x="257" y="0"/>
      <point x="266" y="7"/>
      <point x="268" y="16" type="curve" smooth="yes"/>
      <point x="460" y="613" type="line" smooth="yes"/>
      <point x="462" y="619"/>
      <point x="463" y="625"/>
      <point x="463" y="631" type="curve" smooth="yes"/>
      <point x="463" y="642" type="line" smooth="yes"/>
      <point x="463" y="648"/>
      <point x="458" y="655"/>
      <point x="450" y="655" type="curve" smooth="yes"/>
      <point x="26" y="655" type="line" smooth="yes"/>
      <point x="16" y="655"/>
      <point x="9" y="648"/>
      <point x="9" y="639" type="curve" smooth="yes"/>
      <point x="9" y="460" type="line" smooth="yes"/>
      <point x="9" y="451"/>
      <point x="16" y="444"/>
      <point x="26" y="444" type="curve" smooth="yes"/>
      <point x="160" y="444" type="line" smooth="yes"/>
      <point x="170" y="444"/>
      <point x="176" y="451"/>
      <point x="176" y="460" type="curve" smooth="yes"/>
      <point x="176" y="506" type="line"/>
      <point x="230" y="506" type="line"/>
      <point x="74" y="21" type="line" smooth="yes"/>
      <point x="71" y="10"/>
      <point x="77" y="0"/>
    </contour>
  </outline>
</glyph>
<glyph name="eight" format="2">
  <advance width="482.96533"/>
  <unicode hex="0038"/>
  <outline>
    <contour>
      <point x="241" y="-6" type="curve" smooth="yes"/>
      <point x="391" y="-6"/>
      <point x="465" y="55"/>
      <point x="465" y="178" type="curve" smooth="yes"/>
      <point x="465" y="262"/>
      <point x="436" y="321"/>
      <point x="379" y="349" type="curve"/>
      <point x="426" y="382"/>
      <point x="448" y="426"/>
      <point x="448" y="482" type="curve" smooth="yes"/>
      <point x="448" y="601"/>
      <point x="378" y="661"/>
      <point x="241" y="661" type="curve" smooth="yes"/>
      <point x="105" y="661"/>
      <point x="35" y="601"/>
      <point x="35" y="482" type="curve" smooth="yes"/>
      <point x="35" y="426"/>
      <point x="57" y="382"/>
      <point x="104" y="349" type="curve"/>
      <point x="47" y="321"/>
      <point x="18" y="262"/>
      <point x="18" y="178" type="curve" smooth="yes"/>
      <point x="18" y="55"/>
      <point x="92" y="-6"/>
    </contour>
    <contour>
      <point x="241" y="139" type="curve" smooth="yes"/>
      <point x="211" y="139"/>
      <point x="200" y="155"/>
      <point x="200" y="199" type="curve" smooth="yes"/>
      <point x="200" y="224" type="line" smooth="yes"/>
      <point x="200" y="266"/>
      <point x="211" y="280"/>
      <point x="241" y="280" type="curve" smooth="yes"/>
      <point x="273" y="280"/>
      <point x="283" y="266"/>
      <point x="283" y="224" type="curve" smooth="yes"/>
      <point x="283" y="199" type="line" smooth="yes"/>
      <point x="283" y="155"/>
      <point x="273" y="139"/>
    </contour>
    <contour>
      <point x="241" y="404" type="curve" smooth="yes"/>
      <point x="222" y="404"/>
      <point x="216" y="413"/>
      <point x="216" y="442" type="curve" smooth="yes"/>
      <point x="216" y="485" type="line" smooth="yes"/>
      <point x="216" y="514"/>
      <point x="222" y="524"/>
      <point x="241" y="524" type="curve" smooth="yes"/>
      <point x="261" y="524"/>
      <point x="267" y="514"/>
      <point x="267" y="485" type="curve" smooth="yes"/>
      <point x="267" y="442" type="line" smooth="yes"/>
      <point x="267" y="413"/>
      <point x="261" y="404"/>
    </contour>
  </outline>
</glyph>
<glyph name="nine" format="2">
  <advance width="472.25319"/>
  <unicode hex="0039"/>
  <outline>
    <contour>
      <point x="238.998" y="-6" type="curve" smooth="yes"/>
      <point x="382" y="-6"/>
      <point x="454" y="68"/>
      <point x="454" y="213" type="curve" smooth="yes"/>
      <point x="454" y="436" type="line" smooth="yes"/>
      <point x="454" y="594"/>
      <point x="386" y="661"/>
      <point x="234" y="661" type="curve" smooth="yes"/>
      <point x="82" y="661"/>
      <point x="16" y="586"/>
      <point x="16" y="424" type="curve" smooth="yes"/>
      <point x="16" y="287"/>
      <point x="59" y="229"/>
      <point x="159" y="229" type="curve" smooth="yes"/>
      <point x="201" y="229"/>
      <point x="254" y="243"/>
      <point x="288" y="262" type="curve"/>
      <point x="289" y="383" type="line"/>
      <point x="268" y="372"/>
      <point x="251" y="368"/>
      <point x="234" y="368" type="curve" smooth="yes"/>
      <point x="208" y="368"/>
      <point x="199" y="383"/>
      <point x="199" y="424" type="curve" smooth="yes"/>
      <point x="199" y="443" type="line" smooth="yes"/>
      <point x="199" y="493"/>
      <point x="207" y="510"/>
      <point x="236" y="510" type="curve" smooth="yes"/>
      <point x="264" y="510"/>
      <point x="272" y="498"/>
      <point x="272" y="447" type="curve" smooth="yes"/>
      <point x="272" y="195" type="line" smooth="yes"/>
      <point x="272" y="158"/>
      <point x="262" y="145"/>
      <point x="236" y="145" type="curve" smooth="yes"/>
      <point x="213" y="145"/>
      <point x="203" y="151"/>
      <point x="203" y="171" type="curve" smooth="yes"/>
      <point x="203" y="181"/>
      <point x="196" y="188"/>
      <point x="186" y="188" type="curve" smooth="yes"/>
      <point x="52" y="188" type="line" smooth="yes"/>
      <point x="42" y="188"/>
      <point x="36" y="181"/>
      <point x="36" y="171" type="curve" smooth="yes"/>
      <point x="36" y="53"/>
      <point x="108" y="-6"/>
    </contour>
  </outline>
</glyph>
<glyph name="colon" format="2">
  <advance width="271.11479"/>
  <unicode hex="003A"/>
  <outline>
    <contour>
      <point x="135" y="282" type="curve" smooth="yes"/>
      <point x="203" y="282"/>
      <point x="243" y="319"/>
      <point x="243" y="376" type="curve" smooth="yes"/>
      <point x="243" y="405" type="line" smooth="yes"/>
      <point x="243" y="464"/>
      <point x="203" y="499"/>
      <point x="135" y="499" type="curve" smooth="yes"/>
      <point x="71" y="499"/>
      <point x="28" y="464"/>
      <point x="28" y="405" type="curve" smooth="yes"/>
      <point x="28" y="376" type="line" smooth="yes"/>
      <point x="28" y="319"/>
      <point x="71" y="282"/>
    </contour>
    <contour>
      <point x="135" y="-6" type="curve" smooth="yes"/>
      <point x="203" y="-6"/>
      <point x="243" y="31"/>
      <point x="243" y="88" type="curve" smooth="yes"/>
      <point x="243" y="117" type="line" smooth="yes"/>
      <point x="243" y="176"/>
      <point x="203" y="211"/>
      <point x="135" y="211" type="curve" smooth="yes"/>
      <point x="71" y="211"/>
      <point x="28" y="176"/>
      <point x="28" y="117" type="curve" smooth="yes"/>
      <point x="28" y="88" type="line" smooth="yes"/>
      <point x="28" y="31"/>
      <point x="71" y="-6"/>
    </contour>
  </outline>
</glyph>
<glyph name="semicolon" format="2">
  <advance width="297.26824"/>
  <unicode hex="003B"/>
  <outline>
    <contour>
      <point x="17" y="-157" type="curve" smooth="yes"/>
      <point x="153" y="-157" type="line" smooth="yes"/>
      <point x="160" y="-157"/>
      <point x="168" y="-153"/>
      <point x="170" y="-144" type="curve" smooth="yes"/>
      <point x="269" y="179" type="line" smooth="yes"/>
      <point x="272" y="190"/>
      <point x="265" y="197"/>
      <point x="256" y="197" type="curve" smooth="yes"/>
      <point x="71" y="197" type="line" smooth="yes"/>
      <point x="62" y="197"/>
      <point x="56" y="191"/>
      <point x="55" y="183" type="curve" smooth="yes"/>
      <point x="5" y="-141" type="line" smooth="yes"/>
      <point x="2" y="-152"/>
      <point x="7" y="-157"/>
    </contour>
    <contour>
      <point x="153" y="282" type="curve" smooth="yes"/>
      <point x="221" y="282"/>
      <point x="261" y="319"/>
      <point x="261" y="376" type="curve" smooth="yes"/>
      <point x="261" y="405" type="line" smooth="yes"/>
      <point x="261" y="464"/>
      <point x="221" y="499"/>
      <point x="153" y="499" type="curve" smooth="yes"/>
      <point x="88" y="499"/>
      <point x="46" y="464"/>
      <point x="46" y="405" type="curve" smooth="yes"/>
      <point x="46" y="376" type="line" smooth="yes"/>
      <point x="46" y="319"/>
      <point x="88" y="282"/>
    </contour>
  </outline>
</glyph>
<glyph name="less" format="2">
  <advance width="420"/>
  <unicode hex="003C"/>
  <outline>
    <contour>
      <point x="356" y="69" type="line" smooth="yes"/>
      <point x="364" y="63"/>
      <point x="370" y="70"/>
      <point x="370" y="81" type="curve" smooth="yes"/>
      <point x="370" y="212" type="line" smooth="yes"/>
      <point x="370" y="221"/>
      <point x="366" y="227"/>
      <point x="360" y="230" type="curve" smooth="yes"/>
      <point x="220" y="298" type="line"/>
      <point x="360" y="364" type="line" smooth="yes"/>
      <point x="366" y="367"/>
      <point x="370" y="374"/>
      <point x="370" y="381" type="curve" smooth="yes"/>
      <point x="370" y="512" type="line" smooth="yes"/>
      <point x="370" y="523"/>
      <point x="364" y="531"/>
      <point x="356" y="525" type="curve" smooth="yes"/>
      <point x="62" y="362" type="line" smooth="yes"/>
      <point x="55" y="357"/>
      <point x="51" y="352"/>
      <point x="51" y="343" type="curve" smooth="yes"/>
      <point x="51" y="252" type="line" smooth="yes"/>
      <point x="51" y="244"/>
      <point x="55" y="237"/>
      <point x="62" y="233" type="curve" smooth="yes"/>
    </contour>
  </outline>
</glyph>
<glyph name="equal" format="2">
  <advance width="420"/>
  <unicode hex="003D"/>
  <outline>
    <contour>
      <point x="57" y="327" type="curve" smooth="yes"/>
      <point x="362" y="327" type="line" smooth="yes"/>
      <point x="372" y="327"/>
      <point x="379" y="334"/>
      <point x="379" y="343" type="curve" smooth="yes"/>
      <point x="379" y="452" type="line" smooth="yes"/>
      <point x="379" y="462"/>
      <point x="372" y="469"/>
      <point x="362" y="469" type="curve" smooth="yes"/>
      <point x="57" y="469" type="line" smooth="yes"/>
      <point x="48" y="469"/>
      <point x="41" y="462"/>
      <point x="41" y="452" type="curve" smooth="yes"/>
      <point x="41" y="343" type="line" smooth="yes"/>
      <point x="41" y="334"/>
      <point x="48" y="327"/>
    </contour>
    <contour>
      <point x="57" y="136" type="curve" smooth="yes"/>
      <point x="362" y="136" type="line" smooth="yes"/>
      <point x="372" y="136"/>
      <point x="379" y="142"/>
      <point x="379" y="152" type="curve" smooth="yes"/>
      <point x="379" y="261" type="line" smooth="yes"/>
      <point x="379" y="271"/>
      <point x="372" y="277"/>
      <point x="362" y="277" type="curve" smooth="yes"/>
      <point x="57" y="277" type="line" smooth="yes"/>
      <point x="48" y="277"/>
      <point x="41" y="271"/>
      <point x="41" y="261" type="curve" smooth="yes"/>
      <point x="41" y="152" type="line" smooth="yes"/>
      <point x="41" y="142"/>
      <point x="48" y="136"/>
    </contour>
  </outline>
</glyph>
<glyph name="greater" format="2">
  <advance width="420"/>
  <unicode hex="003E"/>
  <outline>
    <contour>
      <point x="65" y="69" type="curve" smooth="yes"/>
      <point x="359" y="233" type="line" smooth="yes"/>
      <point x="367" y="237"/>
      <point x="370" y="244"/>
      <point x="370" y="252" type="curve" smooth="yes"/>
      <point x="370" y="343" type="line" smooth="yes"/>
      <point x="370" y="352"/>
      <point x="367" y="357"/>
      <point x="359" y="362" type="curve" smooth="yes"/>
      <point x="65" y="525" type="line" smooth="yes"/>
      <point x="57" y="531"/>
      <point x="51" y="523"/>
      <point x="51" y="512" type="curve" smooth="yes"/>
      <point x="51" y="381" type="line" smooth="yes"/>
      <point x="51" y="374"/>
      <point x="55" y="367"/>
      <point x="61" y="364" type="curve" smooth="yes"/>
      <point x="201" y="298" type="line"/>
      <point x="61" y="230" type="line" smooth="yes"/>
      <point x="55" y="227"/>
      <point x="51" y="221"/>
      <point x="51" y="212" type="curve" smooth="yes"/>
      <point x="51" y="81" type="line" smooth="yes"/>
      <point x="51" y="70"/>
      <point x="57" y="63"/>
    </contour>
  </outline>
</glyph>
<glyph name="question" format="2">
  <advance width="420.57843"/>
  <unicode hex="003F"/>
  <outline>
    <contour>
      <point x="115" y="242" type="curve" smooth="yes"/>
      <point x="279" y="242" type="line" smooth="yes"/>
      <point x="287" y="242"/>
      <point x="290" y="248"/>
      <point x="290" y="256" type="curve" smooth="yes"/>
      <point x="290" y="271" type="line" smooth="yes"/>
      <point x="289" y="351"/>
      <point x="396" y="359"/>
      <point x="396" y="510" type="curve" smooth="yes"/>
      <point x="396" y="603"/>
      <point x="337" y="661"/>
      <point x="205" y="661" type="curve" smooth="yes"/>
      <point x="71" y="661"/>
      <point x="13" y="588"/>
      <point x="25" y="463" type="curve" smooth="yes"/>
      <point x="26" y="449"/>
      <point x="28" y="442"/>
      <point x="41" y="442" type="curve" smooth="yes"/>
      <point x="173" y="442" type="line" smooth="yes"/>
      <point x="183" y="442"/>
      <point x="188" y="446"/>
      <point x="187" y="459" type="curve" smooth="yes"/>
      <point x="183" y="494"/>
      <point x="185" y="516"/>
      <point x="202" y="516" type="curve" smooth="yes"/>
      <point x="215" y="516"/>
      <point x="214" y="509"/>
      <point x="214" y="495" type="curve" smooth="yes"/>
      <point x="214" y="426"/>
      <point x="105" y="407"/>
      <point x="105" y="294" type="curve" smooth="yes"/>
      <point x="105" y="256" type="line" smooth="yes"/>
      <point x="105" y="246"/>
      <point x="107" y="242"/>
    </contour>
    <contour>
      <point x="203" y="-6" type="curve" smooth="yes"/>
      <point x="268" y="-6"/>
      <point x="305" y="21"/>
      <point x="305" y="82" type="curve" smooth="yes"/>
      <point x="305" y="113" type="line" smooth="yes"/>
      <point x="305" y="175"/>
      <point x="268" y="202"/>
      <point x="203" y="202" type="curve" smooth="yes"/>
      <point x="139" y="202"/>
      <point x="100" y="175"/>
      <point x="100" y="113" type="curve" smooth="yes"/>
      <point x="100" y="82" type="line" smooth="yes"/>
      <point x="100" y="21"/>
      <point x="139" y="-6"/>
    </contour>
  </outline>
</glyph>
<glyph name="at" format="2">
  <advance width="697.27416"/>
  <unicode hex="0040"/>
  <outline>
    <contour>
      <point x="351" y="-185" type="curve" smooth="yes"/>
      <point x="476" y="-185" type="line" smooth="yes"/>
      <point x="485" y="-185"/>
      <point x="492" y="-178"/>
      <point x="492" y="-169" type="curve" smooth="yes"/>
      <point x="492" y="-64" type="line" smooth="yes"/>
      <point x="492" y="-55"/>
      <point x="485" y="-48"/>
      <point x="476" y="-48" type="curve" smooth="yes"/>
      <point x="357" y="-48" type="line" smooth="yes"/>
      <point x="213" y="-48"/>
      <point x="158" y="26"/>
      <point x="158" y="228" type="curve" smooth="yes"/>
      <point x="158" y="276" type="line" smooth="yes"/>
      <point x="158" y="478"/>
      <point x="214" y="552"/>
      <point x="357" y="552" type="curve" smooth="yes"/>
      <point x="488" y="552"/>
      <point x="539" y="478"/>
      <point x="539" y="315" type="curve" smooth="yes"/>
      <point x="539" y="314" type="line" smooth="yes"/>
      <point x="539" y="187"/>
      <point x="532" y="161"/>
      <point x="506" y="161" type="curve" smooth="yes"/>
      <point x="486" y="161"/>
      <point x="479" y="175"/>
      <point x="483" y="225" type="curve" smooth="yes"/>
      <point x="502" y="431" type="line" smooth="yes"/>
      <point x="503" y="443"/>
      <point x="500" y="448"/>
      <point x="489" y="449" type="curve" smooth="yes"/>
      <point x="448" y="453"/>
      <point x="402" y="468"/>
      <point x="351" y="468" type="curve" smooth="yes"/>
      <point x="266" y="468"/>
      <point x="225" y="428"/>
      <point x="215" y="340" type="curve" smooth="yes"/>
      <point x="195" y="171" type="line" smooth="yes"/>
      <point x="186" y="93"/>
      <point x="209" y="32"/>
      <point x="275" y="32" type="curve" smooth="yes"/>
      <point x="322" y="32"/>
      <point x="366" y="60"/>
      <point x="416" y="125" type="curve"/>
      <point x="386" y="214" type="line"/>
      <point x="372" y="197"/>
      <point x="356" y="173"/>
      <point x="343" y="173" type="curve" smooth="yes"/>
      <point x="332" y="173"/>
      <point x="332" y="174"/>
      <point x="333" y="195" type="curve" smooth="yes"/>
      <point x="346" y="335" type="line" smooth="yes"/>
      <point x="347" y="344"/>
      <point x="350" y="347"/>
      <point x="359" y="347" type="curve" smooth="yes"/>
      <point x="363" y="347"/>
      <point x="375" y="352"/>
      <point x="370" y="345" type="curve"/>
      <point x="354" y="182" type="line" smooth="yes"/>
      <point x="348" y="111"/>
      <point x="393" y="33"/>
      <point x="494" y="33" type="curve" smooth="yes"/>
      <point x="607" y="33"/>
      <point x="695" y="121"/>
      <point x="695" y="315" type="curve" smooth="yes"/>
      <point x="695" y="321" type="line" smooth="yes"/>
      <point x="695" y="551"/>
      <point x="577" y="689"/>
      <point x="357.009" y="689" type="curve" smooth="yes"/>
      <point x="126" y="689"/>
      <point x="3" y="552"/>
      <point x="3" y="285" type="curve" smooth="yes"/>
      <point x="3" y="219" type="line" smooth="yes"/>
      <point x="3" y="-50"/>
      <point x="122" y="-185"/>
    </contour>
  </outline>
</glyph>
<glyph name="A" format="2">
  <advance width="516.54174"/>
  <unicode hex="0041"/>
  <anchor x="259" y="0" name="bottom"/>
  <anchor x="499" y="10" name="ogonek"/>
  <anchor x="259" y="655" name="top"/>
  <anchor x="109" y="655" name="topleft"/>
  <outline>
    <contour>
      <point x="14" y="0" type="curve" smooth="yes"/>
      <point x="188" y="0" type="line" smooth="yes"/>
      <point x="197" y="0"/>
      <point x="202" y="4"/>
      <point x="203" y="13" type="curve" smooth="yes"/>
      <point x="244" y="352" type="line" smooth="yes"/>
      <point x="249" y="397"/>
      <point x="253" y="443"/>
      <point x="258" y="487" type="curve"/>
      <point x="260" y="487" type="line"/>
      <point x="265" y="443"/>
      <point x="268" y="396"/>
      <point x="273" y="352" type="curve" smooth="yes"/>
      <point x="310" y="12" type="line" smooth="yes"/>
      <point x="311" y="6"/>
      <point x="315" y="0"/>
      <point x="324" y="0" type="curve" smooth="yes"/>
      <point x="503" y="0" type="line" smooth="yes"/>
      <point x="512" y="0"/>
      <point x="515" y="8"/>
      <point x="513" y="17" type="curve" smooth="yes"/>
      <point x="376" y="643" type="line" smooth="yes"/>
      <point x="373" y="652"/>
      <point x="368" y="655"/>
      <point x="360" y="655" type="curve" smooth="yes"/>
      <point x="157" y="655" type="line" smooth="yes"/>
      <point x="150" y="655"/>
      <point x="144" y="652"/>
      <point x="142" y="643" type="curve" smooth="yes"/>
      <point x="3" y="16" type="line" smooth="yes"/>
      <point x="1" y="7"/>
      <point x="4" y="0"/>
    </contour>
    <contour>
      <point x="187" y="107" type="line"/>
      <point x="327" y="107" type="line"/>
      <point x="302" y="251" type="line"/>
      <point x="210" y="251" type="line"/>
    </contour>
  </outline>
</glyph>
<glyph name="B" format="2">
  <advance width="474.66106"/>
  <unicode hex="0042"/>
  <anchor x="223" y="0" name="bottom"/>
  <anchor x="226" y="655" name="top"/>
  <outline>
    <contour>
      <point x="41" y="0" type="curve" smooth="yes"/>
      <point x="229" y="0" type="line" smooth="yes"/>
      <point x="391" y="0"/>
      <point x="459" y="58"/>
      <point x="459" y="195" type="curve" smooth="yes"/>
      <point x="459" y="270"/>
      <point x="423" y="323"/>
      <point x="348" y="344" type="curve"/>
      <point x="348" y="349" type="line"/>
      <point x="412" y="377"/>
      <point x="438" y="420"/>
      <point x="438" y="487" type="curve" smooth="yes"/>
      <point x="438" y="597"/>
      <point x="369" y="655"/>
      <point x="231" y="655" type="curve" smooth="yes"/>
      <point x="39" y="655" type="line" smooth="yes"/>
      <point x="31" y="655"/>
      <point x="25" y="648"/>
      <point x="25" y="640" type="curve" smooth="yes"/>
      <point x="25" y="15" type="line" smooth="yes"/>
      <point x="25" y="7"/>
      <point x="31" y="0"/>
    </contour>
    <contour>
      <point x="212" y="148" type="line"/>
      <point x="212" y="264" type="line"/>
      <point x="227" y="264" type="line" smooth="yes"/>
      <point x="257" y="264"/>
      <point x="276" y="242"/>
      <point x="276" y="207" type="curve" smooth="yes"/>
      <point x="276" y="170"/>
      <point x="260" y="148"/>
      <point x="232" y="148" type="curve" smooth="yes"/>
    </contour>
    <contour>
      <point x="212" y="396" type="line"/>
      <point x="212" y="507" type="line"/>
      <point x="221" y="507" type="line" smooth="yes"/>
      <point x="244" y="507"/>
      <point x="257" y="489"/>
      <point x="257" y="455" type="curve" smooth="yes"/>
      <point x="257" y="416"/>
      <point x="244" y="396"/>
      <point x="221" y="396" type="curve" smooth="yes"/>
    </contour>
  </outline>
</glyph>
<glyph name="C" format="2">
  <advance width="502.1332"/>
  <unicode hex="0043"/>
  <anchor x="274" y="0" name="bottom"/>
  <anchor x="250" y="655" name="top"/>
  <outline>
    <contour>
      <point x="252" y="-6" type="curve" smooth="yes"/>
      <point x="421" y="-6"/>
      <point x="497" y="96"/>
      <point x="482" y="244" type="curve" smooth="yes"/>
      <point x="481" y="253"/>
      <point x="477" y="259"/>
      <point x="471" y="259" type="curve" smooth="yes"/>
      <point x="307" y="259" type="line" smooth="yes"/>
      <point x="298" y="259"/>
      <point x="295" y="254"/>
      <point x="295" y="243" type="curve" smooth="yes"/>
      <point x="295" y="195"/>
      <point x="293" y="160"/>
      <point x="252" y="160" type="curve" smooth="yes"/>
      <point x="215" y="160"/>
      <point x="205" y="179"/>
      <point x="205" y="257" type="curve" smooth="yes"/>
      <point x="205" y="403" type="line" smooth="yes"/>
      <point x="205" y="474"/>
      <point x="212" y="495"/>
      <point x="251" y="495" type="curve" smooth="yes"/>
      <point x="289" y="495"/>
      <point x="299" y="465"/>
      <point x="295" y="413" type="curve" smooth="yes"/>
      <point x="294" y="404"/>
      <point x="297" y="397"/>
      <point x="307" y="397" type="curve" smooth="yes"/>
      <point x="469" y="397" type="line" smooth="yes"/>
      <point x="476" y="397"/>
      <point x="480" y="404"/>
      <point x="481" y="412" type="curve" smooth="yes"/>
      <point x="497" y="561"/>
      <point x="409" y="661"/>
      <point x="252" y="661" type="curve" smooth="yes"/>
      <point x="99" y="661"/>
      <point x="18" y="573"/>
      <point x="18" y="405" type="curve" smooth="yes"/>
      <point x="18" y="250" type="line" smooth="yes"/>
      <point x="18" y="70"/>
      <point x="99" y="-6"/>
    </contour>
  </outline>
</glyph>
<glyph name="D" format="2">
  <advance width="501.22958"/>
  <unicode hex="0044"/>
  <anchor x="220" y="0" name="bottom"/>
  <anchor x="239" y="343" name="center"/>
  <anchor x="220" y="655" name="top"/>
  <outline>
    <contour>
      <point x="41" y="0" type="curve" smooth="yes"/>
      <point x="237" y="0" type="line" smooth="yes"/>
      <point x="394" y="0"/>
      <point x="485" y="98"/>
      <point x="485" y="297" type="curve" smooth="yes"/>
      <point x="485" y="364" type="line" smooth="yes"/>
      <point x="485" y="558"/>
      <point x="395" y="655"/>
      <point x="233" y="655" type="curve" smooth="yes"/>
      <point x="41" y="655" type="line" smooth="yes"/>
      <point x="31" y="655"/>
      <point x="25" y="650"/>
      <point x="25" y="640" type="curve" smooth="yes"/>
      <point x="25" y="15" type="line" smooth="yes"/>
      <point x="25" y="5"/>
      <point x="31" y="0"/>
    </contour>
    <contour>
      <point x="212" y="164" type="line"/>
      <point x="212" y="491" type="line"/>
      <point x="231" y="491" type="line" smooth="yes"/>
      <point x="278" y="491"/>
      <point x="298" y="445"/>
      <point x="298" y="363" type="curve" smooth="yes"/>
      <point x="298" y="298" type="line" smooth="yes"/>
      <point x="298" y="211"/>
      <point x="277" y="164"/>
      <point x="235" y="164" type="curve" smooth="yes"/>
    </contour>
  </outline>
</glyph>
<glyph name="F" format="2">
  <advance width="419.242"/>
  <unicode hex="0046"/>
  <anchor x="222" y="0" name="bottom"/>
  <anchor x="221" y="655" name="top"/>
  <outline>
    <contour>
      <point x="38" y="0" type="curve" smooth="yes"/>
      <point x="200" y="0" type="line" smooth="yes"/>
      <point x="207" y="0"/>
      <point x="212" y="7"/>
      <point x="212" y="15" type="curve" smooth="yes"/>
      <point x="212" y="237" type="line"/>
      <point x="359" y="237" type="line" smooth="yes"/>
      <point x="368" y="237"/>
      <point x="373" y="242"/>
      <point x="373" y="251" type="curve" smooth="yes"/>
      <point x="373" y="382" type="line" smooth="yes"/>
      <point x="373" y="391"/>
      <point x="368" y="398"/>
      <point x="359" y="398" type="curve" smooth="yes"/>
      <point x="212" y="398" type="line"/>
      <point x="212" y="491" type="line"/>
      <point x="387" y="491" type="line" smooth="yes"/>
      <point x="395" y="491"/>
      <point x="400" y="498"/>
      <point x="400" y="506" type="curve" smooth="yes"/>
      <point x="400" y="640" type="line" smooth="yes"/>
      <point x="400" y="648"/>
      <point x="395" y="655"/>
      <point x="387" y="655" type="curve" smooth="yes"/>
      <point x="38" y="655" type="line" smooth="yes"/>
      <point x="31" y="655"/>
      <point x="25" y="648"/>
      <point x="25" y="640" type="curve" smooth="yes"/>
      <point x="25" y="15" type="line" smooth="yes"/>
      <point x="25" y="7"/>
      <point x="31" y="0"/>
    </contour>
  </outline>
</glyph>
<glyph name="G" format="2">
  <advance width="502.23941"/>
  <unicode hex="0047"/>
  <anchor x="243" y="0" name="bottom"/>
  <anchor x="253" y="655" name="top"/>
  <anchor x="57" y="655" name="topleft"/>
  <outline>
    <contour>
      <point x="199" y="-6" type="curve" smooth="yes"/>
      <point x="265" y="-6"/>
      <point x="299" y="25"/>
      <point x="324" y="71" type="curve"/>
      <point x="326" y="71" type="line"/>
      <point x="326" y="48"/>
      <point x="330" y="24"/>
      <point x="333" y="14" type="curve" smooth="yes"/>
      <point x="335" y="4"/>
      <point x="338" y="0"/>
      <point x="346" y="0" type="curve" smooth="yes"/>
      <point x="471" y="0" type="line" smooth="yes"/>
      <point x="481" y="0"/>
      <point x="487" y="7"/>
      <point x="484" y="16" type="curve" smooth="yes"/>
      <point x="478" y="50"/>
      <point x="475" y="105"/>
      <point x="475" y="179" type="curve" smooth="yes"/>
      <point x="475" y="343" type="line" smooth="yes"/>
      <point x="475" y="351"/>
      <point x="469" y="358"/>
      <point x="463" y="358" type="curve" smooth="yes"/>
      <point x="253" y="358" type="line" smooth="yes"/>
      <point x="245" y="358"/>
      <point x="240" y="351"/>
      <point x="240" y="343" type="curve" smooth="yes"/>
      <point x="240" y="252" type="line" smooth="yes"/>
      <point x="240" y="242"/>
      <point x="245" y="237"/>
      <point x="253" y="237" type="curve" smooth="yes"/>
      <point x="292" y="237" type="line"/>
      <point x="292" y="214" type="line" smooth="yes"/>
      <point x="292" y="181"/>
      <point x="276" y="160"/>
      <point x="249" y="160" type="curve" smooth="yes"/>
      <point x="213" y="160"/>
      <point x="205" y="181"/>
      <point x="205" y="246" type="curve" smooth="yes"/>
      <point x="205" y="408" type="line" smooth="yes"/>
      <point x="205" y="470"/>
      <point x="216" y="495"/>
      <point x="252" y="495" type="curve" smooth="yes"/>
      <point x="284" y="495"/>
      <point x="291" y="477"/>
      <point x="290" y="439" type="curve" smooth="yes"/>
      <point x="291" y="428"/>
      <point x="294" y="422"/>
      <point x="303" y="422" type="curve" smooth="yes"/>
      <point x="463" y="421" type="line" smooth="yes"/>
      <point x="472" y="421"/>
      <point x="475" y="427"/>
      <point x="476" y="437" type="curve" smooth="yes"/>
      <point x="484" y="573"/>
      <point x="402" y="661"/>
      <point x="252" y="661" type="curve" smooth="yes"/>
      <point x="98" y="661"/>
      <point x="18" y="573"/>
      <point x="18" y="405" type="curve" smooth="yes"/>
      <point x="18" y="230" type="line" smooth="yes"/>
      <point x="18" y="72"/>
      <point x="87" y="-6"/>
    </contour>
  </outline>
</glyph>
<glyph name="H" format="2">
  <advance width="510.68073"/>
  <unicode hex="0048"/>
  <anchor x="256" y="623" name="bottom"/>
  <anchor x="256" y="325" name="center"/>
  <anchor x="256" y="655" name="top"/>
  <anchor x="42" y="655" name="topleft"/>
  <outline>
    <contour>
      <point x="40" y="0" type="curve" smooth="yes"/>
      <point x="198" y="0" type="line" smooth="yes"/>
      <point x="207" y="0"/>
      <point x="212" y="7"/>
      <point x="212" y="15" type="curve" smooth="yes"/>
      <point x="212" y="245" type="line"/>
      <point x="298" y="245" type="line"/>
      <point x="298" y="15" type="line" smooth="yes"/>
      <point x="298" y="7"/>
      <point x="304" y="0"/>
      <point x="313" y="0" type="curve" smooth="yes"/>
      <point x="471" y="0" type="line" smooth="yes"/>
      <point x="480" y="0"/>
      <point x="485" y="7"/>
      <point x="485" y="15" type="curve" smooth="yes"/>
      <point x="485" y="640" type="line" smooth="yes"/>
      <point x="485" y="648"/>
      <point x="480" y="655"/>
      <point x="471" y="655" type="curve" smooth="yes"/>
      <point x="313" y="655" type="line" smooth="yes"/>
      <point x="304" y="655"/>
      <point x="298" y="648"/>
      <point x="298" y="640" type="curve" smooth="yes"/>
      <point x="298" y="409" type="line"/>
      <point x="212" y="409" type="line"/>
      <point x="212" y="640" type="line" smooth="yes"/>
      <point x="212" y="648"/>
      <point x="207" y="655"/>
      <point x="198" y="655" type="curve" smooth="yes"/>
      <point x="40" y="655" type="line" smooth="yes"/>
      <point x="31" y="655"/>
      <point x="25" y="648"/>
      <point x="25" y="640" type="curve" smooth="yes"/>
      <point x="25" y="15" type="line" smooth="yes"/>
      <point x="25" y="7"/>
      <point x="31" y="0"/>
    </contour>
  </outline>
</glyph>
<glyph name="I" format="2">
  <advance width="237.58166"/>
  <unicode hex="0049"/>
  <anchor x="119" y="0" name="bottom"/>
  <anchor x="211" y="10" name="ogonek"/>
  <anchor x="120.995" y="655" name="top"/>
  <anchor x="18" y="655" name="topleft"/>
  <outline>
    <contour>
      <point x="38" y="0" type="curve" smooth="yes"/>
      <point x="199" y="0" type="line" smooth="yes"/>
      <point x="207" y="0"/>
      <point x="212" y="7"/>
      <point x="212" y="15" type="curve" smooth="yes"/>
      <point x="212" y="640" type="line" smooth="yes"/>
      <point x="212" y="648"/>
      <point x="207" y="655"/>
      <point x="199" y="655" type="curve" smooth="yes"/>
      <point x="38" y="655" type="line" smooth="yes"/>
      <point x="31" y="655"/>
      <point x="25" y="648"/>
      <point x="25" y="640" type="curve" smooth="yes"/>
      <point x="25" y="15" type="line" smooth="yes"/>
      <point x="25" y="7"/>
      <point x="31" y="0"/>
    </contour>
  </outline>
</glyph>
<glyph name="J" format="2">
  <advance width="237.58166"/>
  <unicode hex="004A"/>
  <anchor x="122" y="0" name="bottom"/>
  <anchor x="122" y="655" name="top"/>
  <outline>
    <contour>
      <point x="26" y="-172" type="curve" smooth="yes"/>
      <point x="149" y="-150"/>
      <point x="212" y="-62"/>
      <point x="212" y="97" type="curve" smooth="yes"/>
      <point x="212" y="640" type="line" smooth="yes"/>
      <point x="212" y="648"/>
      <point x="207" y="655"/>
      <point x="199" y="655" type="curve" smooth="yes"/>
      <point x="38" y="655" type="line" smooth="yes"/>
      <point x="31" y="655"/>
      <point x="25" y="648"/>
      <point x="25" y="640" type="curve" smooth="yes"/>
      <point x="25" y="87" type="line" smooth="yes"/>
      <point x="25" y="9"/>
      <point x="11" y="-7"/>
      <point x="-19" y="-20" type="curve" smooth="yes"/>
      <point x="-23" y="-22"/>
      <point x="-28" y="-29"/>
      <point x="-24" y="-39" type="curve" smooth="yes"/>
      <point x="15" y="-162" type="line" smooth="yes"/>
      <point x="17" y="-170"/>
      <point x="22" y="-173"/>
    </contour>
  </outline>
</glyph>
<glyph name="K" format="2">
  <advance width="505.68859"/>
  <unicode hex="004B"/>
  <anchor x="245" y="0" name="bottom"/>
  <anchor x="256" y="655" name="top"/>
  <outline>
    <contour>
      <point x="38" y="0" type="curve" smooth="yes"/>
      <point x="199" y="0" type="line" smooth="yes"/>
      <point x="207" y="0"/>
      <point x="212" y="7"/>
      <point x="212" y="15" type="curve" smooth="yes"/>
      <point x="212" y="183" type="line"/>
      <point x="234" y="224" type="line"/>
      <point x="289" y="10" type="line"/>
      <point x="291" y="2"/>
      <point x="297" y="0"/>
      <point x="304" y="0" type="curve" smooth="yes"/>
      <point x="494" y="0" type="line" smooth="yes"/>
      <point x="504" y="0"/>
      <point x="509" y="8"/>
      <point x="504" y="19" type="curve"/>
      <point x="372" y="373" type="line"/>
      <point x="481" y="636" type="line" smooth="yes"/>
      <point x="485" y="647"/>
      <point x="483" y="655"/>
      <point x="473" y="655" type="curve" smooth="yes"/>
      <point x="294" y="655" type="line" smooth="yes"/>
      <point x="286" y="655"/>
      <point x="282" y="653"/>
      <point x="280" y="646" type="curve"/>
      <point x="254" y="576" type="line" smooth="yes"/>
      <point x="225" y="507"/>
      <point x="215" y="445"/>
      <point x="207" y="406" type="curve"/>
      <point x="204" y="406" type="line"/>
      <point x="209" y="445"/>
      <point x="212" y="539"/>
      <point x="212" y="577" type="curve" smooth="yes"/>
      <point x="212" y="640" type="line" smooth="yes"/>
      <point x="212" y="648"/>
      <point x="207" y="655"/>
      <point x="199" y="655" type="curve" smooth="yes"/>
      <point x="38" y="655" type="line" smooth="yes"/>
      <point x="31" y="655"/>
      <point x="25" y="648"/>
      <point x="25" y="640" type="curve" smooth="yes"/>
      <point x="25" y="15" type="line" smooth="yes"/>
      <point x="25" y="7"/>
      <point x="31" y="0"/>
    </contour>
  </outline>
</glyph>
<glyph name="L" format="2">
  <advance width="387.78694"/>
  <unicode hex="004C"/>
  <anchor x="203" y="0" name="bottom"/>
  <anchor x="191" y="325" name="center"/>
  <anchor x="121" y="655" name="top"/>
  <anchor x="390" y="655" name="topright"/>
  <outline>
    <contour>
      <point x="40" y="0" type="curve" smooth="yes"/>
      <point x="366" y="0" type="line" smooth="yes"/>
      <point x="376" y="0"/>
      <point x="379" y="7"/>
      <point x="379" y="15" type="curve" smooth="yes"/>
      <point x="379" y="149" type="line" smooth="yes"/>
      <point x="379" y="158"/>
      <point x="374" y="164"/>
      <point x="365" y="164" type="curve" smooth="yes"/>
      <point x="212" y="164" type="line"/>
      <point x="212" y="640" type="line" smooth="yes"/>
      <point x="212" y="648"/>
      <point x="207" y="655"/>
      <point x="198" y="655" type="curve" smooth="yes"/>
      <point x="40" y="655" type="line" smooth="yes"/>
      <point x="31" y="655"/>
      <point x="25" y="648"/>
      <point x="25" y="640" type="curve" smooth="yes"/>
      <point x="25" y="15" type="line" smooth="yes"/>
      <point x="25" y="7"/>
      <point x="31" y="0"/>
    </contour>
  </outline>
</glyph>
<glyph name="M" format="2">
  <advance width="625.00863"/>
  <unicode hex="004D"/>
  <anchor x="311" y="0" name="bottom"/>
  <anchor x="311" y="655" name="top"/>
  <outline>
    <contour>
      <point x="33" y="0" type="curve" smooth="yes"/>
      <point x="190" y="0" type="line" smooth="yes"/>
      <point x="198" y="0"/>
      <point x="203" y="6"/>
      <point x="203" y="15" type="curve" smooth="yes"/>
      <point x="203" y="138" type="line" smooth="yes"/>
      <point x="205" y="236"/>
      <point x="197" y="298"/>
      <point x="192" y="348" type="curve"/>
      <point x="194" y="348" type="line"/>
      <point x="206" y="304"/>
      <point x="221" y="259"/>
      <point x="238" y="216" type="curve" smooth="yes"/>
      <point x="299" y="75" type="line" smooth="yes"/>
      <point x="303" y="67"/>
      <point x="305" y="65"/>
      <point x="310" y="65" type="curve" smooth="yes"/>
      <point x="315" y="65" type="line" smooth="yes"/>
      <point x="321" y="65"/>
      <point x="322" y="67"/>
      <point x="326" y="75" type="curve" smooth="yes"/>
      <point x="387" y="216" type="line" smooth="yes"/>
      <point x="404" y="259"/>
      <point x="419" y="304"/>
      <point x="431" y="348" type="curve"/>
      <point x="433" y="348" type="line"/>
      <point x="428" y="298"/>
      <point x="420" y="237"/>
      <point x="422" y="138" type="curve" smooth="yes"/>
      <point x="422" y="15" type="line" smooth="yes"/>
      <point x="422" y="6"/>
      <point x="427" y="0"/>
      <point x="435" y="0" type="curve" smooth="yes"/>
      <point x="592" y="0" type="line" smooth="yes"/>
      <point x="601" y="0"/>
      <point x="607" y="7"/>
      <point x="607" y="14" type="curve" smooth="yes"/>
      <point x="598" y="640" type="line" smooth="yes"/>
      <point x="598" y="649"/>
      <point x="592" y="655"/>
      <point x="585" y="655" type="curve" smooth="yes"/>
      <point x="407" y="655" type="line" smooth="yes"/>
      <point x="400" y="655"/>
      <point x="394" y="653"/>
      <point x="392" y="644" type="curve" smooth="yes"/>
      <point x="313" y="380" type="line"/>
      <point x="233" y="644" type="line" smooth="yes"/>
      <point x="230" y="653"/>
      <point x="225" y="655"/>
      <point x="217" y="655" type="curve" smooth="yes"/>
      <point x="40" y="655" type="line" smooth="yes"/>
      <point x="33" y="655"/>
      <point x="27" y="649"/>
      <point x="27" y="640" type="curve" smooth="yes"/>
      <point x="18" y="14" type="line" smooth="yes"/>
      <point x="18" y="7"/>
      <point x="24" y="0"/>
    </contour>
  </outline>
</glyph>
<glyph name="N" format="2">
  <advance width="512"/>
  <unicode hex="004E"/>
  <anchor x="256" y="0" name="bottom"/>
  <anchor x="256" y="655" name="top"/>
  <outline>
    <contour>
      <point x="40" y="0" type="curve" smooth="yes"/>
      <point x="185" y="0" type="line" smooth="yes"/>
      <point x="194" y="0"/>
      <point x="200" y="7"/>
      <point x="200" y="15" type="curve" smooth="yes"/>
      <point x="200" y="144" type="line" smooth="yes"/>
      <point x="200" y="200"/>
      <point x="191" y="323"/>
      <point x="185" y="379" type="curve"/>
      <point x="187" y="379" type="line"/>
      <point x="193" y="337"/>
      <point x="202" y="280"/>
      <point x="215" y="234" type="curve" smooth="yes"/>
      <point x="275" y="11" type="line" smooth="yes"/>
      <point x="278" y="3"/>
      <point x="282" y="0"/>
      <point x="290" y="0" type="curve" smooth="yes"/>
      <point x="473" y="0" type="line" smooth="yes"/>
      <point x="482" y="0"/>
      <point x="486" y="7"/>
      <point x="486" y="15" type="curve" smooth="yes"/>
      <point x="486" y="640" type="line" smooth="yes"/>
      <point x="486" y="648"/>
      <point x="482" y="655"/>
      <point x="472" y="655" type="curve" smooth="yes"/>
      <point x="326" y="655" type="line" smooth="yes"/>
      <point x="318" y="655"/>
      <point x="312" y="648"/>
      <point x="312" y="640" type="curve" smooth="yes"/>
      <point x="312" y="503" type="line" smooth="yes"/>
      <point x="312" y="451"/>
      <point x="320" y="320"/>
      <point x="327" y="267" type="curve"/>
      <point x="325" y="267" type="line"/>
      <point x="317" y="308"/>
      <point x="302" y="380"/>
      <point x="291" y="423" type="curve" smooth="yes"/>
      <point x="237" y="644" type="line" smooth="yes"/>
      <point x="235" y="652"/>
      <point x="231" y="655"/>
      <point x="222.996" y="655" type="curve" smooth="yes"/>
      <point x="38" y="655" type="line" smooth="yes"/>
      <point x="31" y="655"/>
      <point x="25" y="648"/>
      <point x="25" y="640" type="curve" smooth="yes"/>
      <point x="25" y="15" type="line" smooth="yes"/>
      <point x="25" y="7"/>
      <point x="31" y="0"/>
    </contour>
  </outline>
</glyph>
<glyph name="O" format="2">
  <advance width="504.70303"/>
  <unicode hex="004F"/>
  <anchor x="252" y="626" name="bottom"/>
  <anchor x="252" y="-298" name="center"/>
  <anchor x="451" y="10" name="ogonek"/>
  <anchor x="252" y="655" name="top"/>
  <anchor x="1" y="655" name="topleft"/>
  <anchor x="487" y="655" name="topright"/>
  <outline>
    <contour>
      <point x="252" y="-6" type="curve" smooth="yes"/>
      <point x="406" y="-6"/>
      <point x="487" y="82"/>
      <point x="487" y="246" type="curve" smooth="yes"/>
      <point x="487" y="408" type="line" smooth="yes"/>
      <point x="487" y="573"/>
      <point x="406" y="661"/>
      <point x="252" y="661" type="curve" smooth="yes"/>
      <point x="99" y="661"/>
      <point x="18" y="573"/>
      <point x="18" y="408" type="curve" smooth="yes"/>
      <point x="18" y="246" type="line" smooth="yes"/>
      <point x="18" y="82"/>
      <point x="99" y="-6"/>
    </contour>
    <contour>
      <point x="252" y="160" type="curve" smooth="yes"/>
      <point x="216" y="160"/>
      <point x="205" y="182"/>
      <point x="205" y="251" type="curve" smooth="yes"/>
      <point x="205" y="403" type="line" smooth="yes"/>
      <point x="205" y="473"/>
      <point x="216" y="495"/>
      <point x="252" y="495" type="curve" smooth="yes"/>
      <point x="289" y="495"/>
      <point x="300" y="473"/>
      <point x="300" y="403" type="curve" smooth="yes"/>
      <point x="300" y="251" type="line" smooth="yes"/>
      <point x="300" y="182"/>
      <point x="289" y="160"/>
    </contour>
  </outline>
</glyph>
<glyph name="P" format="2">
  <advance width="456.0381"/>
  <unicode hex="0050"/>
  <anchor x="217" y="0" name="bottom"/>
  <anchor x="217" y="655" name="top"/>
  <outline>
    <contour>
      <point x="38" y="0" type="curve" smooth="yes"/>
      <point x="199" y="0" type="line" smooth="yes"/>
      <point x="207" y="0"/>
      <point x="212" y="7"/>
      <point x="212" y="15" type="curve" smooth="yes"/>
      <point x="212" y="196" type="line"/>
      <point x="218" y="196" type="line" smooth="yes"/>
      <point x="359" y="196"/>
      <point x="437" y="276"/>
      <point x="437" y="424" type="curve" smooth="yes"/>
      <point x="437" y="580"/>
      <point x="366" y="655"/>
      <point x="216" y="655" type="curve" smooth="yes"/>
      <point x="38" y="655" type="line" smooth="yes"/>
      <point x="31" y="655"/>
      <point x="25" y="648"/>
      <point x="25" y="640" type="curve" smooth="yes"/>
      <point x="25" y="15" type="line" smooth="yes"/>
      <point x="25" y="7"/>
      <point x="31" y="0"/>
    </contour>
    <contour>
      <point x="212" y="360" type="line"/>
      <point x="212" y="491" type="line"/>
      <point x="215" y="491" type="line" smooth="yes"/>
      <point x="241" y="491"/>
      <point x="250" y="471"/>
      <point x="250" y="424" type="curve" smooth="yes"/>
      <point x="250" y="382"/>
      <point x="238" y="360"/>
      <point x="216" y="360" type="curve" smooth="yes"/>
    </contour>
  </outline>
</glyph>
<glyph name="Q" format="2">
  <advance width="504.70303"/>
  <unicode hex="0051"/>
  <anchor x="246" y="0" name="bottom"/>
  <anchor x="246" y="655" name="top"/>
  <outline>
    <contour>
      <point x="360" y="-185" type="curve" smooth="yes"/>
      <point x="399" y="-185"/>
      <point x="423" y="-178"/>
      <point x="436" y="-171" type="curve" smooth="yes"/>
      <point x="443" y="-166"/>
      <point x="444" y="-160"/>
      <point x="444" y="-151" type="curve" smooth="yes"/>
      <point x="444" y="-59" type="line" smooth="yes"/>
      <point x="444" y="-49"/>
      <point x="440" y="-43"/>
      <point x="430" y="-46" type="curve" smooth="yes"/>
      <point x="421" y="-49"/>
      <point x="412" y="-52"/>
      <point x="397" y="-52" type="curve" smooth="yes"/>
      <point x="376" y="-52"/>
      <point x="366" y="-39"/>
      <point x="363" y="47" type="curve" smooth="yes"/>
      <point x="363" y="58"/>
      <point x="356" y="63"/>
      <point x="350" y="63" type="curve" smooth="yes"/>
      <point x="230" y="62" type="line" smooth="yes"/>
      <point x="222" y="62"/>
      <point x="217" y="57"/>
      <point x="217" y="47" type="curve" smooth="yes"/>
      <point x="218" y="-111"/>
      <point x="258" y="-185"/>
    </contour>
    <component base="O"/>
  </outline>
</glyph>
<glyph name="R" format="2">
  <advance width="488.81318"/>
  <unicode hex="0052"/>
  <anchor x="255.009" y="0" name="bottom"/>
  <anchor x="216" y="655" name="top"/>
  <outline>
    <contour>
      <point x="38" y="0" type="curve" smooth="yes"/>
      <point x="199" y="0" type="line" smooth="yes"/>
      <point x="207" y="0"/>
      <point x="212" y="7"/>
      <point x="212" y="15" type="curve" smooth="yes"/>
      <point x="212" y="230" type="line"/>
      <point x="209" y="230" type="line"/>
      <point x="284" y="10" type="line" smooth="yes"/>
      <point x="286" y="3"/>
      <point x="292" y="0"/>
      <point x="301" y="0" type="curve" smooth="yes"/>
      <point x="476" y="0" type="line" smooth="yes"/>
      <point x="486" y="0"/>
      <point x="489" y="6"/>
      <point x="485" y="19" type="curve" smooth="yes"/>
      <point x="381" y="262" type="line"/>
      <point x="382" y="264" type="line"/>
      <point x="436" y="295"/>
      <point x="457" y="353"/>
      <point x="457" y="445" type="curve" smooth="yes"/>
      <point x="457" y="594"/>
      <point x="385" y="655"/>
      <point x="227" y="655" type="curve" smooth="yes"/>
      <point x="38" y="655" type="line" smooth="yes"/>
      <point x="31" y="655"/>
      <point x="25" y="648"/>
      <point x="25" y="640" type="curve" smooth="yes"/>
      <point x="25" y="15" type="line" smooth="yes"/>
      <point x="25" y="7"/>
      <point x="31" y="0"/>
    </contour>
    <contour>
      <point x="212" y="381" type="line"/>
      <point x="212" y="491" type="line"/>
      <point x="227" y="491" type="line" smooth="yes"/>
      <point x="257" y="491"/>
      <point x="270" y="472"/>
      <point x="270" y="437" type="curve" smooth="yes"/>
      <point x="270" y="398"/>
      <point x="256" y="381"/>
      <point x="226" y="381" type="curve" smooth="yes"/>
    </contour>
  </outline>
</glyph>
<glyph name="S" format="2">
  <advance width="438.31482"/>
  <unicode hex="0053"/>
  <anchor x="225" y="0" name="bottom"/>
  <anchor x="212" y="655" name="top"/>
  <outline>
    <contour>
      <point x="213" y="-6" type="curve" smooth="yes"/>
      <point x="360" y="-6"/>
      <point x="421" y="57"/>
      <point x="422" y="177" type="curve" smooth="yes"/>
      <point x="423" y="268"/>
      <point x="397" y="308"/>
      <point x="320" y="367" type="curve" smooth="yes"/>
      <point x="231" y="434" type="line" smooth="yes"/>
      <point x="216" y="444"/>
      <point x="201" y="457"/>
      <point x="200" y="480" type="curve" smooth="yes"/>
      <point x="200" y="498"/>
      <point x="206" y="504"/>
      <point x="217" y="504" type="curve" smooth="yes"/>
      <point x="231" y="504"/>
      <point x="230" y="476"/>
      <point x="228" y="459" type="curve" smooth="yes"/>
      <point x="227" y="447"/>
      <point x="232" y="440"/>
      <point x="240" y="440" type="curve" smooth="yes"/>
      <point x="399" y="440" type="line" smooth="yes"/>
      <point x="407" y="440"/>
      <point x="413" y="447"/>
      <point x="414" y="459" type="curve" smooth="yes"/>
      <point x="424" y="590"/>
      <point x="356" y="661"/>
      <point x="208" y="661" type="curve" smooth="yes"/>
      <point x="75" y="661"/>
      <point x="14" y="599"/>
      <point x="13" y="485" type="curve" smooth="yes"/>
      <point x="12" y="399"/>
      <point x="46" y="351"/>
      <point x="118" y="296" type="curve" smooth="yes"/>
      <point x="208" y="228" type="line" smooth="yes"/>
      <point x="225" y="215"/>
      <point x="235" y="195"/>
      <point x="235" y="180" type="curve" smooth="yes"/>
      <point x="235" y="159"/>
      <point x="229" y="151"/>
      <point x="215" y="151" type="curve" smooth="yes"/>
      <point x="200" y="151"/>
      <point x="196" y="177"/>
      <point x="198" y="205" type="curve" smooth="yes"/>
      <point x="199" y="215"/>
      <point x="195" y="220"/>
      <point x="187" y="220" type="curve" smooth="yes"/>
      <point x="30" y="220" type="line" smooth="yes"/>
      <point x="23" y="220"/>
      <point x="18" y="215"/>
      <point x="17" y="203" type="curve" smooth="yes"/>
      <point x="4" y="66"/>
      <point x="65" y="-6"/>
    </contour>
  </outline>
</glyph>
<glyph name="T" format="2">
  <advance width="438.94042"/>
  <unicode hex="0054"/>
  <anchor x="220" y="0" name="bottom"/>
  <anchor x="223" y="328" name="center"/>
  <anchor x="223" y="655" name="top"/>
  <outline>
    <contour>
      <point x="140" y="0" type="curve" smooth="yes"/>
      <point x="301" y="0" type="line" smooth="yes"/>
      <point x="309" y="0"/>
      <point x="314" y="7"/>
      <point x="314" y="15" type="curve" smooth="yes"/>
      <point x="314" y="491" type="line"/>
      <point x="415" y="491" type="line" smooth="yes"/>
      <point x="423" y="491"/>
      <point x="428" y="498"/>
      <point x="428" y="506" type="curve" smooth="yes"/>
      <point x="428" y="640" type="line" smooth="yes"/>
      <point x="428" y="648"/>
      <point x="423" y="655"/>
      <point x="415" y="655" type="curve" smooth="yes"/>
      <point x="24" y="655" type="line" smooth="yes"/>
      <point x="16" y="655"/>
      <point x="11" y="648"/>
      <point x="11" y="640" type="curve" smooth="yes"/>
      <point x="11" y="506" type="line" smooth="yes"/>
      <point x="11" y="498"/>
      <point x="16" y="491"/>
      <point x="24" y="491" type="curve" smooth="yes"/>
      <point x="127" y="491" type="line"/>
      <point x="127" y="15" type="line" smooth="yes"/>
      <point x="127" y="7"/>
      <point x="131" y="0"/>
    </contour>
  </outline>
</glyph>
<glyph name="U" format="2">
  <advance width="504.33712"/>
  <unicode hex="0055"/>
  <anchor x="251" y="0" name="bottom"/>
  <anchor x="361" y="10" name="ogonek"/>
  <anchor x="251" y="655" name="top"/>
  <anchor x="57" y="655" name="topleft"/>
  <anchor x="479" y="655" name="topright"/>
  <outline>
    <contour>
      <point x="252" y="-6" type="curve" smooth="yes"/>
      <point x="403" y="-6"/>
      <point x="481" y="75"/>
      <point x="481" y="242" type="curve" smooth="yes"/>
      <point x="481" y="640" type="line" smooth="yes"/>
      <point x="481" y="648"/>
      <point x="475" y="655"/>
      <point x="468" y="655" type="curve" smooth="yes"/>
      <point x="306" y="655" type="line" smooth="yes"/>
      <point x="299" y="655"/>
      <point x="294" y="648"/>
      <point x="294" y="640" type="curve" smooth="yes"/>
      <point x="294" y="248" type="line" smooth="yes"/>
      <point x="294" y="175"/>
      <point x="281" y="160"/>
      <point x="252" y="160" type="curve" smooth="yes"/>
      <point x="223" y="160"/>
      <point x="211" y="175"/>
      <point x="211" y="248" type="curve" smooth="yes"/>
      <point x="211" y="640" type="line" smooth="yes"/>
      <point x="211" y="648"/>
      <point x="205" y="655"/>
      <point x="199" y="655" type="curve" smooth="yes"/>
      <point x="37" y="655" type="line" smooth="yes"/>
      <point x="29" y="655"/>
      <point x="24" y="648"/>
      <point x="24" y="640" type="curve" smooth="yes"/>
      <point x="24" y="242" type="line" smooth="yes"/>
      <point x="24" y="75"/>
      <point x="102" y="-6"/>
    </contour>
  </outline>
</glyph>
<glyph name="V" format="2">
  <advance width="508.07549"/>
  <unicode hex="0056"/>
  <anchor x="253" y="0" name="bottom"/>
  <anchor x="253" y="655" name="top"/>
  <outline>
    <contour>
      <point x="150" y="0" type="curve" smooth="yes"/>
      <point x="361" y="0" type="line" smooth="yes"/>
      <point x="369" y="0"/>
      <point x="374" y="3"/>
      <point x="376" y="12" type="curve" smooth="yes"/>
      <point x="506" y="639" type="line" smooth="yes"/>
      <point x="508" y="648"/>
      <point x="505" y="655"/>
      <point x="495" y="655" type="curve" smooth="yes"/>
      <point x="318" y="655" type="line" smooth="yes"/>
      <point x="309" y="655"/>
      <point x="303" y="651"/>
      <point x="302" y="642" type="curve" smooth="yes"/>
      <point x="269" y="313" type="line" smooth="yes"/>
      <point x="265" y="269"/>
      <point x="260" y="223"/>
      <point x="258" y="167" type="curve"/>
      <point x="256" y="167" type="line"/>
      <point x="253" y="223"/>
      <point x="248" y="269"/>
      <point x="243" y="313" type="curve" smooth="yes"/>
      <point x="206" y="643" type="line" smooth="yes"/>
      <point x="205" y="649"/>
      <point x="199" y="655"/>
      <point x="190" y="655" type="curve" smooth="yes"/>
      <point x="13" y="655" type="line" smooth="yes"/>
      <point x="3" y="655"/>
      <point x="0" y="648"/>
      <point x="2" y="637" type="curve" smooth="yes"/>
      <point x="136" y="13" type="line" smooth="yes"/>
      <point x="138" y="3"/>
      <point x="144" y="0"/>
    </contour>
  </outline>
</glyph>
<glyph name="W" format="2">
  <advance width="699.02632"/>
  <unicode hex="0057"/>
  <anchor x="348" y="0" name="bottom"/>
  <anchor x="349" y="655" name="top"/>
  <outline>
    <contour>
      <point x="119" y="0" type="curve" smooth="yes"/>
      <point x="287" y="0" type="line" smooth="yes"/>
      <point x="294" y="0"/>
      <point x="302" y="3"/>
      <point x="303" y="12" type="curve" smooth="yes"/>
      <point x="327" y="164" type="line" smooth="yes"/>
      <point x="335" y="210"/>
      <point x="341" y="254"/>
      <point x="348" y="300" type="curve"/>
      <point x="350" y="300" type="line"/>
      <point x="357" y="255"/>
      <point x="363" y="210"/>
      <point x="370" y="164" type="curve" smooth="yes"/>
      <point x="391" y="12" type="line" smooth="yes"/>
      <point x="392" y="6"/>
      <point x="398" y="0"/>
      <point x="407" y="0" type="curve" smooth="yes"/>
      <point x="576" y="0" type="line" smooth="yes"/>
      <point x="584" y="0"/>
      <point x="588" y="6"/>
      <point x="589" y="13" type="curve" smooth="yes"/>
      <point x="697" y="637" type="line" smooth="yes"/>
      <point x="699" y="648"/>
      <point x="695" y="655"/>
      <point x="686" y="655" type="curve" smooth="yes"/>
      <point x="528" y="655" type="line" smooth="yes"/>
      <point x="520" y="655"/>
      <point x="515" y="651"/>
      <point x="514" y="642" type="curve" smooth="yes"/>
      <point x="503" y="543" type="line" smooth="yes"/>
      <point x="487" y="419"/>
      <point x="487" y="338"/>
      <point x="485" y="192" type="curve"/>
      <point x="483" y="192" type="line"/>
      <point x="481" y="243"/>
      <point x="475" y="293"/>
      <point x="468" y="344" type="curve" smooth="yes"/>
      <point x="429" y="625" type="line" smooth="yes"/>
      <point x="428" y="632"/>
      <point x="423" y="637"/>
      <point x="416" y="637" type="curve" smooth="yes"/>
      <point x="263" y="637" type="line" smooth="yes"/>
      <point x="255" y="637"/>
      <point x="249" y="629"/>
      <point x="253" y="616" type="curve" smooth="yes"/>
      <point x="276" y="516" type="line"/>
      <point x="239" y="336" type="line" smooth="yes"/>
      <point x="230" y="289"/>
      <point x="223" y="240"/>
      <point x="219" y="192" type="curve"/>
      <point x="217" y="192" type="line"/>
      <point x="217" y="336"/>
      <point x="214" y="416"/>
      <point x="199" y="534" type="curve" smooth="yes"/>
      <point x="188" y="643" type="line" smooth="yes"/>
      <point x="187" y="651"/>
      <point x="180" y="655"/>
      <point x="172" y="655" type="curve" smooth="yes"/>
      <point x="13.01" y="655" type="line" smooth="yes"/>
      <point x="4" y="655"/>
      <point x="-1" y="648"/>
      <point x="1" y="637" type="curve" smooth="yes"/>
      <point x="105" y="12" type="line" smooth="yes"/>
      <point x="106" y="5"/>
      <point x="111" y="0"/>
    </contour>
  </outline>
</glyph>
<glyph name="X" format="2">
  <advance width="493.52796"/>
  <unicode hex="0058"/>
  <anchor x="246" y="0" name="bottom"/>
  <anchor x="246" y="655" name="top"/>
  <outline>
    <contour>
      <point x="12" y="0" type="curve" smooth="yes"/>
      <point x="194" y="0" type="line" smooth="yes"/>
      <point x="201" y="0"/>
      <point x="207" y="2"/>
      <point x="209" y="10" type="curve" smooth="yes"/>
      <point x="229" y="101" type="line" smooth="yes"/>
      <point x="236" y="129"/>
      <point x="240" y="159"/>
      <point x="245" y="188" type="curve"/>
      <point x="247" y="188" type="line"/>
      <point x="252" y="159"/>
      <point x="258" y="131"/>
      <point x="264" y="102" type="curve" smooth="yes"/>
      <point x="281" y="10" type="line" smooth="yes"/>
      <point x="283" y="2"/>
      <point x="288" y="0"/>
      <point x="295" y="0" type="curve" smooth="yes"/>
      <point x="482" y="0" type="line" smooth="yes"/>
      <point x="493" y="0"/>
      <point x="496" y="8"/>
      <point x="492" y="19" type="curve" smooth="yes"/>
      <point x="350" y="335" type="line"/>
      <point x="484" y="636" type="line" smooth="yes"/>
      <point x="488" y="647"/>
      <point x="486" y="655"/>
      <point x="475.99" y="655" type="curve" smooth="yes"/>
      <point x="287" y="655" type="line" smooth="yes"/>
      <point x="281" y="655"/>
      <point x="276" y="653"/>
      <point x="275" y="645" type="curve" smooth="yes"/>
      <point x="266" y="571" type="line" smooth="yes"/>
      <point x="261" y="541"/>
      <point x="254" y="511"/>
      <point x="251" y="481" type="curve"/>
      <point x="248" y="481" type="line"/>
      <point x="243" y="511"/>
      <point x="238" y="541"/>
      <point x="232" y="571" type="curve" smooth="yes"/>
      <point x="218" y="645" type="line" smooth="yes"/>
      <point x="216" y="653"/>
      <point x="212" y="655"/>
      <point x="205" y="655" type="curve" smooth="yes"/>
      <point x="19" y="655" type="line" smooth="yes"/>
      <point x="7" y="655"/>
      <point x="5" y="647"/>
      <point x="10" y="636" type="curve" smooth="yes"/>
      <point x="144" y="335" type="line"/>
      <point x="2" y="19" type="line" smooth="yes"/>
      <point x="-4" y="6"/>
      <point x="1" y="0"/>
    </contour>
  </outline>
</glyph>
<glyph name="Z" format="2">
  <advance width="437.79216"/>
  <unicode hex="005A"/>
  <anchor x="215" y="0" name="bottom"/>
  <anchor x="229" y="655" name="top"/>
  <outline>
    <contour>
      <point x="17" y="0" type="curve" smooth="yes"/>
      <point x="400.006" y="0" type="line" smooth="yes"/>
      <point x="408" y="0"/>
      <point x="413" y="7"/>
      <point x="413" y="15" type="curve" smooth="yes"/>
      <point x="413" y="149" type="line" smooth="yes"/>
      <point x="413" y="157"/>
      <point x="408" y="164"/>
      <point x="400" y="164" type="curve" smooth="yes"/>
      <point x="319" y="164" type="line" smooth="yes"/>
      <point x="295" y="164"/>
      <point x="260" y="163"/>
      <point x="237" y="162" type="curve"/>
      <point x="237" y="164" type="line"/>
      <point x="253" y="192"/>
      <point x="275" y="236"/>
      <point x="291" y="277" type="curve" smooth="yes"/>
      <point x="427" y="615" type="line" smooth="yes"/>
      <point x="429" y="620"/>
      <point x="431" y="626"/>
      <point x="431" y="633" type="curve" smooth="yes"/>
      <point x="431" y="640" type="line" smooth="yes"/>
      <point x="431" y="648"/>
      <point x="426" y="655"/>
      <point x="417" y="655" type="curve" smooth="yes"/>
      <point x="34" y="655" type="line" smooth="yes"/>
      <point x="26" y="655"/>
      <point x="21" y="648"/>
      <point x="21" y="640" type="curve" smooth="yes"/>
      <point x="21" y="506" type="line" smooth="yes"/>
      <point x="21" y="498"/>
      <point x="26" y="491"/>
      <point x="34" y="491" type="curve" smooth="yes"/>
      <point x="105" y="491" type="line" smooth="yes"/>
      <point x="132" y="491"/>
      <point x="167" y="492"/>
      <point x="193" y="493" type="curve"/>
      <point x="193" y="491" type="line"/>
      <point x="178" y="463"/>
      <point x="155" y="415"/>
      <point x="138" y="374" type="curve" smooth="yes"/>
      <point x="7" y="40" type="line" smooth="yes"/>
      <point x="5" y="35"/>
      <point x="4" y="29"/>
      <point x="4" y="22" type="curve" smooth="yes"/>
      <point x="4" y="15" type="line" smooth="yes"/>
      <point x="4" y="7"/>
      <point x="10" y="0"/>
    </contour>
  </outline>
</glyph>
<glyph name="bracketleft" format="2">
  <advance width="230.19217"/>
  <unicode hex="005B"/>
  <outline>
    <contour>
      <point x="32" y="-200" type="curve" smooth="yes"/>
      <point x="214" y="-200" type="line" smooth="yes"/>
      <point x="224" y="-200"/>
      <point x="231" y="-194"/>
      <point x="231" y="-184" type="curve" smooth="yes"/>
      <point x="231" y="-84" type="line" smooth="yes"/>
      <point x="231" y="-75"/>
      <point x="224" y="-68"/>
      <point x="214" y="-68" type="curve" smooth="yes"/>
      <point x="170" y="-68" type="line"/>
      <point x="170" y="621" type="line"/>
      <point x="214" y="621" type="line" smooth="yes"/>
      <point x="224" y="621"/>
      <point x="231" y="627"/>
      <point x="231" y="637" type="curve" smooth="yes"/>
      <point x="231" y="736" type="line" smooth="yes"/>
      <point x="231" y="746"/>
      <point x="224" y="753"/>
      <point x="214" y="753" type="curve" smooth="yes"/>
      <point x="32" y="753" type="line" smooth="yes"/>
      <point x="22" y="753"/>
      <point x="16" y="746"/>
      <point x="16" y="736" type="curve" smooth="yes"/>
      <point x="16" y="-184" type="line" smooth="yes"/>
      <point x="16" y="-194"/>
      <point x="22" y="-200"/>
    </contour>
  </outline>
</glyph>
<glyph name="backslash" format="2">
  <advance width="372.86037"/>
  <unicode hex="005C"/>
  <outline>
    <contour>
      <point x="221" y="0" type="curve" smooth="yes"/>
      <point x="351" y="0" type="line" smooth="yes"/>
      <point x="362" y="0"/>
      <point x="365" y="7"/>
      <point x="361" y="18" type="curve" smooth="yes"/>
      <point x="167" y="643" type="line" smooth="yes"/>
      <point x="165" y="650"/>
      <point x="158" y="655"/>
      <point x="152" y="655" type="curve" smooth="yes"/>
      <point x="21" y="655" type="line" smooth="yes"/>
      <point x="11" y="655"/>
      <point x="8" y="648"/>
      <point x="12" y="637" type="curve" smooth="yes"/>
      <point x="206" y="12" type="line" smooth="yes"/>
      <point x="208" y="4"/>
      <point x="214" y="0"/>
    </contour>
  </outline>
</glyph>
<glyph name="bracketright" format="2">
  <advance width="230.19217"/>
  <unicode hex="005D"/>
  <outline>
    <contour>
      <point x="16" y="-200" type="curve" smooth="yes"/>
      <point x="198" y="-200" type="line" smooth="yes"/>
      <point x="208" y="-200"/>
      <point x="215" y="-194"/>
      <point x="215" y="-184" type="curve" smooth="yes"/>
      <point x="215" y="736" type="line" smooth="yes"/>
      <point x="215" y="746"/>
      <point x="208" y="753"/>
      <point x="198" y="753" type="curve" smooth="yes"/>
      <point x="16" y="753" type="line" smooth="yes"/>
      <point x="6" y="753"/>
      <point x="-1" y="746"/>
      <point x="-1" y="736" type="curve" smooth="yes"/>
      <point x="-1" y="637" type="line" smooth="yes"/>
      <point x="-1" y="627"/>
      <point x="6" y="621"/>
      <point x="16" y="621" type="curve" smooth="yes"/>
      <point x="60" y="621" type="line"/>
      <point x="60" y="-68" type="line"/>
      <point x="16" y="-68" type="line" smooth="yes"/>
      <point x="6" y="-68"/>
      <point x="-1" y="-75"/>
      <point x="-1" y="-84" type="curve" smooth="yes"/>
      <point x="-1" y="-184" type="line" smooth="yes"/>
      <point x="-1" y="-194"/>
      <point x="6" y="-200"/>
    </contour>
  </outline>
</glyph>
<glyph name="asciicircum" format="2">
  <advance width="425.56596"/>
  <unicode hex="005E"/>
  <outline>
    <contour>
      <point x="30" y="350" type="curve" smooth="yes"/>
      <point x="167" y="350" type="line" smooth="yes"/>
      <point x="175" y="350"/>
      <point x="179" y="353"/>
      <point x="181" y="361" type="curve" smooth="yes"/>
      <point x="215" y="518" type="line"/>
      <point x="243" y="361" type="line" smooth="yes"/>
      <point x="244" y="353"/>
      <point x="251" y="350"/>
      <point x="258" y="350" type="curve" smooth="yes"/>
      <point x="395" y="350" type="line" smooth="yes"/>
      <point x="405" y="350"/>
      <point x="409" y="358"/>
      <point x="405" y="369" type="curve" smooth="yes"/>
      <point x="283" y="672" type="line" smooth="yes"/>
      <point x="279" y="680"/>
      <point x="274" y="683"/>
      <point x="266" y="683" type="curve" smooth="yes"/>
      <point x="160" y="683" type="line" smooth="yes"/>
      <point x="152" y="683"/>
      <point x="146" y="680"/>
      <point x="143" y="672" type="curve" smooth="yes"/>
      <point x="21" y="367" type="line" smooth="yes"/>
      <point x="16" y="356"/>
      <point x="20" y="350"/>
    </contour>
  </outline>
</glyph>
<glyph name="underscore" format="2">
  <advance width="408.6426"/>
  <unicode hex="005F"/>
  <outline>
    <contour>
      <point x="38" y="-186" type="curve" smooth="yes"/>
      <point x="371" y="-186" type="line" smooth="yes"/>
      <point x="381" y="-186"/>
      <point x="387" y="-180"/>
      <point x="387" y="-170" type="curve" smooth="yes"/>
      <point x="387" y="-65" type="line" smooth="yes"/>
      <point x="387" y="-55"/>
      <point x="381" y="-49"/>
      <point x="371" y="-49" type="curve" smooth="yes"/>
      <point x="38" y="-49" type="line" smooth="yes"/>
      <point x="28" y="-49"/>
      <point x="21" y="-55"/>
      <point x="21" y="-65" type="curve" smooth="yes"/>
      <point x="21" y="-170" type="line" smooth="yes"/>
      <point x="21" y="-180"/>
      <point x="28" y="-186"/>
    </contour>
  </outline>
</glyph>
<glyph name="a" format="2">
  <advance width="409.27283"/>
  <unicode hex="0061"/>
  <anchor x="214" y="0" name="bottom"/>
  <anchor x="385" y="10" name="ogonek"/>
  <anchor x="208" y="503" name="top"/>
  <outline>
    <contour>
      <point x="254" y="0" type="curve" smooth="yes"/>
      <point x="381" y="0" type="line" smooth="yes"/>
      <point x="390" y="0"/>
      <point x="394" y="6"/>
      <point x="393" y="16" type="curve" smooth="yes"/>
      <point x="391" y="41"/>
      <point x="390" y="69"/>
      <point x="390" y="135" type="curve" smooth="yes"/>
      <point x="390" y="352" type="line" smooth="yes"/>
      <point x="390" y="458"/>
      <point x="331" y="509"/>
      <point x="205" y="509" type="curve" smooth="yes"/>
      <point x="81" y="509"/>
      <point x="19" y="450"/>
      <point x="26" y="339" type="curve" smooth="yes"/>
      <point x="27" y="329"/>
      <point x="33" y="323"/>
      <point x="40" y="323" type="curve" smooth="yes"/>
      <point x="171" y="323" type="line" smooth="yes"/>
      <point x="181" y="323"/>
      <point x="187" y="329"/>
      <point x="185" y="338" type="curve" smooth="yes"/>
      <point x="181" y="367"/>
      <point x="185" y="381"/>
      <point x="198" y="381" type="curve" smooth="yes"/>
      <point x="208" y="381"/>
      <point x="210" y="377"/>
      <point x="210" y="358" type="curve" smooth="yes"/>
      <point x="210" y="117" type="line"/>
      <point x="231" y="92" type="line"/>
      <point x="232" y="64"/>
      <point x="235" y="29"/>
      <point x="238" y="13" type="curve" smooth="yes"/>
      <point x="240" y="3"/>
      <point x="244" y="0"/>
    </contour>
    <contour>
      <point x="109" y="-6" type="curve" smooth="yes"/>
      <point x="164" y="-6"/>
      <point x="201" y="16"/>
      <point x="250" y="80" type="curve"/>
      <point x="233" y="160" type="line"/>
      <point x="222" y="137"/>
      <point x="208" y="123"/>
      <point x="195" y="123" type="curve" smooth="yes"/>
      <point x="181" y="123"/>
      <point x="176" y="134"/>
      <point x="176" y="162" type="curve" smooth="yes"/>
      <point x="176" y="189"/>
      <point x="183" y="204"/>
      <point x="203" y="207" type="curve" smooth="yes"/>
      <point x="218" y="209" type="line"/>
      <point x="219" y="300" type="line"/>
      <point x="156" y="290" type="line" smooth="yes"/>
      <point x="49" y="275"/>
      <point x="8" y="229"/>
      <point x="8" y="132" type="curve" smooth="yes"/>
      <point x="8" y="45"/>
      <point x="46" y="-6"/>
    </contour>
  </outline>
</glyph>
<glyph name="b" format="2">
  <advance width="418"/>
  <unicode hex="0062"/>
  <outline>
    <contour>
      <point x="226" y="-6" type="curve" smooth="yes"/>
      <point x="343" y="-6"/>
      <point x="399" y="46"/>
      <point x="399" y="146" type="curve" smooth="yes"/>
      <point x="399" y="386" type="line" smooth="yes"/>
      <point x="399" y="473"/>
      <point x="371" y="509"/>
      <point x="302" y="509" type="curve" smooth="yes"/>
      <point x="269" y="509"/>
      <point x="240" y="497"/>
      <point x="183" y="456" type="curve"/>
      <point x="190" y="353" type="line"/>
      <point x="191" y="350"/>
      <point x="200" y="356"/>
      <point x="210" y="356" type="curve" smooth="yes"/>
      <point x="217" y="356"/>
      <point x="219" y="353"/>
      <point x="219" y="346" type="curve" smooth="yes"/>
      <point x="219" y="148" type="line" smooth="yes"/>
      <point x="219" y="143"/>
      <point x="215" y="136"/>
      <point x="209" y="136" type="curve" smooth="yes"/>
      <point x="205" y="136"/>
      <point x="201" y="136"/>
      <point x="199" y="138" type="curve"/>
      <point x="199" y="668" type="line" smooth="yes"/>
      <point x="199" y="677"/>
      <point x="194" y="683"/>
      <point x="186" y="683" type="curve" smooth="yes"/>
      <point x="32" y="683" type="line" smooth="yes"/>
      <point x="25" y="683"/>
      <point x="19" y="677"/>
      <point x="19" y="668" type="curve" smooth="yes"/>
      <point x="19" y="13" type="line"/>
      <point x="78" y="8"/>
      <point x="143" y="-6"/>
    </contour>
  </outline>
</glyph>
<glyph name="c" format="2">
  <advance width="408.62626"/>
  <unicode hex="0063"/>
  <anchor x="212" y="0" name="bottom"/>
  <anchor x="290" y="10" name="ogonek"/>
  <anchor x="204" y="503" name="top"/>
  <outline>
    <contour>
      <point x="211" y="-6" type="curve" smooth="yes"/>
      <point x="337" y="-6"/>
      <point x="395" y="62"/>
      <point x="390" y="204" type="curve" smooth="yes"/>
      <point x="390" y="213"/>
      <point x="384.006" y="219"/>
      <point x="376" y="219" type="curve" smooth="yes"/>
      <point x="243" y="219" type="line" smooth="yes"/>
      <point x="236" y="219"/>
      <point x="230" y="212"/>
      <point x="230" y="204" type="curve" smooth="yes"/>
      <point x="230" y="160"/>
      <point x="228" y="147"/>
      <point x="212" y="147" type="curve" smooth="yes"/>
      <point x="199" y="147"/>
      <point x="196" y="155"/>
      <point x="196" y="185" type="curve" smooth="yes"/>
      <point x="196" y="325" type="line" smooth="yes"/>
      <point x="196" y="348"/>
      <point x="200" y="356"/>
      <point x="213" y="356" type="curve" smooth="yes"/>
      <point x="230" y="356"/>
      <point x="231" y="348"/>
      <point x="229" y="300" type="curve" smooth="yes"/>
      <point x="230" y="292"/>
      <point x="237" y="285"/>
      <point x="244" y="285" type="curve" smooth="yes"/>
      <point x="374" y="285" type="line" smooth="yes"/>
      <point x="383" y="285"/>
      <point x="389" y="292"/>
      <point x="390" y="303" type="curve" smooth="yes"/>
      <point x="404" y="422"/>
      <point x="330" y="509"/>
      <point x="210" y="509" type="curve" smooth="yes"/>
      <point x="87" y="509"/>
      <point x="17" y="445"/>
      <point x="17" y="327" type="curve" smooth="yes"/>
      <point x="17" y="185" type="line" smooth="yes"/>
      <point x="17" y="59"/>
      <point x="85" y="-6"/>
    </contour>
  </outline>
</glyph>
<glyph name="d" format="2">
  <advance width="418.8289"/>
  <unicode hex="0064"/>
  <anchor x="209" y="0" name="bottom"/>
  <anchor x="209" y="251" name="center"/>
  <anchor x="209" y="503" name="top"/>
  <anchor x="399" y="503" name="topright"/>
  <outline>
    <contour>
      <point x="117" y="-6" type="curve" smooth="yes"/>
      <point x="173" y="-6"/>
      <point x="232" y="36"/>
      <point x="256" y="86" type="curve"/>
      <point x="225" y="151" type="line"/>
      <point x="221" y="147"/>
      <point x="217" y="147"/>
      <point x="209" y="147" type="curve" smooth="yes"/>
      <point x="202" y="147"/>
      <point x="199" y="150"/>
      <point x="199" y="156" type="curve" smooth="yes"/>
      <point x="199" y="354" type="line" smooth="yes"/>
      <point x="199" y="362"/>
      <point x="202" y="366"/>
      <point x="210" y="366" type="curve" smooth="yes"/>
      <point x="216" y="366"/>
      <point x="223" y="366"/>
      <point x="234" y="364" type="curve"/>
      <point x="234" y="484" type="line"/>
      <point x="203" y="501"/>
      <point x="163" y="509"/>
      <point x="126" y="509" type="curve" smooth="yes"/>
      <point x="52" y="509"/>
      <point x="19" y="462"/>
      <point x="19" y="363" type="curve" smooth="yes"/>
      <point x="19" y="125" type="line" smooth="yes"/>
      <point x="19" y="31"/>
      <point x="47" y="-6"/>
    </contour>
    <contour>
      <point x="263" y="0" type="curve" smooth="yes"/>
      <point x="391" y="0" type="line" smooth="yes"/>
      <point x="399" y="0"/>
      <point x="404" y="5"/>
      <point x="403" y="16" type="curve" smooth="yes"/>
      <point x="399" y="51"/>
      <point x="400" y="94"/>
      <point x="400" y="135" type="curve" smooth="yes"/>
      <point x="400" y="668" type="line" smooth="yes"/>
      <point x="400" y="676"/>
      <point x="394" y="683"/>
      <point x="386" y="683" type="curve" smooth="yes"/>
      <point x="234" y="683" type="line" smooth="yes"/>
      <point x="225" y="683"/>
      <point x="220" y="676"/>
      <point x="220" y="668" type="curve" smooth="yes"/>
      <point x="220" y="125" type="line"/>
      <point x="240" y="92" type="line"/>
      <point x="242" y="65"/>
      <point x="243" y="30"/>
      <point x="248" y="13" type="curve" smooth="yes"/>
      <point x="250" y="2"/>
      <point x="253" y="0"/>
    </contour>
  </outline>
</glyph>
<glyph name="f" format="2">
  <advance width="320.33577"/>
  <unicode hex="0066"/>
  <anchor x="164" y="0" name="bottom"/>
  <anchor x="164" y="499" name="top"/>
  <outline>
    <contour>
      <point x="79" y="0" type="curve" smooth="yes"/>
      <point x="232" y="0" type="line" smooth="yes"/>
      <point x="240" y="0"/>
      <point x="246" y="7"/>
      <point x="246" y="15" type="curve" smooth="yes"/>
      <point x="246" y="350" type="line"/>
      <point x="291" y="350" type="line" smooth="yes"/>
      <point x="302" y="350"/>
      <point x="306" y="357"/>
      <point x="306" y="365" type="curve" smooth="yes"/>
      <point x="306" y="488" type="line" smooth="yes"/>
      <point x="306" y="496"/>
      <point x="302" y="503"/>
      <point x="291" y="503" type="curve" smooth="yes"/>
      <point x="246" y="503" type="line"/>
      <point x="246" y="513" type="line" smooth="yes"/>
      <point x="246" y="536"/>
      <point x="256" y="550"/>
      <point x="277" y="550" type="curve" smooth="yes"/>
      <point x="295" y="550"/>
      <point x="312" y="546"/>
      <point x="326" y="543" type="curve" smooth="yes"/>
      <point x="332" y="541"/>
      <point x="336" y="544"/>
      <point x="336" y="556" type="curve" smooth="yes"/>
      <point x="336" y="665" type="line" smooth="yes"/>
      <point x="336" y="672"/>
      <point x="335" y="675"/>
      <point x="330" y="677" type="curve" smooth="yes"/>
      <point x="311" y="683"/>
      <point x="266" y="689"/>
      <point x="215" y="689" type="curve" smooth="yes"/>
      <point x="113" y="689"/>
      <point x="66" y="631"/>
      <point x="66" y="521" type="curve" smooth="yes"/>
      <point x="66" y="503" type="line"/>
      <point x="24" y="503" type="line" smooth="yes"/>
      <point x="13" y="503"/>
      <point x="8" y="496"/>
      <point x="8" y="489" type="curve" smooth="yes"/>
      <point x="8" y="365" type="line" smooth="yes"/>
      <point x="8" y="357"/>
      <point x="13" y="350"/>
      <point x="24" y="350" type="curve" smooth="yes"/>
      <point x="66" y="350" type="line"/>
      <point x="66" y="15" type="line" smooth="yes"/>
      <point x="66" y="7"/>
      <point x="73" y="0"/>
    </contour>
  </outline>
</glyph>
<glyph name="g" format="2">
  <advance width="417.0466"/>
  <unicode hex="0067"/>
  <anchor x="204" y="0" name="bottom"/>
  <anchor x="204" y="503" name="top"/>
  <outline>
    <contour>
      <point x="196" y="-191" type="curve" smooth="yes"/>
      <point x="355" y="-191"/>
      <point x="421" y="-143"/>
      <point x="421" y="-34" type="curve" smooth="yes"/>
      <point x="421" y="70"/>
      <point x="383" y="114"/>
      <point x="286" y="125" type="curve" smooth="yes"/>
      <point x="194" y="135" type="line" smooth="yes"/>
      <point x="170" y="138"/>
      <point x="167" y="141"/>
      <point x="167" y="148" type="curve" smooth="yes"/>
      <point x="167" y="152"/>
      <point x="172" y="160"/>
      <point x="187" y="163" type="curve"/>
      <point x="95" y="201" type="line"/>
      <point x="42" y="179"/>
      <point x="19" y="145"/>
      <point x="19" y="100" type="curve" smooth="yes"/>
      <point x="19" y="40"/>
      <point x="52" y="4"/>
      <point x="117" y="-2" type="curve" smooth="yes"/>
      <point x="218" y="-12" type="line" smooth="yes"/>
      <point x="246" y="-14"/>
      <point x="253" y="-19"/>
      <point x="253" y="-36" type="curve" smooth="yes"/>
      <point x="253" y="-53"/>
      <point x="242" y="-59"/>
      <point x="206" y="-58" type="curve" smooth="yes"/>
      <point x="180" y="-57"/>
      <point x="169" y="-49"/>
      <point x="169" y="-36" type="curve" smooth="yes"/>
      <point x="169" y="-23"/>
      <point x="175" y="-15"/>
      <point x="191" y="-2" type="curve"/>
      <point x="69" y="27" type="line"/>
      <point x="15" y="1"/>
      <point x="-8" y="-33"/>
      <point x="-8" y="-84" type="curve" smooth="yes"/>
      <point x="-8" y="-158"/>
      <point x="54" y="-191"/>
    </contour>
    <contour>
      <point x="206" y="152" type="curve" smooth="yes"/>
      <point x="336" y="152"/>
      <point x="383" y="205"/>
      <point x="383" y="335" type="curve" smooth="yes"/>
      <point x="383" y="455"/>
      <point x="336" y="509"/>
      <point x="206" y="509" type="curve" smooth="yes"/>
      <point x="77" y="509"/>
      <point x="29" y="455"/>
      <point x="29" y="335" type="curve" smooth="yes"/>
      <point x="29" y="205"/>
      <point x="77" y="152"/>
    </contour>
    <contour>
      <point x="206" y="281" type="curve" smooth="yes"/>
      <point x="195" y="281"/>
      <point x="193" y="286"/>
      <point x="193" y="329" type="curve" smooth="yes"/>
      <point x="193" y="372"/>
      <point x="195" y="378"/>
      <point x="206" y="378" type="curve" smooth="yes"/>
      <point x="219" y="378"/>
      <point x="220" y="373"/>
      <point x="220" y="329" type="curve" smooth="yes"/>
      <point x="220" y="285"/>
      <point x="219" y="281"/>
    </contour>
    <contour>
      <point x="338" y="457" type="line"/>
      <point x="338" y="494"/>
      <point x="346" y="538"/>
      <point x="359" y="612" type="curve" smooth="yes"/>
      <point x="361" y="624"/>
      <point x="358" y="628"/>
      <point x="347" y="628" type="curve" smooth="yes"/>
      <point x="241" y="628" type="line" smooth="yes"/>
      <point x="235" y="628"/>
      <point x="231" y="624"/>
      <point x="230" y="616" type="curve" smooth="yes"/>
      <point x="226" y="581"/>
      <point x="225" y="537"/>
      <point x="228" y="497" type="curve"/>
    </contour>
  </outline>
</glyph>
<glyph name="h" format="2">
  <advance width="420.5371"/>
  <unicode hex="0068"/>
  <anchor x="207" y="0" name="bottom"/>
  <anchor x="212" y="250" name="center"/>
  <anchor x="229" y="523" name="top"/>
  <outline>
    <contour>
      <point x="234" y="0" type="curve" smooth="yes"/>
      <point x="388" y="0" type="line" smooth="yes"/>
      <point x="396" y="0"/>
      <point x="401" y="7"/>
      <point x="401" y="15" type="curve" smooth="yes"/>
      <point x="401" y="373" type="line" smooth="yes"/>
      <point x="401" y="469"/>
      <point x="373" y="509"/>
      <point x="306" y="509" type="curve" smooth="yes"/>
      <point x="245" y="509"/>
      <point x="193" y="465"/>
      <point x="166" y="420" type="curve"/>
      <point x="197" y="355" type="line"/>
      <point x="199" y="355"/>
      <point x="204" y="356"/>
      <point x="209" y="356" type="curve" smooth="yes"/>
      <point x="218" y="356"/>
      <point x="221" y="353"/>
      <point x="221" y="341" type="curve" smooth="yes"/>
      <point x="221" y="15" type="line" smooth="yes"/>
      <point x="221" y="7"/>
      <point x="227" y="0"/>
    </contour>
    <contour>
      <point x="32" y="0" type="curve" smooth="yes"/>
      <point x="186" y="0" type="line" smooth="yes"/>
      <point x="194" y="0"/>
      <point x="199" y="7"/>
      <point x="199" y="15" type="curve" smooth="yes"/>
      <point x="199" y="668" type="line" smooth="yes"/>
      <point x="199" y="676"/>
      <point x="194" y="683"/>
      <point x="186" y="683" type="curve" smooth="yes"/>
      <point x="32" y="683" type="line" smooth="yes"/>
      <point x="25" y="683"/>
      <point x="19" y="676"/>
      <point x="19" y="668" type="curve" smooth="yes"/>
      <point x="19" y="15" type="line" smooth="yes"/>
      <point x="19" y="7"/>
      <point x="25" y="0"/>
    </contour>
  </outline>
</glyph>
<glyph name="k" format="2">
  <advance width="451.225"/>
  <unicode hex="006B"/>
  <anchor x="232" y="0" name="bottom"/>
  <anchor x="227" y="499" name="top"/>
  <outline>
    <contour>
      <point x="32" y="0" type="curve" smooth="yes"/>
      <point x="186" y="0" type="line" smooth="yes"/>
      <point x="194" y="0"/>
      <point x="199" y="7"/>
      <point x="199" y="15" type="curve" smooth="yes"/>
      <point x="199" y="119" type="line"/>
      <point x="204" y="131" type="line"/>
      <point x="248" y="10" type="line"/>
      <point x="250" y="3"/>
      <point x="257" y="0"/>
      <point x="265" y="0" type="curve" smooth="yes"/>
      <point x="439" y="0" type="line" smooth="yes"/>
      <point x="449" y="0"/>
      <point x="452" y="8"/>
      <point x="446" y="19" type="curve"/>
      <point x="332" y="268" type="line"/>
      <point x="441" y="486" type="line"/>
      <point x="447" y="495"/>
      <point x="445" y="503"/>
      <point x="434" y="503" type="curve" smooth="yes"/>
      <point x="269" y="503" type="line" smooth="yes"/>
      <point x="262" y="503"/>
      <point x="257" y="501"/>
      <point x="254" y="494" type="curve" smooth="yes"/>
      <point x="228" y="430" type="line" smooth="yes"/>
      <point x="213" y="395"/>
      <point x="203" y="359"/>
      <point x="193" y="326" type="curve"/>
      <point x="190" y="326" type="line"/>
      <point x="196" y="374"/>
      <point x="199" y="459"/>
      <point x="199" y="505" type="curve" smooth="yes"/>
      <point x="199" y="668" type="line" smooth="yes"/>
      <point x="199" y="676"/>
      <point x="194" y="683"/>
      <point x="185" y="683" type="curve" smooth="yes"/>
      <point x="32" y="683" type="line" smooth="yes"/>
      <point x="25" y="683"/>
      <point x="19" y="676"/>
      <point x="19" y="668" type="curve" smooth="yes"/>
      <point x="19" y="15" type="line" smooth="yes"/>
      <point x="19" y="7"/>
      <point x="25" y="0"/>
    </contour>
  </outline>
</glyph>
<glyph name="l" format="2">
  <advance width="218.48395"/>
  <unicode hex="006C"/>
  <anchor x="109" y="0" name="bottom"/>
  <anchor x="109" y="251" name="center"/>
  <anchor x="109" y="683" name="top"/>
  <anchor x="198" y="503" name="topright"/>
  <outline>
    <contour>
      <point x="32" y="0" type="curve" smooth="yes"/>
      <point x="186" y="0" type="line" smooth="yes"/>
      <point x="194" y="0"/>
      <point x="199" y="7"/>
      <point x="199" y="15" type="curve" smooth="yes"/>
      <point x="199" y="668" type="line" smooth="yes"/>
      <point x="199" y="676"/>
      <point x="194" y="683"/>
      <point x="186" y="683" type="curve" smooth="yes"/>
      <point x="32" y="683" type="line" smooth="yes"/>
      <point x="25" y="683"/>
      <point x="19" y="676"/>
      <point x="19" y="668" type="curve" smooth="yes"/>
      <point x="19" y="15" type="line" smooth="yes"/>
      <point x="19" y="7"/>
      <point x="25" y="0"/>
    </contour>
  </outline>
</glyph>
<glyph name="m" format="2">
  <advance width="621"/>
  <unicode hex="006D"/>
  <anchor x="301" y="0" name="bottom"/>
  <anchor x="301" y="503" name="top"/>
  <outline>
    <contour>
      <point x="32" y="0" type="curve" smooth="yes"/>
      <point x="185" y="0" type="line" smooth="yes"/>
      <point x="194" y="0"/>
      <point x="199" y="7"/>
      <point x="199" y="15" type="curve" smooth="yes"/>
      <point x="199" y="356" type="line"/>
      <point x="201" y="355"/>
      <point x="207" y="356"/>
      <point x="211" y="356" type="curve" smooth="yes"/>
      <point x="218" y="356"/>
      <point x="220" y="353"/>
      <point x="220" y="344" type="curve" smooth="yes"/>
      <point x="220" y="15" type="line" smooth="yes"/>
      <point x="220" y="7"/>
      <point x="226" y="0"/>
      <point x="233" y="0" type="curve" smooth="yes"/>
      <point x="387" y="0" type="line" smooth="yes"/>
      <point x="395" y="0"/>
      <point x="400" y="7"/>
      <point x="400" y="15" type="curve" smooth="yes"/>
      <point x="400" y="356" type="line"/>
      <point x="402" y="355"/>
      <point x="408" y="356"/>
      <point x="412" y="356" type="curve" smooth="yes"/>
      <point x="419" y="356"/>
      <point x="421" y="353"/>
      <point x="421" y="344" type="curve" smooth="yes"/>
      <point x="421" y="15" type="line" smooth="yes"/>
      <point x="421" y="7"/>
      <point x="427" y="0"/>
      <point x="434" y="0" type="curve" smooth="yes"/>
      <point x="588.007" y="0" type="line" smooth="yes"/>
      <point x="596" y="0"/>
      <point x="601" y="7"/>
      <point x="601" y="15" type="curve" smooth="yes"/>
      <point x="601" y="369" type="line" smooth="yes"/>
      <point x="601" y="467"/>
      <point x="573" y="509"/>
      <point x="501" y="509" type="curve" smooth="yes"/>
      <point x="456" y="509"/>
      <point x="417" y="483"/>
      <point x="389" y="452" type="curve"/>
      <point x="374" y="493"/>
      <point x="347" y="509"/>
      <point x="304" y="509" type="curve" smooth="yes"/>
      <point x="245" y="509"/>
      <point x="209" y="476"/>
      <point x="176" y="437" type="curve"/>
      <point x="175" y="456"/>
      <point x="172" y="481"/>
      <point x="171" y="491" type="curve" smooth="yes"/>
      <point x="170" y="501"/>
      <point x="164" y="503"/>
      <point x="158" y="503" type="curve" smooth="yes"/>
      <point x="28" y="503" type="line" smooth="yes"/>
      <point x="20" y="503"/>
      <point x="15" y="498"/>
      <point x="16" y="487" type="curve" smooth="yes"/>
      <point x="19" y="452"/>
      <point x="19" y="409"/>
      <point x="19" y="368" type="curve" smooth="yes"/>
      <point x="19" y="15" type="line" smooth="yes"/>
      <point x="19" y="7"/>
      <point x="25" y="0"/>
    </contour>
  </outline>
</glyph>
<glyph name="n" format="2">
  <advance width="420.5371"/>
  <unicode hex="006E"/>
  <anchor x="-49" y="499" name="apo"/>
  <anchor x="214" y="0" name="bottom"/>
  <anchor x="214" y="503" name="top"/>
  <outline>
    <contour>
      <point x="236" y="0" type="curve" smooth="yes"/>
      <point x="387.003" y="0" type="line" smooth="yes"/>
      <point x="396" y="0"/>
      <point x="401" y="7"/>
      <point x="401" y="15" type="curve" smooth="yes"/>
      <point x="401" y="373" type="line" smooth="yes"/>
      <point x="401" y="469"/>
      <point x="373" y="509"/>
      <point x="306" y="509" type="curve" smooth="yes"/>
      <point x="245" y="509"/>
      <point x="193" y="465"/>
      <point x="166" y="420" type="curve"/>
      <point x="197" y="355" type="line"/>
      <point x="199" y="355"/>
      <point x="204" y="356"/>
      <point x="209" y="356" type="curve" smooth="yes"/>
      <point x="218" y="356"/>
      <point x="221" y="353"/>
      <point x="221" y="341" type="curve" smooth="yes"/>
      <point x="221" y="15" type="line" smooth="yes"/>
      <point x="221" y="7"/>
      <point x="227" y="0"/>
    </contour>
    <contour>
      <point x="34" y="0" type="curve" smooth="yes"/>
      <point x="185" y="0" type="line" smooth="yes"/>
      <point x="194" y="0"/>
      <point x="199" y="7"/>
      <point x="199" y="15" type="curve" smooth="yes"/>
      <point x="199" y="366" type="line"/>
      <point x="178" y="411" type="line"/>
      <point x="177" y="438"/>
      <point x="174" y="472"/>
      <point x="171" y="490" type="curve" smooth="yes"/>
      <point x="169" y="501"/>
      <point x="165" y="503"/>
      <point x="158" y="503" type="curve" smooth="yes"/>
      <point x="28" y="503" type="line" smooth="yes"/>
      <point x="20" y="503"/>
      <point x="15" y="498"/>
      <point x="16" y="487" type="curve" smooth="yes"/>
      <point x="19" y="452"/>
      <point x="19" y="409"/>
      <point x="19" y="368" type="curve" smooth="yes"/>
      <point x="19" y="15" type="line" smooth="yes"/>
      <point x="19" y="7"/>
      <point x="25" y="0"/>
    </contour>
  </outline>
</glyph>
<glyph name="p" format="2">
  <advance width="419.15154"/>
  <unicode hex="0070"/>
  <anchor x="205" y="0" name="bottom"/>
  <anchor x="205" y="503" name="top"/>
  <outline>
    <contour>
      <point x="286" y="-6" type="curve" smooth="yes"/>
      <point x="366" y="-6"/>
      <point x="400" y="40"/>
      <point x="400" y="149" type="curve" smooth="yes"/>
      <point x="400" y="371" type="line" smooth="yes"/>
      <point x="400" y="467"/>
      <point x="371" y="509"/>
      <point x="308" y="509" type="curve" smooth="yes"/>
      <point x="245" y="509"/>
      <point x="205" y="470"/>
      <point x="164" y="427" type="curve"/>
      <point x="196" y="354" type="line"/>
      <point x="198" y="354"/>
      <point x="204" y="356"/>
      <point x="209" y="356" type="curve" smooth="yes"/>
      <point x="220" y="356"/>
      <point x="220" y="350"/>
      <point x="220" y="340" type="curve" smooth="yes"/>
      <point x="220" y="154" type="line" smooth="yes"/>
      <point x="220" y="139"/>
      <point x="215" y="136"/>
      <point x="206" y="136" type="curve" smooth="yes"/>
      <point x="200" y="136"/>
      <point x="190" y="140"/>
      <point x="181" y="144" type="curve"/>
      <point x="181" y="18" type="line"/>
      <point x="211" y="3"/>
      <point x="255" y="-6"/>
    </contour>
    <contour>
      <point x="32" y="-185" type="curve" smooth="yes"/>
      <point x="185" y="-185" type="line" smooth="yes"/>
      <point x="194" y="-185"/>
      <point x="199" y="-178"/>
      <point x="199" y="-170" type="curve" smooth="yes"/>
      <point x="199" y="364" type="line"/>
      <point x="179" y="407" type="line" smooth="yes"/>
      <point x="178" y="434"/>
      <point x="173" y="471"/>
      <point x="171" y="491" type="curve" smooth="yes"/>
      <point x="170" y="501"/>
      <point x="165" y="503"/>
      <point x="158" y="503" type="curve" smooth="yes"/>
      <point x="28" y="503" type="line" smooth="yes"/>
      <point x="20" y="503"/>
      <point x="15" y="498"/>
      <point x="16" y="487" type="curve" smooth="yes"/>
      <point x="19" y="453"/>
      <point x="19" y="409"/>
      <point x="19" y="367" type="curve" smooth="yes"/>
      <point x="19" y="-170" type="line" smooth="yes"/>
      <point x="19" y="-178"/>
      <point x="25" y="-185"/>
    </contour>
  </outline>
</glyph>
<glyph name="q" format="2">
  <advance width="420"/>
  <unicode hex="0071"/>
  <anchor x="210" y="0" name="bottom"/>
  <anchor x="210" y="503" name="top"/>
  <outline>
    <contour>
      <point x="234" y="-185" type="curve" smooth="yes"/>
      <point x="385" y="-185" type="line" smooth="yes"/>
      <point x="394" y="-185"/>
      <point x="400" y="-178"/>
      <point x="400" y="-170" type="curve" smooth="yes"/>
      <point x="400" y="490" type="line"/>
      <point x="340" y="491"/>
      <point x="274" y="509"/>
      <point x="190" y="509" type="curve" smooth="yes"/>
      <point x="68" y="509"/>
      <point x="19" y="456"/>
      <point x="19" y="354" type="curve" smooth="yes"/>
      <point x="19" y="120" type="line" smooth="yes"/>
      <point x="19" y="35"/>
      <point x="48" y="-6"/>
      <point x="117" y="-6" type="curve" smooth="yes"/>
      <point x="159" y="-6"/>
      <point x="202" y="13"/>
      <point x="231" y="41" type="curve"/>
      <point x="228" y="163" type="line"/>
      <point x="228" y="151"/>
      <point x="220" y="147"/>
      <point x="211" y="147" type="curve" smooth="yes"/>
      <point x="201" y="147"/>
      <point x="199" y="150"/>
      <point x="199" y="157" type="curve" smooth="yes"/>
      <point x="199" y="353" type="line" smooth="yes"/>
      <point x="199" y="362"/>
      <point x="201" y="366"/>
      <point x="209" y="366" type="curve" smooth="yes"/>
      <point x="212" y="366"/>
      <point x="213" y="366"/>
      <point x="220" y="365" type="curve"/>
      <point x="220" y="-170" type="line" smooth="yes"/>
      <point x="220" y="-178"/>
      <point x="225" y="-185"/>
    </contour>
  </outline>
</glyph>
<glyph name="r" format="2">
  <advance width="327.06757"/>
  <unicode hex="0072"/>
  <anchor x="113" y="0" name="bottom"/>
  <anchor x="155" y="503" name="top"/>
  <outline>
    <contour>
      <point x="32" y="0" type="curve" smooth="yes"/>
      <point x="185" y="0" type="line" smooth="yes"/>
      <point x="194" y="0"/>
      <point x="199" y="7"/>
      <point x="199" y="15" type="curve" smooth="yes"/>
      <point x="199" y="366" type="line"/>
      <point x="178" y="411" type="line"/>
      <point x="177" y="438"/>
      <point x="174" y="473"/>
      <point x="171" y="491" type="curve" smooth="yes"/>
      <point x="170" y="501"/>
      <point x="164" y="503"/>
      <point x="158" y="503" type="curve" smooth="yes"/>
      <point x="28" y="503" type="line" smooth="yes"/>
      <point x="20" y="503"/>
      <point x="15" y="497"/>
      <point x="16" y="487" type="curve" smooth="yes"/>
      <point x="19" y="452"/>
      <point x="19" y="409"/>
      <point x="19" y="368" type="curve" smooth="yes"/>
      <point x="19" y="15" type="line" smooth="yes"/>
      <point x="19" y="7"/>
      <point x="25" y="0"/>
    </contour>
    <contour>
      <point x="187" y="291" type="line"/>
      <point x="212" y="316"/>
      <point x="242" y="336"/>
      <point x="271" y="336" type="curve" smooth="yes"/>
      <point x="280" y="336"/>
      <point x="289" y="335"/>
      <point x="297" y="334" type="curve" smooth="yes"/>
      <point x="304" y="333"/>
      <point x="307" y="335"/>
      <point x="308" y="347" type="curve" smooth="yes"/>
      <point x="312" y="391"/>
      <point x="313" y="447"/>
      <point x="313" y="487" type="curve" smooth="yes"/>
      <point x="313" y="496"/>
      <point x="312" y="502"/>
      <point x="303" y="506" type="curve" smooth="yes"/>
      <point x="297" y="508"/>
      <point x="288" y="509"/>
      <point x="280" y="509" type="curve" smooth="yes"/>
      <point x="236" y="509"/>
      <point x="199" y="470"/>
      <point x="172" y="439" type="curve"/>
    </contour>
  </outline>
</glyph>
<glyph name="s" format="2">
  <advance width="393.44595"/>
  <unicode hex="0073"/>
  <anchor x="204" y="0" name="bottom"/>
  <anchor x="190" y="503" name="top"/>
  <outline>
    <contour>
      <point x="187" y="-6" type="curve" smooth="yes"/>
      <point x="317" y="-6"/>
      <point x="378" y="43"/>
      <point x="378" y="144" type="curve" smooth="yes"/>
      <point x="378" y="208"/>
      <point x="347" y="248"/>
      <point x="295" y="283" type="curve" smooth="yes"/>
      <point x="221" y="333" type="line" smooth="yes"/>
      <point x="199" y="348"/>
      <point x="193" y="356"/>
      <point x="193" y="373" type="curve" smooth="yes"/>
      <point x="193" y="383"/>
      <point x="196" y="388"/>
      <point x="203" y="388" type="curve" smooth="yes"/>
      <point x="212" y="388"/>
      <point x="215" y="379"/>
      <point x="213" y="360" type="curve" smooth="yes"/>
      <point x="212" y="351"/>
      <point x="218" y="342"/>
      <point x="228" y="342" type="curve" smooth="yes"/>
      <point x="358" y="342" type="line" smooth="yes"/>
      <point x="368" y="342"/>
      <point x="373" y="348"/>
      <point x="373" y="358" type="curve" smooth="yes"/>
      <point x="372" y="458"/>
      <point x="320" y="509"/>
      <point x="191" y="509" type="curve" smooth="yes"/>
      <point x="69" y="509"/>
      <point x="13" y="461"/>
      <point x="13" y="364" type="curve" smooth="yes"/>
      <point x="13" y="309"/>
      <point x="42" y="272"/>
      <point x="81" y="244" type="curve" smooth="yes"/>
      <point x="161" y="187" type="line" smooth="yes"/>
      <point x="187" y="169"/>
      <point x="198" y="161"/>
      <point x="198" y="136" type="curve" smooth="yes"/>
      <point x="198" y="122"/>
      <point x="194" y="115"/>
      <point x="186" y="115" type="curve" smooth="yes"/>
      <point x="177" y="115"/>
      <point x="174" y="128"/>
      <point x="177" y="153" type="curve" smooth="yes"/>
      <point x="178" y="163"/>
      <point x="173" y="170"/>
      <point x="164" y="170" type="curve" smooth="yes"/>
      <point x="31" y="170" type="line" smooth="yes"/>
      <point x="22" y="170"/>
      <point x="18" y="164"/>
      <point x="17" y="154" type="curve" smooth="yes"/>
      <point x="4" y="45"/>
      <point x="54" y="-6"/>
    </contour>
  </outline>
</glyph>
<glyph name="t" format="2">
  <advance width="350.65973"/>
  <unicode hex="0074"/>
  <anchor x="228" y="0" name="bottom"/>
  <anchor x="190" y="249" name="center"/>
  <anchor x="191" y="503" name="top"/>
  <anchor x="356" y="503" name="topright"/>
  <outline>
    <contour>
      <point x="233" y="-6" type="curve" smooth="yes"/>
      <point x="273" y="-6"/>
      <point x="307" y="-1"/>
      <point x="330" y="9" type="curve" smooth="yes"/>
      <point x="336" y="11"/>
      <point x="341" y="17"/>
      <point x="341" y="25" type="curve" smooth="yes"/>
      <point x="341" y="145" type="line" smooth="yes"/>
      <point x="341" y="156"/>
      <point x="335" y="162"/>
      <point x="325" y="157" type="curve" smooth="yes"/>
      <point x="304" y="149"/>
      <point x="296" y="147"/>
      <point x="282" y="147" type="curve" smooth="yes"/>
      <point x="253" y="147"/>
      <point x="246" y="163"/>
      <point x="246" y="203" type="curve" smooth="yes"/>
      <point x="246" y="350" type="line"/>
      <point x="327" y="350" type="line" smooth="yes"/>
      <point x="334" y="350"/>
      <point x="340" y="357"/>
      <point x="340" y="365" type="curve" smooth="yes"/>
      <point x="340" y="489" type="line" smooth="yes"/>
      <point x="340" y="498"/>
      <point x="334" y="503"/>
      <point x="327" y="503" type="curve" smooth="yes"/>
      <point x="246" y="503" type="line"/>
      <point x="246" y="617" type="line" smooth="yes"/>
      <point x="246" y="627"/>
      <point x="241" y="633"/>
      <point x="233" y="633" type="curve" smooth="yes"/>
      <point x="103" y="633" type="line" smooth="yes"/>
      <point x="95" y="633"/>
      <point x="91" y="628"/>
      <point x="90" y="618" type="curve" smooth="yes"/>
      <point x="72" y="503" type="line"/>
      <point x="21" y="503" type="line" smooth="yes"/>
      <point x="13" y="503"/>
      <point x="8" y="498"/>
      <point x="8" y="489" type="curve" smooth="yes"/>
      <point x="8" y="365" type="line" smooth="yes"/>
      <point x="8" y="357"/>
      <point x="14" y="350"/>
      <point x="21" y="350" type="curve" smooth="yes"/>
      <point x="66" y="350" type="line"/>
      <point x="66" y="189" type="line" smooth="yes"/>
      <point x="66" y="46"/>
      <point x="110" y="-6"/>
    </contour>
  </outline>
</glyph>
<glyph name="u" format="2">
  <advance width="419.55941"/>
  <unicode hex="0075"/>
  <anchor x="202" y="0" name="bottom"/>
  <anchor x="402" y="10" name="ogonek"/>
  <anchor x="210" y="503" name="top"/>
  <anchor x="403" y="499" name="topright"/>
  <outline>
    <contour>
      <point x="118" y="-6" type="curve" smooth="yes"/>
      <point x="170" y="-6"/>
      <point x="225" y="29"/>
      <point x="255" y="83" type="curve"/>
      <point x="224" y="149" type="line"/>
      <point x="222" y="148"/>
      <point x="215" y="147"/>
      <point x="210" y="147" type="curve" smooth="yes"/>
      <point x="201" y="147"/>
      <point x="199" y="153"/>
      <point x="199" y="170" type="curve" smooth="yes"/>
      <point x="199" y="488" type="line" smooth="yes"/>
      <point x="199" y="496"/>
      <point x="194" y="503"/>
      <point x="185" y="503" type="curve" smooth="yes"/>
      <point x="34" y="503" type="line" smooth="yes"/>
      <point x="25" y="503"/>
      <point x="19" y="496"/>
      <point x="19" y="488" type="curve" smooth="yes"/>
      <point x="19" y="131" type="line" smooth="yes"/>
      <point x="19" y="35"/>
      <point x="49" y="-6"/>
    </contour>
    <contour>
      <point x="264" y="0" type="curve" smooth="yes"/>
      <point x="391" y="0" type="line" smooth="yes"/>
      <point x="400" y="0"/>
      <point x="404" y="5"/>
      <point x="403" y="16" type="curve" smooth="yes"/>
      <point x="400" y="51"/>
      <point x="400" y="94"/>
      <point x="400" y="135" type="curve" smooth="yes"/>
      <point x="400" y="488" type="line" smooth="yes"/>
      <point x="400" y="496"/>
      <point x="395" y="503"/>
      <point x="386" y="503" type="curve" smooth="yes"/>
      <point x="236" y="503" type="line" smooth="yes"/>
      <point x="226" y="503"/>
      <point x="220" y="496"/>
      <point x="220" y="488" type="curve" smooth="yes"/>
      <point x="220" y="137" type="line"/>
      <point x="241" y="92" type="line"/>
      <point x="242" y="65"/>
      <point x="245" y="30"/>
      <point x="248" y="13" type="curve" smooth="yes"/>
      <point x="251" y="2"/>
      <point x="254" y="0"/>
    </contour>
  </outline>
</glyph>
<glyph name="v" format="2">
  <advance width="430.46956"/>
  <unicode hex="0076"/>
  <anchor x="215" y="0" name="bottom"/>
  <anchor x="215" y="503" name="top"/>
  <outline>
    <contour>
      <point x="123.009" y="0" type="curve" smooth="yes"/>
      <point x="307" y="0" type="line" smooth="yes"/>
      <point x="314.01" y="0"/>
      <point x="319" y="3"/>
      <point x="322" y="12" type="curve" smooth="yes"/>
      <point x="424" y="487" type="line" smooth="yes"/>
      <point x="426" y="496"/>
      <point x="423" y="503"/>
      <point x="413" y="503" type="curve" smooth="yes"/>
      <point x="248" y="503" type="line" smooth="yes"/>
      <point x="240" y="503"/>
      <point x="234" y="499"/>
      <point x="233" y="491" type="curve" smooth="yes"/>
      <point x="222" y="297" type="line" smooth="yes"/>
      <point x="219" y="256"/>
      <point x="216" y="227"/>
      <point x="215" y="186" type="curve"/>
      <point x="213" y="186" type="line"/>
      <point x="213" y="227"/>
      <point x="211" y="255"/>
      <point x="209" y="296" type="curve" smooth="yes"/>
      <point x="198" y="491" type="line" smooth="yes"/>
      <point x="197" y="499"/>
      <point x="193" y="503"/>
      <point x="184" y="503" type="curve" smooth="yes"/>
      <point x="18" y="503" type="line" smooth="yes"/>
      <point x="8" y="503"/>
      <point x="5" y="496"/>
      <point x="7" y="487" type="curve" smooth="yes"/>
      <point x="108" y="12" type="line" smooth="yes"/>
      <point x="110" y="3"/>
      <point x="115" y="0"/>
    </contour>
  </outline>
</glyph>
<glyph name="w" format="2">
  <advance width="608.28202"/>
  <unicode hex="0077"/>
  <anchor x="304" y="0" name="bottom"/>
  <anchor x="304" y="503" name="top"/>
  <outline>
    <contour>
      <point x="112" y="0" type="curve" smooth="yes"/>
      <point x="274" y="0" type="line" smooth="yes"/>
      <point x="279.996" y="0"/>
      <point x="287" y="5"/>
      <point x="288" y="13" type="curve" smooth="yes"/>
      <point x="292" y="67" type="line" smooth="yes"/>
      <point x="295" y="101"/>
      <point x="297" y="136"/>
      <point x="301" y="203" type="curve"/>
      <point x="305" y="203" type="line"/>
      <point x="309" y="136"/>
      <point x="311" y="102"/>
      <point x="314" y="68" type="curve" smooth="yes"/>
      <point x="319" y="12" type="line" smooth="yes"/>
      <point x="320" y="5"/>
      <point x="327" y="0"/>
      <point x="335" y="0" type="curve" smooth="yes"/>
      <point x="497" y="0" type="line" smooth="yes"/>
      <point x="503" y="0"/>
      <point x="510" y="3"/>
      <point x="512" y="12" type="curve" smooth="yes"/>
      <point x="599" y="487" type="line" smooth="yes"/>
      <point x="602" y="496"/>
      <point x="598" y="503"/>
      <point x="588" y="503" type="curve" smooth="yes"/>
      <point x="425" y="503" type="line" smooth="yes"/>
      <point x="417" y="503"/>
      <point x="412" y="499"/>
      <point x="411" y="490" type="curve" smooth="yes"/>
      <point x="405" y="322" type="line" smooth="yes"/>
      <point x="403" y="278"/>
      <point x="401" y="234"/>
      <point x="399" y="190" type="curve"/>
      <point x="397" y="190" type="line"/>
      <point x="393" y="234"/>
      <point x="390" y="277"/>
      <point x="387" y="321" type="curve" smooth="yes"/>
      <point x="379" y="478" type="line" smooth="yes"/>
      <point x="378" y="488"/>
      <point x="373" y="491"/>
      <point x="365" y="491" type="curve" smooth="yes"/>
      <point x="230" y="491" type="line" smooth="yes"/>
      <point x="221" y="491"/>
      <point x="217" y="485"/>
      <point x="218" y="474" type="curve" smooth="yes"/>
      <point x="228" y="377" type="line"/>
      <point x="224" y="324" type="line" smooth="yes"/>
      <point x="220" y="279"/>
      <point x="215" y="235"/>
      <point x="211" y="190" type="curve"/>
      <point x="209" y="190" type="line"/>
      <point x="206" y="235"/>
      <point x="205" y="280"/>
      <point x="203" y="325" type="curve" smooth="yes"/>
      <point x="196" y="490" type="line" smooth="yes"/>
      <point x="195" y="500"/>
      <point x="189" y="503"/>
      <point x="182" y="503" type="curve" smooth="yes"/>
      <point x="20" y="503" type="line" smooth="yes"/>
      <point x="9" y="503"/>
      <point x="7" y="496"/>
      <point x="9" y="487" type="curve" smooth="yes"/>
      <point x="97" y="12" type="line" smooth="yes"/>
      <point x="99" y="3"/>
      <point x="104" y="0"/>
    </contour>
  </outline>
</glyph>
<glyph name="x" format="2">
  <advance width="454.63548"/>
  <unicode hex="0078"/>
  <anchor x="228" y="0" name="bottom"/>
  <anchor x="228" y="503" name="top"/>
  <outline>
    <contour>
      <point x="22" y="0" type="curve" smooth="yes"/>
      <point x="195" y="0" type="line" smooth="yes"/>
      <point x="205" y="0"/>
      <point x="209" y="1"/>
      <point x="210" y="10" type="curve" smooth="yes"/>
      <point x="216" y="64" type="line" smooth="yes"/>
      <point x="220" y="88"/>
      <point x="223" y="111"/>
      <point x="227" y="170" type="curve"/>
      <point x="229" y="170" type="line"/>
      <point x="233" y="111"/>
      <point x="236" y="87"/>
      <point x="240" y="64" type="curve" smooth="yes"/>
      <point x="245" y="10" type="line" smooth="yes"/>
      <point x="245" y="2"/>
      <point x="250" y="0"/>
      <point x="260" y="0" type="curve" smooth="yes"/>
      <point x="433" y="0" type="line" smooth="yes"/>
      <point x="444" y="0"/>
      <point x="449" y="7"/>
      <point x="443" y="19" type="curve" smooth="yes"/>
      <point x="336" y="258" type="line"/>
      <point x="435" y="486" type="line" smooth="yes"/>
      <point x="439" y="497"/>
      <point x="436" y="503"/>
      <point x="425" y="503" type="curve" smooth="yes"/>
      <point x="252" y="503" type="line" smooth="yes"/>
      <point x="245" y="503"/>
      <point x="239" y="501"/>
      <point x="238" y="492" type="curve" smooth="yes"/>
      <point x="236" y="442" type="line" smooth="yes"/>
      <point x="233" y="419"/>
      <point x="232" y="398"/>
      <point x="229" y="334" type="curve"/>
      <point x="227" y="334" type="line"/>
      <point x="224" y="398"/>
      <point x="221" y="419"/>
      <point x="219" y="442" type="curve" smooth="yes"/>
      <point x="213" y="493" type="line" smooth="yes"/>
      <point x="212" y="501"/>
      <point x="207" y="503"/>
      <point x="199" y="503" type="curve" smooth="yes"/>
      <point x="27" y="503" type="line" smooth="yes"/>
      <point x="16" y="503"/>
      <point x="13" y="497"/>
      <point x="17" y="486" type="curve" smooth="yes"/>
      <point x="118" y="257" type="line"/>
      <point x="12" y="19" type="line" smooth="yes"/>
      <point x="6" y="7"/>
      <point x="11" y="0"/>
    </contour>
  </outline>
</glyph>
<glyph name="y" format="2">
  <advance width="424.73775"/>
  <unicode hex="0079"/>
  <anchor x="214" y="0" name="bottom"/>
  <anchor x="215" y="503" name="top"/>
  <outline>
    <contour>
      <point x="101" y="-185" type="curve" smooth="yes"/>
      <point x="247" y="-185" type="line" smooth="yes"/>
      <point x="255" y="-185"/>
      <point x="260" y="-182"/>
      <point x="262" y="-173" type="curve"/>
      <point x="418" y="487" type="line" smooth="yes"/>
      <point x="420" y="498"/>
      <point x="417" y="503"/>
      <point x="407" y="503" type="curve" smooth="yes"/>
      <point x="243" y="503" type="line" smooth="yes"/>
      <point x="234" y="503"/>
      <point x="230" y="500"/>
      <point x="229" y="491" type="curve" smooth="yes"/>
      <point x="220" y="363" type="line" smooth="yes"/>
      <point x="217" y="325"/>
      <point x="216" y="264"/>
      <point x="215" y="221" type="curve"/>
      <point x="211" y="221" type="line"/>
      <point x="209" y="264"/>
      <point x="205" y="325"/>
      <point x="204" y="363" type="curve" smooth="yes"/>
      <point x="200" y="489" type="line" smooth="yes"/>
      <point x="199" y="500"/>
      <point x="193" y="503"/>
      <point x="184" y="503" type="curve" smooth="yes"/>
      <point x="18" y="503" type="line" smooth="yes"/>
      <point x="8" y="503"/>
      <point x="5" y="496"/>
      <point x="7" y="486" type="curve" smooth="yes"/>
      <point x="126" y="-4" type="line"/>
      <point x="90" y="-168" type="line" smooth="yes"/>
      <point x="88" y="-179"/>
      <point x="91" y="-185"/>
    </contour>
  </outline>
</glyph>
<glyph name="z" format="2">
  <advance width="395.46694"/>
  <unicode hex="007A"/>
  <anchor x="195" y="0" name="bottom"/>
  <anchor x="200" y="503" name="top"/>
  <outline>
    <contour>
      <point x="26" y="0" type="curve" smooth="yes"/>
      <point x="349" y="0" type="line" smooth="yes"/>
      <point x="357" y="0"/>
      <point x="363" y="7"/>
      <point x="363" y="15" type="curve" smooth="yes"/>
      <point x="363" y="138" type="line" smooth="yes"/>
      <point x="363" y="148"/>
      <point x="357" y="153"/>
      <point x="349" y="153" type="curve" smooth="yes"/>
      <point x="292" y="153" type="line" smooth="yes"/>
      <point x="274" y="153"/>
      <point x="268" y="153"/>
      <point x="243" y="151" type="curve"/>
      <point x="243" y="153" type="line"/>
      <point x="260" y="183"/>
      <point x="273" y="214"/>
      <point x="285" y="243" type="curve" smooth="yes"/>
      <point x="372" y="451" type="line" smooth="yes"/>
      <point x="379" y="467"/>
      <point x="383" y="478"/>
      <point x="383" y="487" type="curve" smooth="yes"/>
      <point x="383" y="492" type="line" smooth="yes"/>
      <point x="383" y="499"/>
      <point x="378" y="503"/>
      <point x="368" y="503" type="curve" smooth="yes"/>
      <point x="47" y="503" type="line" smooth="yes"/>
      <point x="38" y="503"/>
      <point x="33" y="498"/>
      <point x="33" y="489" type="curve" smooth="yes"/>
      <point x="33" y="365" type="line" smooth="yes"/>
      <point x="33" y="355"/>
      <point x="38" y="350"/>
      <point x="47" y="350" type="curve" smooth="yes"/>
      <point x="108" y="350" type="line" smooth="yes"/>
      <point x="117" y="350"/>
      <point x="125" y="350"/>
      <point x="151" y="352" type="curve"/>
      <point x="151" y="350" type="line"/>
      <point x="136" y="321"/>
      <point x="122" y="290"/>
      <point x="110" y="261" type="curve" smooth="yes"/>
      <point x="17" y="38" type="line" smooth="yes"/>
      <point x="14" y="31"/>
      <point x="13" y="24"/>
      <point x="13" y="16" type="curve" smooth="yes"/>
      <point x="13" y="12" type="line" smooth="yes"/>
      <point x="13" y="3"/>
      <point x="18" y="0"/>
    </contour>
  </outline>
</glyph>
<glyph name="braceleft" format="2">
  <advance width="275.84399"/>
  <unicode hex="007B"/>
  <outline>
    <contour>
      <point x="257" y="-200" type="curve" smooth="yes"/>
      <point x="267" y="-200"/>
      <point x="273" y="-193"/>
      <point x="273" y="-184" type="curve" smooth="yes"/>
      <point x="273" y="-84" type="line" smooth="yes"/>
      <point x="273" y="-74"/>
      <point x="267" y="-68"/>
      <point x="257" y="-68" type="curve" smooth="yes"/>
      <point x="217" y="-68"/>
      <point x="209" y="-49"/>
      <point x="209" y="-5" type="curve" smooth="yes"/>
      <point x="209" y="134" type="line" smooth="yes"/>
      <point x="209" y="204"/>
      <point x="193" y="264"/>
      <point x="138" y="277" type="curve"/>
      <point x="193" y="290"/>
      <point x="209" y="351"/>
      <point x="209" y="421" type="curve" smooth="yes"/>
      <point x="209" y="560" type="line" smooth="yes"/>
      <point x="209" y="604"/>
      <point x="217" y="623"/>
      <point x="257" y="623" type="curve" smooth="yes"/>
      <point x="267" y="623"/>
      <point x="273" y="629"/>
      <point x="273" y="639" type="curve" smooth="yes"/>
      <point x="273" y="739" type="line" smooth="yes"/>
      <point x="273" y="748"/>
      <point x="267" y="755"/>
      <point x="257" y="755" type="curve" smooth="yes"/>
      <point x="119" y="755"/>
      <point x="54" y="706"/>
      <point x="54" y="546" type="curve" smooth="yes"/>
      <point x="54" y="381" type="line" smooth="yes"/>
      <point x="54" y="358"/>
      <point x="51" y="348"/>
      <point x="34" y="348" type="curve" smooth="yes"/>
      <point x="23" y="348" type="line" smooth="yes"/>
      <point x="13" y="348"/>
      <point x="7" y="342"/>
      <point x="7" y="332" type="curve" smooth="yes"/>
      <point x="7" y="223" type="line" smooth="yes"/>
      <point x="7" y="213"/>
      <point x="13" y="207"/>
      <point x="23" y="207" type="curve" smooth="yes"/>
      <point x="34" y="207" type="line" smooth="yes"/>
      <point x="51" y="207"/>
      <point x="54" y="197"/>
      <point x="54" y="174" type="curve" smooth="yes"/>
      <point x="54" y="9" type="line" smooth="yes"/>
      <point x="54" y="-151"/>
      <point x="119" y="-200"/>
    </contour>
  </outline>
</glyph>
<glyph name="bar" format="2">
  <advance width="226.28983"/>
  <unicode hex="007C"/>
  <outline>
    <contour>
      <point x="53" y="-185" type="curve" smooth="yes"/>
      <point x="173" y="-185" type="line" smooth="yes"/>
      <point x="183" y="-185"/>
      <point x="190" y="-178"/>
      <point x="190" y="-169" type="curve" smooth="yes"/>
      <point x="190" y="814" type="line" smooth="yes"/>
      <point x="190" y="823"/>
      <point x="183" y="830"/>
      <point x="173" y="830" type="curve" smooth="yes"/>
      <point x="53" y="830" type="line" smooth="yes"/>
      <point x="43" y="830"/>
      <point x="37" y="823"/>
      <point x="37" y="814" type="curve" smooth="yes"/>
      <point x="37" y="-169" type="line" smooth="yes"/>
      <point x="37" y="-178"/>
      <point x="43" y="-185"/>
    </contour>
  </outline>
</glyph>
<glyph name="braceright" format="2">
  <advance width="275.84399"/>
  <unicode hex="007D"/>
  <outline>
    <contour>
      <point x="19" y="-200" type="curve" smooth="yes"/>
      <point x="157" y="-200"/>
      <point x="222" y="-151"/>
      <point x="222" y="9" type="curve" smooth="yes"/>
      <point x="222" y="174" type="line" smooth="yes"/>
      <point x="222" y="197"/>
      <point x="225" y="207"/>
      <point x="242" y="207" type="curve" smooth="yes"/>
      <point x="253" y="207" type="line" smooth="yes"/>
      <point x="263" y="207"/>
      <point x="269" y="213"/>
      <point x="269" y="223" type="curve" smooth="yes"/>
      <point x="269" y="332" type="line" smooth="yes"/>
      <point x="269" y="342"/>
      <point x="263" y="348"/>
      <point x="253" y="348" type="curve" smooth="yes"/>
      <point x="242" y="348" type="line" smooth="yes"/>
      <point x="225" y="348"/>
      <point x="222" y="358"/>
      <point x="222" y="381" type="curve" smooth="yes"/>
      <point x="222" y="546" type="line" smooth="yes"/>
      <point x="222" y="706"/>
      <point x="157" y="755"/>
      <point x="19" y="755" type="curve" smooth="yes"/>
      <point x="9" y="755"/>
      <point x="3" y="748"/>
      <point x="3" y="739" type="curve" smooth="yes"/>
      <point x="3" y="639" type="line" smooth="yes"/>
      <point x="3" y="629"/>
      <point x="9" y="623"/>
      <point x="19" y="623" type="curve" smooth="yes"/>
      <point x="58" y="623"/>
      <point x="67" y="604"/>
      <point x="67" y="560" type="curve" smooth="yes"/>
      <point x="67" y="421" type="line" smooth="yes"/>
      <point x="67" y="351"/>
      <point x="83" y="290"/>
      <point x="138" y="277" type="curve"/>
      <point x="83" y="264"/>
      <point x="67" y="204"/>
      <point x="67" y="134" type="curve" smooth="yes"/>
      <point x="67" y="-5" type="line" smooth="yes"/>
      <point x="67" y="-49"/>
      <point x="58" y="-68"/>
      <point x="19" y="-68" type="curve" smooth="yes"/>
      <point x="9" y="-68"/>
      <point x="3" y="-74"/>
      <point x="3" y="-84" type="curve" smooth="yes"/>
      <point x="3" y="-184" type="line" smooth="yes"/>
      <point x="3" y="-193"/>
      <point x="9" y="-200"/>
    </contour>
  </outline>
</glyph>
<glyph name="asciitilde" format="2">
  <advance width="420"/>
  <unicode hex="007E"/>
  <outline>
    <contour>
      <point x="275" y="212" type="curve" smooth="yes"/>
      <point x="331" y="212"/>
      <point x="362" y="230"/>
      <point x="374" y="239" type="curve" smooth="yes"/>
      <point x="377" y="241"/>
      <point x="379" y="246"/>
      <point x="379" y="251" type="curve" smooth="yes"/>
      <point x="379" y="368" type="line" smooth="yes"/>
      <point x="379" y="376"/>
      <point x="376" y="379"/>
      <point x="371" y="377" type="curve" smooth="yes"/>
      <point x="354" y="372"/>
      <point x="319" y="355"/>
      <point x="277" y="355" type="curve" smooth="yes"/>
      <point x="221" y="355"/>
      <point x="205" y="386"/>
      <point x="144" y="386" type="curve" smooth="yes"/>
      <point x="96" y="386"/>
      <point x="59" y="366"/>
      <point x="47" y="358" type="curve" smooth="yes"/>
      <point x="43" y="356"/>
      <point x="41" y="352"/>
      <point x="41" y="346" type="curve" smooth="yes"/>
      <point x="41" y="230" type="line" smooth="yes"/>
      <point x="41" y="223"/>
      <point x="44" y="219"/>
      <point x="49" y="221" type="curve" smooth="yes"/>
      <point x="65" y="227"/>
      <point x="100" y="244"/>
      <point x="143" y="244" type="curve" smooth="yes"/>
      <point x="200" y="244"/>
      <point x="215" y="212"/>
    </contour>
  </outline>
</glyph>
<glyph name="exclamdown" format="2">
  <advance width="267.56594"/>
  <unicode hex="00A1"/>
  <outline>
    <contour>
      <point x="66" y="261" type="line" smooth="yes"/>
      <point x="59" y="261"/>
      <point x="53" y="254"/>
      <point x="53" y="245" type="curve" smooth="yes"/>
      <point x="39" y="-137" type="line" smooth="yes"/>
      <point x="39" y="-145"/>
      <point x="44" y="-152"/>
      <point x="52" y="-152" type="curve" smooth="yes"/>
      <point x="240" y="-152" type="line" smooth="yes"/>
      <point x="247" y="-152"/>
      <point x="253" y="-145"/>
      <point x="253" y="-137" type="curve" smooth="yes"/>
      <point x="239" y="245" type="line" smooth="yes"/>
      <point x="239" y="255"/>
      <point x="233" y="261"/>
      <point x="225" y="261" type="curve" smooth="yes"/>
    </contour>
    <contour>
      <point x="146" y="509" type="curve" smooth="yes"/>
      <point x="81" y="509"/>
      <point x="42" y="482"/>
      <point x="42" y="421" type="curve" smooth="yes"/>
      <point x="42" y="390" type="line" smooth="yes"/>
      <point x="42" y="328"/>
      <point x="81" y="301"/>
      <point x="146" y="301" type="curve" smooth="yes"/>
      <point x="211" y="301"/>
      <point x="248" y="328"/>
      <point x="248" y="390" type="curve" smooth="yes"/>
      <point x="248" y="421" type="line" smooth="yes"/>
      <point x="248" y="482"/>
      <point x="211" y="509"/>
    </contour>
  </outline>
</glyph>
<glyph name="cent" format="2">
  <advance width="467.31807"/>
  <unicode hex="00A2"/>
  <outline>
    <contour>
      <point x="154" y="543" type="line"/>
      <point x="310" y="539" type="line"/>
      <point x="310" y="627" type="line" smooth="yes"/>
      <point x="310" y="633"/>
      <point x="305" y="637"/>
      <point x="299" y="637" type="curve" smooth="yes"/>
      <point x="165" y="637" type="line" smooth="yes"/>
      <point x="159" y="637"/>
      <point x="154" y="633"/>
      <point x="154" y="627" type="curve" smooth="yes"/>
    </contour>
    <contour>
      <point x="165" y="-37" type="curve" smooth="yes"/>
      <point x="299" y="-37" type="line" smooth="yes"/>
      <point x="305" y="-37"/>
      <point x="310" y="-33"/>
      <point x="310" y="-26" type="curve" smooth="yes"/>
      <point x="310" y="61" type="line"/>
      <point x="154" y="57" type="line"/>
      <point x="154" y="-26" type="line" smooth="yes"/>
      <point x="154" y="-33"/>
      <point x="159" y="-37"/>
    </contour>
    <component base="c" xOffset="29" yOffset="50"/>
  </outline>
</glyph>
<glyph name="sterling" format="2">
  <advance width="467.31807"/>
  <unicode hex="00A3"/>
  <outline>
    <contour>
      <point x="53" y="0" type="curve" smooth="yes"/>
      <point x="420" y="0" type="line" smooth="yes"/>
      <point x="431" y="0"/>
      <point x="437" y="5"/>
      <point x="437" y="16" type="curve" smooth="yes"/>
      <point x="437" y="136" type="line" smooth="yes"/>
      <point x="437" y="147"/>
      <point x="431" y="153"/>
      <point x="420" y="153" type="curve" smooth="yes"/>
      <point x="222" y="153" type="line"/>
      <point x="241" y="180"/>
      <point x="244" y="214"/>
      <point x="244" y="260" type="curve" smooth="yes"/>
      <point x="244" y="481" type="line" smooth="yes"/>
      <point x="244" y="508"/>
      <point x="254" y="514"/>
      <point x="265" y="514" type="curve" smooth="yes"/>
      <point x="279" y="514"/>
      <point x="288" y="499"/>
      <point x="283" y="465" type="curve" smooth="yes"/>
      <point x="282" y="454"/>
      <point x="288" y="449"/>
      <point x="299" y="449" type="curve" smooth="yes"/>
      <point x="427" y="449" type="line" smooth="yes"/>
      <point x="439" y="449"/>
      <point x="443" y="454"/>
      <point x="444" y="465" type="curve" smooth="yes"/>
      <point x="453" y="594"/>
      <point x="394" y="661"/>
      <point x="250" y="661" type="curve" smooth="yes"/>
      <point x="130" y="661"/>
      <point x="67" y="593"/>
      <point x="67" y="483" type="curve" smooth="yes"/>
      <point x="67" y="244" type="line" smooth="yes"/>
      <point x="67" y="202"/>
      <point x="54" y="164"/>
      <point x="42" y="137" type="curve" smooth="yes"/>
      <point x="38" y="130"/>
      <point x="36" y="122"/>
      <point x="36" y="115" type="curve" smooth="yes"/>
      <point x="36" y="16" type="line" smooth="yes"/>
      <point x="36" y="5"/>
      <point x="42" y="0"/>
    </contour>
    <contour>
      <point x="41" y="249" type="curve" smooth="yes"/>
      <point x="321" y="249" type="line" smooth="yes"/>
      <point x="332" y="249"/>
      <point x="337" y="254"/>
      <point x="337" y="265" type="curve" smooth="yes"/>
      <point x="337" y="371" type="line" smooth="yes"/>
      <point x="337" y="382"/>
      <point x="332" y="387"/>
      <point x="321" y="387" type="curve" smooth="yes"/>
      <point x="41" y="387" type="line" smooth="yes"/>
      <point x="30" y="387"/>
      <point x="25" y="382"/>
      <point x="25" y="371" type="curve" smooth="yes"/>
      <point x="25" y="265" type="line" smooth="yes"/>
      <point x="25" y="254"/>
      <point x="30" y="249"/>
    </contour>
  </outline>
</glyph>
<glyph name="currency" format="2">
  <advance width="467.31807"/>
  <unicode hex="00A4"/>
  <outline>
    <contour>
      <point x="120" y="84" type="curve"/>
      <point x="173" y="131" type="line"/>
      <point x="191" y="125"/>
      <point x="212" y="122"/>
      <point x="234" y="122" type="curve" smooth="yes"/>
      <point x="255" y="122"/>
      <point x="276" y="125"/>
      <point x="294" y="131" type="curve"/>
      <point x="346" y="85" type="line"/>
      <point x="351" y="81"/>
      <point x="357" y="80"/>
      <point x="362" y="86" type="curve" smooth="yes"/>
      <point x="436" y="176" type="line" smooth="yes"/>
      <point x="439" y="180"/>
      <point x="438" y="187"/>
      <point x="435" y="189" type="curve"/>
      <point x="380" y="241" type="line"/>
      <point x="385" y="263"/>
      <point x="389" y="288"/>
      <point x="389" y="314" type="curve" smooth="yes"/>
      <point x="389" y="340"/>
      <point x="385" y="365"/>
      <point x="380" y="387" type="curve"/>
      <point x="435" y="439" type="line"/>
      <point x="438" y="441"/>
      <point x="439" y="448"/>
      <point x="436" y="452" type="curve" smooth="yes"/>
      <point x="362" y="542" type="line" smooth="yes"/>
      <point x="357" y="548"/>
      <point x="351" y="548"/>
      <point x="347" y="544" type="curve" smooth="yes"/>
      <point x="294" y="497" type="line"/>
      <point x="276" y="503"/>
      <point x="255" y="506"/>
      <point x="234" y="506" type="curve" smooth="yes"/>
      <point x="212" y="506"/>
      <point x="191" y="503"/>
      <point x="173" y="497" type="curve"/>
      <point x="120" y="544" type="line"/>
      <point x="116" y="548"/>
      <point x="111" y="548"/>
      <point x="105" y="542" type="curve" smooth="yes"/>
      <point x="31" y="452" type="line" smooth="yes"/>
      <point x="28" y="448"/>
      <point x="29" y="441"/>
      <point x="32" y="439" type="curve"/>
      <point x="87" y="387" type="line"/>
      <point x="82" y="365"/>
      <point x="78" y="340"/>
      <point x="78" y="314" type="curve" smooth="yes"/>
      <point x="78" y="288"/>
      <point x="82" y="263"/>
      <point x="87" y="241" type="curve"/>
      <point x="32" y="189" type="line"/>
      <point x="29" y="187"/>
      <point x="28" y="180"/>
      <point x="31" y="176" type="curve" smooth="yes"/>
      <point x="105" y="86" type="line" smooth="yes"/>
      <point x="111" y="80"/>
      <point x="115" y="80"/>
    </contour>
    <contour>
      <point x="234" y="258" type="curve" smooth="yes"/>
      <point x="217" y="258"/>
      <point x="213" y="270"/>
      <point x="213" y="314" type="curve" smooth="yes"/>
      <point x="213" y="358"/>
      <point x="217" y="370"/>
      <point x="234" y="370" type="curve" smooth="yes"/>
      <point x="251" y="370"/>
      <point x="254" y="358"/>
      <point x="254" y="314" type="curve" smooth="yes"/>
      <point x="254" y="270"/>
      <point x="251" y="258"/>
    </contour>
  </outline>
</glyph>
<glyph name="yen" format="2">
  <advance width="467.31807"/>
  <unicode hex="00A5"/>
  <outline>
    <contour>
      <point x="156" y="0" type="curve" smooth="yes"/>
      <point x="309" y="0" type="line" smooth="yes"/>
      <point x="322" y="0"/>
      <point x="326" y="5"/>
      <point x="326" y="16" type="curve" smooth="yes"/>
      <point x="326" y="227" type="line"/>
      <point x="468" y="636" type="line" smooth="yes"/>
      <point x="471" y="647"/>
      <point x="468" y="655"/>
      <point x="458" y="655" type="curve" smooth="yes"/>
      <point x="281" y="655" type="line" smooth="yes"/>
      <point x="275" y="655"/>
      <point x="269" y="652"/>
      <point x="268" y="644" type="curve" smooth="yes"/>
      <point x="251" y="515" type="line" smooth="yes"/>
      <point x="244" y="474"/>
      <point x="239" y="431"/>
      <point x="235" y="389" type="curve"/>
      <point x="232" y="389" type="line"/>
      <point x="228" y="431"/>
      <point x="224" y="472"/>
      <point x="217" y="514" type="curve" smooth="yes"/>
      <point x="201" y="644" type="line" smooth="yes"/>
      <point x="200" y="652"/>
      <point x="194" y="655"/>
      <point x="187" y="655" type="curve" smooth="yes"/>
      <point x="9" y="655" type="line" smooth="yes"/>
      <point x="-1" y="655"/>
      <point x="-4" y="647"/>
      <point x="-1" y="636" type="curve" smooth="yes"/>
      <point x="139" y="227" type="line"/>
      <point x="139" y="16" type="line" smooth="yes"/>
      <point x="139" y="5"/>
      <point x="144" y="0"/>
    </contour>
    <contour>
      <point x="66" y="78" type="curve" smooth="yes"/>
      <point x="403" y="78" type="line" smooth="yes"/>
      <point x="415" y="78"/>
      <point x="420" y="84"/>
      <point x="420" y="95" type="curve" smooth="yes"/>
      <point x="420" y="165" type="line" smooth="yes"/>
      <point x="420" y="176"/>
      <point x="415" y="182"/>
      <point x="403" y="182" type="curve" smooth="yes"/>
      <point x="66" y="182" type="line" smooth="yes"/>
      <point x="55" y="182"/>
      <point x="50" y="176"/>
      <point x="50" y="165" type="curve" smooth="yes"/>
      <point x="50" y="95" type="line" smooth="yes"/>
      <point x="50" y="84"/>
      <point x="55" y="78"/>
    </contour>
    <contour>
      <point x="66" y="227" type="curve" smooth="yes"/>
      <point x="403" y="227" type="line" smooth="yes"/>
      <point x="415" y="227"/>
      <point x="420" y="233"/>
      <point x="420" y="244" type="curve" smooth="yes"/>
      <point x="420" y="314" type="line" smooth="yes"/>
      <point x="420" y="325"/>
      <point x="415" y="331"/>
      <point x="403" y="331" type="curve" smooth="yes"/>
      <point x="66" y="331" type="line" smooth="yes"/>
      <point x="55" y="331"/>
      <point x="50" y="325"/>
      <point x="50" y="314" type="curve" smooth="yes"/>
      <point x="50" y="244" type="line" smooth="yes"/>
      <point x="50" y="233"/>
      <point x="55" y="227"/>
    </contour>
  </outline>
</glyph>
<glyph name="brokenbar" format="2">
  <advance width="226.28983"/>
  <unicode hex="00A6"/>
  <outline>
    <contour>
      <point x="53" y="392" type="curve" smooth="yes"/>
      <point x="173" y="392" type="line" smooth="yes"/>
      <point x="183" y="392"/>
      <point x="190" y="399"/>
      <point x="190" y="408" type="curve" smooth="yes"/>
      <point x="190" y="814" type="line" smooth="yes"/>
      <point x="190" y="823"/>
      <point x="183" y="830"/>
      <point x="173" y="830" type="curve" smooth="yes"/>
      <point x="53" y="830" type="line" smooth="yes"/>
      <point x="43" y="830"/>
      <point x="37" y="823"/>
      <point x="37" y="814" type="curve" smooth="yes"/>
      <point x="37" y="408" type="line" smooth="yes"/>
      <point x="37" y="399"/>
      <point x="43" y="392"/>
    </contour>
    <contour>
      <point x="53" y="-185" type="curve" smooth="yes"/>
      <point x="173" y="-185" type="line" smooth="yes"/>
      <point x="183" y="-185"/>
      <point x="190" y="-178"/>
      <point x="190" y="-169" type="curve" smooth="yes"/>
      <point x="190" y="237" type="line" smooth="yes"/>
      <point x="190" y="246"/>
      <point x="183" y="253"/>
      <point x="173" y="253" type="curve" smooth="yes"/>
      <point x="53" y="253" type="line" smooth="yes"/>
      <point x="43" y="253"/>
      <point x="37" y="246"/>
      <point x="37" y="237" type="curve" smooth="yes"/>
      <point x="37" y="-169" type="line" smooth="yes"/>
      <point x="37" y="-178"/>
      <point x="43" y="-185"/>
    </contour>
  </outline>
</glyph>
<glyph name="section" format="2">
  <advance width="399.67348"/>
  <unicode hex="00A7"/>
  <outline>
    <contour>
      <point x="207" y="121" type="line"/>
      <point x="326" y="122"/>
      <point x="384" y="167"/>
      <point x="384" y="261" type="curve" smooth="yes"/>
      <point x="384" y="317"/>
      <point x="372" y="354"/>
      <point x="342" y="388" type="curve" smooth="yes"/>
      <point x="227" y="518" type="line" smooth="yes"/>
      <point x="207" y="539"/>
      <point x="202" y="546"/>
      <point x="202" y="557" type="curve" smooth="yes"/>
      <point x="202" y="567"/>
      <point x="205" y="570"/>
      <point x="213" y="570" type="curve" smooth="yes"/>
      <point x="223" y="570"/>
      <point x="226" y="560"/>
      <point x="224" y="536" type="curve" smooth="yes"/>
      <point x="223" y="527"/>
      <point x="227" y="523"/>
      <point x="237" y="523" type="curve" smooth="yes"/>
      <point x="359" y="523" type="line" smooth="yes"/>
      <point x="369" y="523"/>
      <point x="374" y="529"/>
      <point x="374" y="539" type="curve" smooth="yes"/>
      <point x="374" y="647"/>
      <point x="324" y="691"/>
      <point x="203" y="691" type="curve" smooth="yes"/>
      <point x="92" y="691"/>
      <point x="33" y="646"/>
      <point x="33" y="558" type="curve" smooth="yes"/>
      <point x="33" y="485"/>
      <point x="62" y="458"/>
      <point x="82" y="437" type="curve" smooth="yes"/>
      <point x="184" y="326" type="line" smooth="yes"/>
      <point x="201" y="307"/>
      <point x="219" y="292"/>
      <point x="219" y="261" type="curve" smooth="yes"/>
      <point x="219" y="245"/>
      <point x="214" y="236"/>
      <point x="209" y="227" type="curve"/>
    </contour>
    <contour>
      <point x="197" y="-118" type="curve" smooth="yes"/>
      <point x="308" y="-118"/>
      <point x="367" y="-73"/>
      <point x="367" y="15" type="curve" smooth="yes"/>
      <point x="367" y="88"/>
      <point x="337" y="115"/>
      <point x="318" y="136" type="curve" smooth="yes"/>
      <point x="216" y="247" type="line" smooth="yes"/>
      <point x="199" y="266"/>
      <point x="181" y="281"/>
      <point x="181" y="312" type="curve" smooth="yes"/>
      <point x="181" y="328"/>
      <point x="186" y="338"/>
      <point x="191" y="346" type="curve"/>
      <point x="193" y="452" type="line"/>
      <point x="74" y="451"/>
      <point x="15" y="406"/>
      <point x="15" y="312" type="curve" smooth="yes"/>
      <point x="15" y="256"/>
      <point x="28" y="219"/>
      <point x="58" y="185" type="curve" smooth="yes"/>
      <point x="173" y="55" type="line" smooth="yes"/>
      <point x="192" y="33"/>
      <point x="198" y="27"/>
      <point x="198" y="16" type="curve" smooth="yes"/>
      <point x="198" y="6"/>
      <point x="195" y="3"/>
      <point x="187" y="3" type="curve" smooth="yes"/>
      <point x="176" y="3"/>
      <point x="173" y="13"/>
      <point x="176" y="37" type="curve" smooth="yes"/>
      <point x="177" y="46"/>
      <point x="173" y="50"/>
      <point x="163" y="50" type="curve" smooth="yes"/>
      <point x="41" y="50" type="line" smooth="yes"/>
      <point x="31" y="50"/>
      <point x="25" y="44"/>
      <point x="25" y="34" type="curve" smooth="yes"/>
      <point x="25" y="-74"/>
      <point x="75" y="-118"/>
    </contour>
  </outline>
</glyph>
<glyph name="copyright" format="2">
  <advance width="500.59154"/>
  <unicode hex="00A9"/>
  <outline>
    <contour>
      <point x="250" y="-6" type="curve" smooth="yes"/>
      <point x="425" y="-6"/>
      <point x="485" y="85"/>
      <point x="485" y="233" type="curve" smooth="yes"/>
      <point x="485" y="371" type="line" smooth="yes"/>
      <point x="485" y="519"/>
      <point x="425" y="610"/>
      <point x="250" y="610" type="curve" smooth="yes"/>
      <point x="76" y="610"/>
      <point x="16" y="519"/>
      <point x="16" y="371" type="curve" smooth="yes"/>
      <point x="16" y="233" type="line" smooth="yes"/>
      <point x="16" y="85"/>
      <point x="76" y="-6"/>
    </contour>
    <contour>
      <point x="250" y="75" type="curve" smooth="yes"/>
      <point x="143" y="75"/>
      <point x="100" y="128"/>
      <point x="100" y="236" type="curve" smooth="yes"/>
      <point x="100" y="368" type="line" smooth="yes"/>
      <point x="100" y="476"/>
      <point x="143" y="529"/>
      <point x="250" y="529" type="curve" smooth="yes"/>
      <point x="358" y="529"/>
      <point x="401" y="476"/>
      <point x="401" y="368" type="curve" smooth="yes"/>
      <point x="401" y="236" type="line" smooth="yes"/>
      <point x="401" y="128"/>
      <point x="358" y="75"/>
    </contour>
    <contour>
      <point x="251" y="134" type="curve" smooth="yes"/>
      <point x="327" y="134"/>
      <point x="351" y="182"/>
      <point x="351" y="266" type="curve" smooth="yes"/>
      <point x="351" y="276"/>
      <point x="348" y="276"/>
      <point x="343" y="276" type="curve" smooth="yes"/>
      <point x="280" y="276" type="line" smooth="yes"/>
      <point x="274" y="276"/>
      <point x="272" y="274"/>
      <point x="272" y="267" type="curve" smooth="yes"/>
      <point x="272" y="233"/>
      <point x="273" y="214"/>
      <point x="252" y="214" type="curve" smooth="yes"/>
      <point x="238" y="214"/>
      <point x="232" y="222"/>
      <point x="232" y="241" type="curve" smooth="yes"/>
      <point x="232" y="358" type="line" smooth="yes"/>
      <point x="232" y="377"/>
      <point x="238" y="384"/>
      <point x="252" y="384" type="curve" smooth="yes"/>
      <point x="273" y="384"/>
      <point x="278" y="366"/>
      <point x="272" y="332" type="curve" smooth="yes"/>
      <point x="271" y="324"/>
      <point x="274" y="322"/>
      <point x="280" y="322" type="curve" smooth="yes"/>
      <point x="343" y="322" type="line" smooth="yes"/>
      <point x="348" y="322"/>
      <point x="351" y="323"/>
      <point x="351" y="333" type="curve" smooth="yes"/>
      <point x="351" y="415"/>
      <point x="327" y="464"/>
      <point x="251" y="464" type="curve" smooth="yes"/>
      <point x="187" y="464"/>
      <point x="150" y="429"/>
      <point x="150" y="351" type="curve" smooth="yes"/>
      <point x="150" y="248" type="line" smooth="yes"/>
      <point x="150" y="170"/>
      <point x="187" y="134"/>
    </contour>
  </outline>
</glyph>
<glyph name="ordfeminine" format="2">
  <advance width="311.01183"/>
  <unicode hex="00AA"/>
  <outline>
    <contour>
      <point x="92" y="296" type="curve" smooth="yes"/>
      <point x="132" y="296"/>
      <point x="157" y="319"/>
      <point x="171" y="338" type="curve"/>
      <point x="173" y="328"/>
      <point x="175" y="318"/>
      <point x="178" y="312" type="curve" smooth="yes"/>
      <point x="180" y="305"/>
      <point x="183" y="304"/>
      <point x="186" y="304" type="curve" smooth="yes"/>
      <point x="277" y="304" type="line" smooth="yes"/>
      <point x="282" y="304"/>
      <point x="284" y="306"/>
      <point x="284" y="311" type="curve" smooth="yes"/>
      <point x="282" y="336"/>
      <point x="281" y="367"/>
      <point x="281" y="398" type="curve" smooth="yes"/>
      <point x="281" y="553" type="line" smooth="yes"/>
      <point x="281" y="606"/>
      <point x="259" y="661"/>
      <point x="156" y="661" type="curve" smooth="yes"/>
      <point x="76" y="661"/>
      <point x="34" y="624"/>
      <point x="34" y="549" type="curve" smooth="yes"/>
      <point x="34" y="540"/>
      <point x="38" y="536"/>
      <point x="42" y="536" type="curve" smooth="yes"/>
      <point x="138" y="536" type="line" smooth="yes"/>
      <point x="143" y="536"/>
      <point x="145" y="538"/>
      <point x="145" y="545" type="curve" smooth="yes"/>
      <point x="145" y="559"/>
      <point x="146" y="569"/>
      <point x="155" y="569" type="curve" smooth="yes"/>
      <point x="166" y="569"/>
      <point x="167" y="562"/>
      <point x="167" y="555" type="curve" smooth="yes"/>
      <point x="167" y="513" type="line"/>
      <point x="120" y="503" type="line" smooth="yes"/>
      <point x="63" y="492"/>
      <point x="23" y="469"/>
      <point x="23" y="392" type="curve" smooth="yes"/>
      <point x="23" y="327"/>
      <point x="55" y="296"/>
    </contour>
    <contour>
      <point x="46" y="138" type="curve" smooth="yes"/>
      <point x="274" y="138" type="line" smooth="yes"/>
      <point x="282" y="138"/>
      <point x="288" y="145"/>
      <point x="288" y="154" type="curve" smooth="yes"/>
      <point x="288" y="249" type="line" smooth="yes"/>
      <point x="288" y="258"/>
      <point x="282" y="264"/>
      <point x="274" y="264" type="curve" smooth="yes"/>
      <point x="46" y="264" type="line" smooth="yes"/>
      <point x="39" y="264"/>
      <point x="33" y="258"/>
      <point x="33" y="249" type="curve" smooth="yes"/>
      <point x="33" y="154" type="line" smooth="yes"/>
      <point x="33" y="145"/>
      <point x="39" y="138"/>
    </contour>
    <contour>
      <point x="151" y="387" type="curve" smooth="yes"/>
      <point x="140" y="387"/>
      <point x="138" y="398"/>
      <point x="138" y="418" type="curve" smooth="yes"/>
      <point x="138" y="435"/>
      <point x="146" y="447"/>
      <point x="160" y="451" type="curve" smooth="yes"/>
      <point x="167" y="452" type="line"/>
      <point x="167" y="391" type="line"/>
      <point x="162" y="389"/>
      <point x="157" y="387"/>
    </contour>
  </outline>
</glyph>
<glyph name="guillemetleft" format="2">
  <advance width="494.54171"/>
  <unicode hex="00AB"/>
  <outline>
    <contour>
      <point x="325" y="82" type="curve" smooth="yes"/>
      <point x="466" y="82" type="line" smooth="yes"/>
      <point x="476" y="82"/>
      <point x="480" y="89"/>
      <point x="475" y="100" type="curve" smooth="yes"/>
      <point x="399" y="264" type="line"/>
      <point x="476" y="429" type="line" smooth="yes"/>
      <point x="482" y="440"/>
      <point x="476" y="447"/>
      <point x="466" y="447" type="curve" smooth="yes"/>
      <point x="325" y="447" type="line" smooth="yes"/>
      <point x="319" y="447"/>
      <point x="313" y="444"/>
      <point x="310" y="436" type="curve" smooth="yes"/>
      <point x="231" y="275" type="line" smooth="yes"/>
      <point x="227" y="267"/>
      <point x="227" y="262"/>
      <point x="231" y="254" type="curve" smooth="yes"/>
      <point x="310" y="92" type="line" smooth="yes"/>
      <point x="313" y="86"/>
      <point x="319" y="82"/>
    </contour>
    <contour>
      <point x="113" y="82" type="curve" smooth="yes"/>
      <point x="254" y="82" type="line" smooth="yes"/>
      <point x="264" y="82"/>
      <point x="268" y="89"/>
      <point x="263" y="100" type="curve" smooth="yes"/>
      <point x="187" y="264" type="line"/>
      <point x="264" y="429" type="line" smooth="yes"/>
      <point x="269" y="440"/>
      <point x="264" y="447"/>
      <point x="254" y="447" type="curve" smooth="yes"/>
      <point x="113" y="447" type="line" smooth="yes"/>
      <point x="107" y="447"/>
      <point x="101" y="444"/>
      <point x="98" y="436" type="curve" smooth="yes"/>
      <point x="19" y="275" type="line" smooth="yes"/>
      <point x="15" y="267"/>
      <point x="15" y="262"/>
      <point x="19" y="254" type="curve" smooth="yes"/>
      <point x="98" y="92" type="line" smooth="yes"/>
      <point x="101" y="86"/>
      <point x="107" y="82"/>
    </contour>
  </outline>
</glyph>
<glyph name="logicalnot" format="2">
  <advance width="420"/>
  <unicode hex="00AC"/>
  <outline>
    <contour>
      <point x="254" y="126" type="curve" smooth="yes"/>
      <point x="363" y="126" type="line" smooth="yes"/>
      <point x="373" y="126"/>
      <point x="379" y="133"/>
      <point x="379" y="142" type="curve" smooth="yes"/>
      <point x="379" y="354" type="line" smooth="yes"/>
      <point x="379" y="363"/>
      <point x="373" y="370"/>
      <point x="363" y="370" type="curve" smooth="yes"/>
      <point x="58" y="370" type="line" smooth="yes"/>
      <point x="48" y="370"/>
      <point x="42" y="363"/>
      <point x="42" y="354" type="curve" smooth="yes"/>
      <point x="42" y="246" type="line" smooth="yes"/>
      <point x="42" y="236"/>
      <point x="48" y="230"/>
      <point x="58" y="230" type="curve" smooth="yes"/>
      <point x="238" y="230" type="line"/>
      <point x="238" y="142" type="line" smooth="yes"/>
      <point x="238" y="133"/>
      <point x="245" y="126"/>
    </contour>
  </outline>
</glyph>
<glyph name="registered" format="2">
  <advance width="382.68265"/>
  <unicode hex="00AE"/>
  <outline>
    <contour>
      <point x="192" y="295" type="curve" smooth="yes"/>
      <point x="293" y="295"/>
      <point x="360" y="361"/>
      <point x="360" y="480" type="curve" smooth="yes"/>
      <point x="360" y="517" type="line" smooth="yes"/>
      <point x="360" y="635"/>
      <point x="293" y="702"/>
      <point x="192" y="702" type="curve" smooth="yes"/>
      <point x="91" y="702"/>
      <point x="23" y="643"/>
      <point x="23" y="517" type="curve" smooth="yes"/>
      <point x="23" y="480" type="line" smooth="yes"/>
      <point x="23" y="354"/>
      <point x="91" y="295"/>
    </contour>
    <contour>
      <point x="192" y="363" type="curve" smooth="yes"/>
      <point x="131" y="363"/>
      <point x="93" y="379"/>
      <point x="93" y="480" type="curve" smooth="yes"/>
      <point x="93" y="516" type="line" smooth="yes"/>
      <point x="93" y="617"/>
      <point x="131" y="634"/>
      <point x="192" y="634" type="curve" smooth="yes"/>
      <point x="253" y="634"/>
      <point x="290" y="610"/>
      <point x="290" y="516" type="curve" smooth="yes"/>
      <point x="290" y="480" type="line" smooth="yes"/>
      <point x="290" y="386"/>
      <point x="253" y="363"/>
    </contour>
    <contour>
      <point x="141" y="399" type="curve" smooth="yes"/>
      <point x="181" y="399" type="line" smooth="yes"/>
      <point x="184" y="399"/>
      <point x="185" y="401"/>
      <point x="185" y="407" type="curve" smooth="yes"/>
      <point x="185" y="470" type="line"/>
      <point x="187" y="470" type="line"/>
      <point x="200" y="403" type="line" smooth="yes"/>
      <point x="201" y="399"/>
      <point x="203" y="399"/>
      <point x="205" y="399" type="curve" smooth="yes"/>
      <point x="246" y="399" type="line" smooth="yes"/>
      <point x="250" y="399"/>
      <point x="252" y="401"/>
      <point x="251" y="407" type="curve" smooth="yes"/>
      <point x="231" y="483" type="line"/>
      <point x="242" y="494"/>
      <point x="248" y="513"/>
      <point x="248" y="538" type="curve" smooth="yes"/>
      <point x="248" y="586"/>
      <point x="223" y="603"/>
      <point x="186" y="603" type="curve" smooth="yes"/>
      <point x="142" y="603" type="line" smooth="yes"/>
      <point x="137" y="603"/>
      <point x="137" y="603"/>
      <point x="137" y="597" type="curve" smooth="yes"/>
      <point x="137" y="407" type="line" smooth="yes"/>
      <point x="137" y="401"/>
      <point x="138" y="399"/>
    </contour>
    <contour>
      <point x="185" y="510" type="line"/>
      <point x="185" y="561" type="line"/>
      <point x="189" y="561" type="line" smooth="yes"/>
      <point x="196" y="561"/>
      <point x="200" y="554"/>
      <point x="200" y="541" type="curve" smooth="yes"/>
      <point x="200" y="530" type="line" smooth="yes"/>
      <point x="200" y="517"/>
      <point x="196" y="510"/>
      <point x="189" y="510" type="curve" smooth="yes"/>
    </contour>
  </outline>
</glyph>
<glyph name="degree" format="2">
  <advance width="309.21447"/>
  <unicode hex="00B0"/>
  <outline>
    <contour>
      <point x="155" y="363" type="curve" smooth="yes"/>
      <point x="249" y="363"/>
      <point x="291" y="409"/>
      <point x="291" y="498" type="curve" smooth="yes"/>
      <point x="291" y="554" type="line" smooth="yes"/>
      <point x="291" y="643"/>
      <point x="249" y="689"/>
      <point x="155" y="689" type="curve" smooth="yes"/>
      <point x="60" y="689"/>
      <point x="18" y="643"/>
      <point x="18" y="554" type="curve" smooth="yes"/>
      <point x="18" y="498" type="line" smooth="yes"/>
      <point x="18" y="409"/>
      <point x="60" y="363"/>
    </contour>
    <contour>
      <point x="155" y="483" type="curve" smooth="yes"/>
      <point x="146" y="483"/>
      <point x="142" y="488"/>
      <point x="142" y="504" type="curve" smooth="yes"/>
      <point x="142" y="549" type="line" smooth="yes"/>
      <point x="142" y="564"/>
      <point x="146" y="569"/>
      <point x="155" y="569" type="curve" smooth="yes"/>
      <point x="163" y="569"/>
      <point x="167" y="564"/>
      <point x="167" y="549" type="curve" smooth="yes"/>
      <point x="167" y="504" type="line" smooth="yes"/>
      <point x="167" y="488"/>
      <point x="163" y="483"/>
    </contour>
  </outline>
</glyph>
<glyph name="plusminus" format="2">
  <advance width="420"/>
  <unicode hex="00B1"/>
  <outline>
    <contour>
      <point x="156" y="197" type="curve" smooth="yes"/>
      <point x="265" y="197" type="line" smooth="yes"/>
      <point x="276" y="197"/>
      <point x="281" y="203"/>
      <point x="281" y="214" type="curve" smooth="yes"/>
      <point x="281" y="290" type="line"/>
      <point x="358" y="290" type="line" smooth="yes"/>
      <point x="369" y="290"/>
      <point x="374" y="295"/>
      <point x="374" y="306" type="curve" smooth="yes"/>
      <point x="374" y="415" type="line" smooth="yes"/>
      <point x="374" y="426"/>
      <point x="369" y="432"/>
      <point x="358" y="432" type="curve" smooth="yes"/>
      <point x="281" y="432" type="line"/>
      <point x="281" y="509" type="line" smooth="yes"/>
      <point x="281" y="520"/>
      <point x="276" y="525"/>
      <point x="265" y="525" type="curve" smooth="yes"/>
      <point x="156" y="525" type="line" smooth="yes"/>
      <point x="145" y="525"/>
      <point x="140" y="520"/>
      <point x="140" y="509" type="curve" smooth="yes"/>
      <point x="140" y="432" type="line"/>
      <point x="62" y="432" type="line" smooth="yes"/>
      <point x="51" y="432"/>
      <point x="46" y="426"/>
      <point x="46" y="415" type="curve" smooth="yes"/>
      <point x="46" y="306" type="line" smooth="yes"/>
      <point x="46" y="295"/>
      <point x="51" y="290"/>
      <point x="62" y="290" type="curve" smooth="yes"/>
      <point x="140" y="290" type="line"/>
      <point x="140" y="214" type="line" smooth="yes"/>
      <point x="140" y="203"/>
      <point x="145" y="197"/>
    </contour>
    <contour>
      <point x="62" y="2" type="curve" smooth="yes"/>
      <point x="358" y="2" type="line" smooth="yes"/>
      <point x="368" y="2"/>
      <point x="375" y="8"/>
      <point x="375" y="18" type="curve" smooth="yes"/>
      <point x="375" y="127" type="line" smooth="yes"/>
      <point x="375" y="137"/>
      <point x="368" y="143"/>
      <point x="358" y="143" type="curve" smooth="yes"/>
      <point x="62" y="143" type="line" smooth="yes"/>
      <point x="52" y="143"/>
      <point x="45" y="137"/>
      <point x="45" y="127" type="curve" smooth="yes"/>
      <point x="45" y="18" type="line" smooth="yes"/>
      <point x="45" y="8"/>
      <point x="52" y="2"/>
    </contour>
  </outline>
</glyph>
<glyph name="paragraph" format="2">
  <advance width="457.33579"/>
  <unicode hex="00B6"/>
  <outline>
    <contour>
      <point x="116" y="-185" type="curve" smooth="yes"/>
      <point x="236" y="-185" type="line" smooth="yes"/>
      <point x="246" y="-185"/>
      <point x="252" y="-178"/>
      <point x="252" y="-169" type="curve" smooth="yes"/>
      <point x="252" y="528" type="line"/>
      <point x="290" y="528" type="line"/>
      <point x="290" y="-169" type="line" smooth="yes"/>
      <point x="290" y="-178"/>
      <point x="297" y="-185"/>
      <point x="307" y="-185" type="curve" smooth="yes"/>
      <point x="426" y="-185" type="line" smooth="yes"/>
      <point x="436" y="-185"/>
      <point x="442" y="-178"/>
      <point x="442" y="-169" type="curve" smooth="yes"/>
      <point x="442" y="668" type="line" smooth="yes"/>
      <point x="442" y="676"/>
      <point x="437" y="683"/>
      <point x="429" y="683" type="curve" smooth="yes"/>
      <point x="96" y="683" type="line" smooth="yes"/>
      <point x="35" y="683"/>
      <point x="5" y="638"/>
      <point x="5" y="547" type="curve" smooth="yes"/>
      <point x="5" y="425" type="line" smooth="yes"/>
      <point x="5" y="334"/>
      <point x="35" y="289"/>
      <point x="96" y="289" type="curve" smooth="yes"/>
      <point x="100" y="289" type="line"/>
      <point x="100" y="-169" type="line" smooth="yes"/>
      <point x="100" y="-178"/>
      <point x="107" y="-185"/>
    </contour>
  </outline>
</glyph>
<glyph name="ordmasculine" format="2">
  <advance width="294.95478"/>
  <unicode hex="00BA"/>
  <outline>
    <contour>
      <point x="146" y="295" type="curve" smooth="yes"/>
      <point x="225" y="295"/>
      <point x="270" y="343"/>
      <point x="270" y="426" type="curve" smooth="yes"/>
      <point x="270" y="530" type="line" smooth="yes"/>
      <point x="270" y="613"/>
      <point x="225" y="661"/>
      <point x="146" y="661" type="curve" smooth="yes"/>
      <point x="68" y="661"/>
      <point x="23" y="613"/>
      <point x="23" y="530" type="curve" smooth="yes"/>
      <point x="23" y="426" type="line" smooth="yes"/>
      <point x="23" y="343"/>
      <point x="68" y="295"/>
    </contour>
    <contour>
      <point x="45" y="138" type="curve" smooth="yes"/>
      <point x="249" y="138" type="line" smooth="yes"/>
      <point x="258" y="138"/>
      <point x="262" y="145"/>
      <point x="262" y="154" type="curve" smooth="yes"/>
      <point x="262" y="249" type="line" smooth="yes"/>
      <point x="262" y="258"/>
      <point x="258" y="264"/>
      <point x="249" y="264" type="curve" smooth="yes"/>
      <point x="45" y="264" type="line" smooth="yes"/>
      <point x="36" y="264"/>
      <point x="30" y="258"/>
      <point x="30" y="249" type="curve" smooth="yes"/>
      <point x="30" y="154" type="line" smooth="yes"/>
      <point x="30" y="145"/>
      <point x="36" y="138"/>
    </contour>
    <contour>
      <point x="146" y="404" type="curve" smooth="yes"/>
      <point x="140" y="404"/>
      <point x="138" y="408"/>
      <point x="138" y="421" type="curve" smooth="yes"/>
      <point x="138" y="535" type="line" smooth="yes"/>
      <point x="138" y="548"/>
      <point x="140" y="552"/>
      <point x="146" y="552" type="curve" smooth="yes"/>
      <point x="153" y="552"/>
      <point x="155" y="548"/>
      <point x="155" y="535" type="curve" smooth="yes"/>
      <point x="155" y="421" type="line" smooth="yes"/>
      <point x="155" y="408"/>
      <point x="153" y="404"/>
    </contour>
  </outline>
</glyph>
